<svg width="399" height="248" viewBox="0 0 399 248" fill="none" xmlns="http://www.w3.org/2000/svg">
<path opacity="0.5" fill-rule="evenodd" clip-rule="evenodd" d="M0.401367 227.001H13.7516C31.687 227.001 40.9878 223.584 53.0445 212.567C64.674 201.941 86.9389 168.17 87.8632 159.756L88.4858 154.073L68.7935 153.526C36.9118 152.639 37.3848 151.679 84.1419 122.29C189.1 56.3192 274.136 14.2463 324.229 3.50596C337.492 0.662712 348.154 -0.312819 361.634 0.0849704C378.94 0.59452 380.431 0.952531 379.751 4.42846C378.88 8.8837 375.655 12.3085 356.69 28.9285L342.541 41.3263L350.019 48.0111C354.132 51.6878 358.188 56.8572 359.033 59.4996C361.072 65.8756 358.516 77.5801 354.633 79.6524C349.44 82.4274 330.962 79.9289 323.155 75.3998C315.818 71.1416 315.765 71.1397 307.184 74.716C295.002 79.7926 267.555 100.525 258.737 111.311C251.401 120.284 250.872 126.607 257.456 126.607C262.092 126.607 284.441 112.406 299.7 99.7635C311.788 89.7487 313.96 88.722 323.073 88.722C328.597 88.722 335.996 89.5801 339.51 90.6295L345.9 92.537L335.938 107.035C325.517 122.199 324.996 126.607 333.624 126.607C340.482 126.607 362.561 117.213 380.443 106.689C388.383 102.016 395.712 98.1932 396.733 98.1932C397.756 98.1932 398.591 104.012 398.591 111.123C398.591 122.117 397.778 124.633 393.161 127.936C382.458 135.595 366.611 142.028 351.016 145.049C337.639 147.64 332.557 147.771 318.562 145.888C295.419 142.772 285.882 143.079 270.06 147.443C247.668 153.62 227.232 151.821 217.729 142.833C213.143 138.499 211.365 139.084 205.165 146.97C196.588 157.877 183.841 168.197 174.321 171.94C169.586 173.8 157.566 176.859 147.611 178.734C137.656 180.61 127.535 183.074 125.119 184.21C122.704 185.345 111.714 195.235 100.697 206.187C80.6282 226.138 59.138 240.757 43.167 245.326C38.8906 246.55 27.5217 247.614 17.8976 247.694L0.401367 247.838V227.001ZM193.618 89.4778C197.556 85.6988 234.846 66.3416 266.945 51.4112C282.846 44.0142 290.959 41.3661 297.714 41.3661C309.698 41.3661 309.334 43.7187 296.655 48.1815C271.129 57.1678 236.154 82.2077 219.997 103.063C216.826 107.157 213.105 111.106 211.727 111.839C208.524 113.546 200.162 107.39 194.532 99.1839C190.695 93.5921 190.582 92.3892 193.618 89.4778ZM128.305 141.622C128.305 140.505 136.307 133.185 146.088 125.357C166.295 109.185 173.457 107.6 177.396 118.429C180.224 126.203 177.856 133.346 170.549 139.082C165.418 143.107 162.547 143.655 146.513 143.655C135.158 143.655 128.305 142.89 128.305 141.622Z" fill="#853BFF"/>
<path fill-rule="evenodd" clip-rule="evenodd" d="M85.7477 70.4743C89.818 70.2545 93.6586 71.0749 97.2696 72.9357C99.3534 74.4923 100.442 76.575 100.534 79.1838C100.713 79.7256 101.033 80.1674 101.494 80.5091C107.766 80.4624 114.039 80.4624 120.314 80.5091C127.215 80.5892 133.616 82.3563 139.517 85.8105C147.572 91.9749 148.532 99.1065 142.397 107.206C138.78 110.923 135.003 114.521 131.067 117.998C127.014 120.798 122.917 123.512 118.777 126.139C119.772 127.262 120.925 128.209 122.234 128.979C126.586 131.377 130.939 133.776 135.292 136.174C136.282 136.647 137.306 136.774 138.365 136.553C142.162 133.187 145.555 129.464 148.542 125.382C151.135 121.152 153.823 116.987 156.608 112.886C157.941 111.186 159.669 110.492 161.793 110.803C164.603 112.148 167.483 113.347 170.434 114.4C173.831 112.82 177.096 110.989 180.228 108.91C183.024 107.257 185.968 106.878 189.061 107.774C191.398 108.943 193.382 110.521 195.014 112.507C195.27 113.517 195.27 114.526 195.014 115.536C192.229 120.145 189.54 124.815 186.949 129.547C186.391 130.773 185.943 132.035 185.605 133.334C185.828 133.903 186.148 134.407 186.565 134.849C193.74 126.188 200.589 117.289 207.112 108.152C208.281 107.424 209.561 107.109 210.953 107.206C214.129 107.826 217.329 108.015 220.554 107.774C222.668 106.951 224.589 105.815 226.315 104.365C229.767 103.216 232.84 103.847 235.533 106.259C236.636 107.22 237.596 108.292 238.413 109.478C238.67 110.487 238.67 111.497 238.413 112.507C235.782 116.179 232.966 119.713 229.964 123.11C228.684 125.129 227.403 127.149 226.123 129.168C225.318 131.26 224.742 133.405 224.395 135.606C226.181 135.82 227.973 136.009 229.772 136.174C232.317 136.387 233.149 137.712 232.268 140.15C231.417 142.287 229.816 143.486 227.468 143.747C223.201 144.786 219.808 143.588 217.29 140.15C216.416 136.252 216.288 132.339 216.906 128.411C217.909 124.669 219.125 121.009 220.554 117.43C217.776 116.756 214.959 116.567 212.105 116.862C211.146 117.271 210.25 117.776 209.417 118.376C204.744 124.498 200.071 130.62 195.398 136.742C191.612 140.278 187.579 143.497 183.3 146.398C181.778 147.096 180.178 147.412 178.499 147.345C175.294 147.028 172.158 146.397 169.09 145.451C166.227 146.231 163.538 147.43 161.024 149.049C158.199 150.267 155.255 150.646 152.191 150.185C150.468 149.299 148.804 148.353 147.198 147.345C145.355 149.097 143.435 150.801 141.437 152.457C138.208 153.201 135.007 153.074 131.835 152.078C131.527 150.407 131.335 148.703 131.259 146.966C131.081 146.424 130.76 145.983 130.299 145.641C121.951 140.074 113.117 135.403 103.799 131.63C102.267 130.565 101.627 129.113 101.878 127.275C101.881 126.104 102.073 124.968 102.455 123.867C103.287 123.047 104.119 122.226 104.951 121.406C112.355 116.399 119.588 111.16 126.651 105.691C128.088 103.287 128.344 100.762 127.419 98.1174C124.784 95.7158 121.647 94.3904 118.009 94.1413C112.507 93.7249 107.003 93.3462 101.494 93.0053C100.041 92.5997 98.5687 92.2841 97.0776 92.0586C92.2444 93.6755 87.3156 93.9911 82.2911 93.0053C78.9638 91.3129 77.1075 88.5991 76.7222 84.8638C76.7235 78.1607 79.732 73.3642 85.7477 70.4743ZM169.474 118.187C170.001 118.128 170.513 118.191 171.01 118.376C173.156 119.781 175.268 121.233 177.347 122.731C177.603 123.236 177.603 123.741 177.347 124.246C175.585 127.087 173.921 129.991 172.354 132.955C171.537 134.14 170.577 135.213 169.474 136.174C165.872 138.518 162.032 140.348 157.952 141.665C157.222 138.03 157.542 134.496 158.912 131.062C162.369 126.708 165.889 122.417 169.474 118.187Z" fill="black"/>
<path fill-rule="evenodd" clip-rule="evenodd" d="M363.814 76.1543C364.32 77.1985 364.576 78.3976 364.582 79.7517C364.518 80.9508 364.454 82.1499 364.39 83.3491C361.342 87.3026 358.077 91.0894 354.596 94.7092C355.468 96.1383 356.557 97.4005 357.861 98.496C359.518 101.456 359.646 104.485 358.245 107.584C357.898 108.039 357.45 108.355 356.901 108.531C352.925 109.012 349.468 107.939 346.531 105.312C339.755 109.279 334.314 114.58 330.208 121.216C329.559 123.741 330.263 124.309 332.321 122.92C334.506 121.59 336.554 120.075 338.466 118.376C340.791 115.831 343.223 113.433 345.763 111.181C348.9 110.366 351.972 110.556 354.98 111.749C355.041 112.269 354.976 112.775 354.788 113.264C353.194 116.353 351.594 119.445 349.987 122.542C350.289 123.294 350.865 123.736 351.716 123.867C353.896 123.076 356.009 122.129 358.053 121.027C362.021 118.376 365.99 115.726 369.959 113.075C372.763 112.382 375.579 112.319 378.408 112.886C378.081 113.917 377.633 114.927 377.064 115.915C373.414 119.64 369.638 123.237 365.734 126.707C361.382 129.798 356.517 131.25 351.14 131.062C346.935 130.412 342.711 130.097 338.466 130.115C334.883 131.516 331.171 132.463 327.328 132.955C323.918 132.719 321.101 131.331 318.878 128.79C317.317 130.728 315.844 132.748 314.461 134.849C312.976 136.44 311.376 137.891 309.661 139.203C304.728 141.019 299.735 142.66 294.682 144.126C290.636 149.204 286.411 154.127 282.008 158.894C279.265 161.574 276.064 163.594 272.406 164.953C268.586 165.533 264.745 165.659 260.884 165.332C259.331 165.007 257.923 164.377 256.66 163.438C252.813 159.901 249.548 155.925 246.866 151.51C246.433 150.811 246.241 150.054 246.29 149.238C247.167 149.279 247.935 149.594 248.594 150.185C251.732 153.559 255.444 156.084 259.732 157.758C266.178 159.3 271.491 157.596 275.671 152.646C279.901 147.017 283.038 140.832 285.081 134.091C285 133.869 284.872 133.68 284.696 133.523C280.956 133.493 277.243 133.241 273.559 132.766C272.782 131.56 272.59 130.235 272.982 128.79C275.336 125.585 278.088 122.745 281.24 120.27C284.824 118.25 288.409 116.23 291.994 114.211C293.702 112.978 294.854 111.4 295.45 109.477C294.923 109.418 294.411 109.481 293.914 109.667C289.911 112.87 285.495 115.331 280.664 117.051C279.03 116.83 277.494 116.325 276.055 115.536C273.642 116.398 271.657 117.85 270.102 119.891C269.054 120.797 267.902 121.554 266.645 122.163C262.891 122.747 259.179 123.505 255.508 124.435C253.175 126.483 253.047 128.629 255.123 130.872C257.694 130.923 260.255 130.734 262.805 130.304C266.278 130.509 267.622 132.276 266.837 135.606C266.213 137.333 264.996 138.406 263.189 138.825C257.686 140.053 252.437 139.422 247.442 136.931C245.368 135.547 243.896 133.717 243.025 131.44C243.127 128.416 243.127 125.386 243.025 122.352C242.154 120.611 241.129 118.97 239.953 117.43C239.763 116.811 239.699 116.18 239.761 115.536C242.776 115.451 245.72 115.009 248.594 114.211C253.692 109.047 259.581 105.008 266.261 102.093C268.703 101.38 271.136 101.38 273.559 102.093C274.245 102.39 274.821 102.832 275.287 103.419C275.913 104.766 276.681 106.029 277.591 107.205C281.519 104.858 285.551 102.649 289.689 100.579C294.436 98.3052 299.429 97.5479 304.668 98.3066C305.882 98.8417 307.034 99.4728 308.124 100.2C309.149 100.452 310.173 100.452 311.197 100.2C317.621 96.5262 324.15 92.992 330.784 89.5972C335.894 85.5629 341.271 81.9024 346.915 78.6157C351.743 77.8027 356.608 77.2978 361.509 77.101C362.46 77.0871 363.228 76.7715 363.814 76.1543ZM341.538 94.7092C342.147 94.9547 342.787 95.144 343.458 95.2773C343.97 95.5297 343.97 95.7821 343.458 96.0346C332.637 100.77 324.38 108.28 318.686 118.566C318.003 118.936 317.363 118.81 316.766 118.187C315.742 116.672 314.718 115.158 313.693 113.643C313.242 112.219 313.69 111.146 315.038 110.424C323.481 104.443 332.314 99.2044 341.538 94.7092ZM266.645 110.992C266.982 110.943 267.238 111.069 267.414 111.371C266.123 114.982 263.563 116.939 259.732 117.24C260.078 116.41 260.462 115.59 260.884 114.779C261.653 114.274 262.293 113.643 262.805 112.886C264.125 112.247 265.405 111.616 266.645 110.992ZM305.436 119.323C306.341 119.261 307.237 119.324 308.124 119.512C309.228 122.272 309.1 124.985 307.74 127.654C307.154 128.169 306.513 128.611 305.82 128.979C302.739 129.294 299.667 129.231 296.602 128.79C297.36 127.601 298.193 126.465 299.099 125.382C301.425 123.529 303.538 121.509 305.436 119.323Z" fill="black"/>
<path fill-rule="evenodd" clip-rule="evenodd" d="M172.931 85.6215C177.801 84.9642 181.578 86.6051 184.261 90.5442C184.811 100.849 179.882 104.951 169.475 102.851C166.056 101.94 164.264 99.7315 164.098 96.2243C164.527 90.6283 167.471 87.094 172.931 85.6215Z" fill="black"/>
<path fill-rule="evenodd" clip-rule="evenodd" d="M239.761 87.5156C245.349 87.5346 247.333 90.1853 245.714 95.4677C244.984 97.3234 243.64 98.5225 241.682 99.0651C239.505 99.3176 237.329 99.3176 235.153 99.0651C233.73 98.4216 232.897 97.3487 232.656 95.8464C232.441 92.5475 233.785 90.0861 236.689 88.4623C237.768 88.1661 238.792 87.8505 239.761 87.5156Z" fill="black"/>
<path fill-rule="evenodd" clip-rule="evenodd" d="M74.6118 151.51C74.6118 150.5 74.6118 149.491 74.6118 148.481C75.8502 146.688 77.3224 145.047 79.0286 143.558C79.6378 142.736 80.1499 141.852 80.5648 140.907C83.8757 129.258 87.3323 117.645 90.9346 106.069C91.8591 102.157 93.9714 99.0641 97.2716 96.792C99.9734 96.5696 102.662 96.6958 105.337 97.1706C106.385 98.6315 106.897 100.272 106.873 102.093C106.715 103.825 106.395 105.529 105.913 107.205C101.106 120.034 96.3691 132.909 91.7027 145.83C88.5459 149.756 84.3852 151.775 79.2206 151.889C77.7026 151.562 76.1663 151.436 74.6118 151.51Z" fill="black"/>
<path d="M330.086 166.432C330.118 165.937 323.295 167.929 322.653 168.279C322.011 168.629 321.652 168.878 322.588 169.269C323.525 169.659 324.564 169.68 326.578 169.463C328.593 169.245 331.081 167.732 331.171 167.495C331.262 167.257 331.214 166.835 329.446 167.385C327.679 167.935 330.054 166.927 330.086 166.432Z" fill="black"/>
<path fill-rule="evenodd" clip-rule="evenodd" d="M316.095 154.893C317.823 154.768 319.551 155.839 319.551 156.975C319.551 158.111 316.21 163.782 315.826 164.35C315.442 164.918 317.132 164.714 316.479 164.738C315.826 164.762 322.048 163.413 322.24 163.413C322.432 163.413 322.816 163.413 322.624 163.792C322.432 164.17 319.551 165.117 319.551 165.415C319.551 165.713 322.816 165.306 322.048 165.685C321.28 166.064 318.706 166.811 318.591 167.2C318.476 167.588 321.357 166.799 322.355 167C323.482 167.597 311.759 170.008 309.489 170.408C307.218 170.809 308.698 167.808 309.374 166.632C311.144 164.472 314.908 160.359 316.594 158.102C315.279 158.768 311.486 161.709 310.334 161.709C309.182 161.709 310.489 158.437 311.678 157.165C311.998 156.849 312.318 156.534 312.638 156.218C313.605 155.603 314.769 155.173 316.095 154.893Z" fill="black"/>
<path fill-rule="evenodd" clip-rule="evenodd" d="M341.059 152.242C342.787 152.118 344.515 153.189 344.515 154.325C344.515 155.461 341.174 161.131 340.79 161.699C340.406 162.267 342.096 162.064 341.443 162.088C340.79 162.112 347.012 160.762 347.204 160.762C347.396 160.762 347.78 160.762 347.588 161.141C347.396 161.52 344.515 162.466 344.515 162.764C344.515 163.062 347.78 162.656 347.012 163.034C346.244 163.413 343.67 164.161 343.555 164.549C343.44 164.938 346.321 164.149 347.319 164.35C348.446 164.947 336.723 167.357 334.453 167.758C332.182 168.159 333.662 165.158 334.338 163.981C336.108 161.821 339.872 157.709 341.558 155.451C340.243 156.118 336.45 159.058 335.298 159.058C334.146 159.058 335.453 155.787 336.642 154.514C336.962 154.199 337.282 153.883 337.602 153.568C338.569 152.952 339.733 152.523 341.059 152.242Z" fill="black"/>
<path fill-rule="evenodd" clip-rule="evenodd" d="M323.124 159.052C323.953 156.982 325.621 155.075 326.197 154.697C326.773 154.318 327.061 154.261 327.541 154.129C328.021 153.996 328.316 153.954 328.885 153.939C329.624 153.959 330.037 153.939 330.421 154.129C330.805 154.318 331.766 154.886 331.766 155.833C331.766 156.779 332.086 160.188 331.766 161.702C331.445 163.217 330.998 163.785 330.998 163.785C330.371 164.937 329.59 165.678 328.693 165.868C327.797 166.057 326.517 166.246 325.237 165.868C323.956 165.489 323.611 165.228 323.316 164.353C322.782 162.155 322.792 161.009 323.124 159.052ZM326.171 159.657C326.94 157.764 326.938 157.279 328.245 156.931C328.793 156.78 329.167 156.969 329.167 157.537C329.167 158.105 329.167 159.43 328.885 161.134C328.603 162.838 328.63 163.974 327.349 164.353C326.068 164.732 325.991 164.353 325.813 164.164C325.634 163.974 325.403 161.551 326.171 159.657Z" fill="black"/>
<path d="M354.003 159.732C356.191 157.987 355.189 157.877 353.073 158.025C350.958 158.173 349.591 159.48 348.774 157.767C347.958 156.054 348.542 153.392 348.741 153.216C348.941 153.041 349.362 151.907 351.181 151.158C353 150.409 357.9 149.573 358.985 149.592C360.069 149.612 354.749 150.863 354.762 151.136C354.776 151.408 358.043 150.482 357.826 150.893C357.609 151.305 351.437 153.102 352.037 153.223C352.637 153.343 356.807 152.014 357.402 152.216C357.996 152.419 353.554 153.661 352.485 154.783C351.416 155.905 353.299 156.148 356.57 155.813C359.841 155.477 357.816 162.08 355.512 162.838C353.207 163.595 348.095 165.184 347.964 164.552C347.834 163.92 351.943 163.227 352.341 162.901C352.739 162.576 349.056 163.535 348.759 163.051C348.462 162.567 354.764 161.376 352.787 161.461C350.809 161.547 348.968 162.107 349.167 161.732C349.365 161.357 351.816 161.478 354.003 159.732Z" fill="black"/>
<path d="M387.545 80.0956C387.545 84.2974 384.083 87.7517 379.752 87.7517C375.421 87.7517 371.958 84.2974 371.958 80.0956C371.958 75.8938 375.421 72.4395 379.752 72.4395C384.083 72.4395 387.545 75.8938 387.545 80.0956Z" stroke="black" stroke-width="4"/>
<path d="M376.852 84.0664V76.1924H380.907C381.659 76.1924 382.233 76.2568 382.631 76.3857C383.028 76.5146 383.349 76.7546 383.592 77.1055C383.836 77.4528 383.958 77.8771 383.958 78.3784C383.958 78.8153 383.864 79.193 383.678 79.5117C383.492 79.8268 383.236 80.0828 382.91 80.2798C382.702 80.4051 382.418 80.509 382.056 80.5913C382.346 80.688 382.557 80.7847 382.69 80.8813C382.779 80.9458 382.908 81.0837 383.077 81.2949C383.249 81.5062 383.363 81.6691 383.42 81.7837L384.597 84.0664H381.847L380.547 81.6602C380.382 81.3486 380.235 81.1463 380.106 81.0532C379.931 80.9315 379.732 80.8706 379.51 80.8706H379.295V84.0664H376.852ZM379.295 79.3828H380.321C380.432 79.3828 380.647 79.347 380.966 79.2754C381.127 79.2432 381.258 79.1608 381.358 79.0283C381.462 78.8958 381.514 78.7437 381.514 78.5718C381.514 78.3175 381.433 78.1224 381.272 77.9863C381.111 77.8503 380.808 77.7822 380.364 77.7822H379.295V79.3828Z" fill="black"/>
</svg>
