<svg width="259" height="191" viewBox="0 0 259 191" fill="none" xmlns="http://www.w3.org/2000/svg">
<path fill-rule="evenodd" clip-rule="evenodd" d="M203.667 12.0975C197.621 15.0068 191.437 17.9824 185.625 21.384C183.336 22.7189 181.042 24.0375 178.742 25.3398C174.295 27.8499 169.797 30.5615 165.248 33.4743C165.139 33.5422 165.078 33.6074 165.015 33.6739C164.953 33.7407 164.889 33.8088 164.774 33.8824C155.437 39.8786 147.011 45.5048 139.495 50.7609C113 69.2863 86.0858 90.0353 58.753 113.008C58.6266 113.114 58.4932 113.216 58.3601 113.318C57.7026 113.822 57.0512 114.32 57.273 115.293C57.516 116.371 58.1544 117.116 59.1883 117.53C61.158 118.32 62.4675 118.714 63.1168 118.71C69.4721 118.696 75.7911 118.694 82.0739 118.705C83.7679 118.705 84.4136 119.53 84.0109 121.181C83.8445 121.861 83.6851 122.547 83.5253 123.233C82.938 125.757 82.3464 128.3 81.3883 130.708C76.9555 141.863 71.041 152.437 63.6446 162.43C59.6399 167.844 54.5034 172.475 47.9958 173.955C45.228 174.586 42.1665 174.99 38.8111 175.168C30.2684 175.62 22.2917 173.655 15.7296 168.726C11.2461 165.363 7.08901 161.636 2.94283 157.843C2.73607 157.655 2.52386 157.647 2.30621 157.822L0.575917 159.231C0.380035 159.387 0.370968 159.555 0.548714 159.737C0.585918 159.775 0.623209 159.814 0.660425 159.852C0.922567 160.121 1.1811 160.387 1.38121 160.711C6.86592 169.662 13.1342 178.792 21.0021 185.299C25.5564 189.07 30.633 190.697 36.7978 190.572C39.9864 190.503 43.2275 190.505 46.5212 190.577C52.5337 190.713 58.3231 188.428 63.5684 185.305C77.865 176.793 87.9473 163.151 97.8619 149.736L98.1961 149.284C100.568 146.074 103.409 143.136 106.913 141.329C107.997 140.767 109.579 140.236 111.658 139.735C114.599 139.024 117.788 138.23 121.223 137.352C126.646 135.962 129.82 135.103 130.745 134.773C138.749 131.9 145.812 125.561 150.186 118.166C150.703 117.293 151.305 116.375 151.928 115.425C153.94 112.356 156.176 108.946 156.509 105.564C157.505 95.5248 155.889 89.6746 150.148 82.2327C148.081 79.552 146.561 77.3084 145.589 75.502C144.397 73.2874 145.202 71.0184 147.118 69.3589C150.85 66.1268 154.625 63.2793 158.441 60.8162C168.652 54.236 181.542 46.1994 197.111 36.7064C199.173 35.4549 201.377 34.4483 203.581 33.5015C209.102 31.1327 214.643 34.4238 220.374 33.7881C226.388 33.1212 234.027 34.3578 238.475 29.4696C243.815 23.5714 249.406 17.4573 255.25 11.1274C256.513 9.76711 257.851 7.65593 258.096 5.97461C258.245 4.9299 258.422 3.87612 258.629 2.81328C258.662 2.63553 258.595 2.51402 258.428 2.44872C257.84 2.22019 257.233 2.04245 256.605 1.91549C244.362 -0.549365 231.897 1.48019 219.839 5.52843C214.26 7.40382 208.897 9.58029 203.749 12.0578L203.667 12.0975ZM122.05 111.153C127.529 111.142 132.753 110.217 135.419 104.922C137.831 100.138 138.111 95.0956 136.257 89.7959C134.429 84.5724 128.83 86.7598 125.995 89.4042C121.667 93.4415 117.563 97.4063 113.682 101.299C111.021 103.965 109.16 106.881 107.435 110.119C107.395 110.194 107.374 110.278 107.372 110.363C107.371 110.448 107.39 110.533 107.428 110.609C107.466 110.686 107.521 110.752 107.589 110.803C107.658 110.854 107.737 110.888 107.821 110.902C108.703 111.051 109.563 111.127 110.401 111.131C114.043 111.153 117.926 111.16 122.05 111.153Z" fill="#D563CD"/>
</svg>
