<svg width="2050" height="643" viewBox="0 0 2050 643" fill="none" xmlns="http://www.w3.org/2000/svg">
<g clip-path="url(#clip0_52_20)">
<path fill-rule="evenodd" clip-rule="evenodd" d="M71.25 8.74987C97.7448 7.29872 122.745 12.7154 146.25 24.9999C159.814 35.2766 166.897 49.0266 167.5 66.2499C168.663 69.8269 170.747 72.7436 173.75 74.9999C214.577 74.6916 255.41 74.6916 296.25 74.9999C341.172 75.5286 382.84 87.1951 421.25 110C473.682 150.697 479.932 197.78 440 251.25C416.453 275.795 391.87 299.545 366.25 322.5C339.867 340.99 313.2 358.905 286.25 376.25C292.728 383.665 300.228 389.915 308.75 395C337.082 410.832 365.418 426.667 393.75 442.5C400.193 445.625 406.858 446.46 413.75 445C438.467 422.782 460.552 398.2 480 371.25C496.875 343.327 514.375 315.827 532.5 288.75C541.177 277.527 552.427 272.945 566.25 275C584.542 283.88 603.292 291.795 622.5 298.75C644.612 288.315 665.862 276.23 686.25 262.5C704.453 251.59 723.617 249.091 743.75 255C758.96 262.722 771.878 273.14 782.5 286.25C784.167 292.917 784.167 299.582 782.5 306.25C764.367 336.677 746.867 367.51 730 398.75C726.37 406.842 723.453 415.175 721.25 423.75C722.708 427.505 724.79 430.837 727.5 433.75C774.208 376.57 818.79 317.82 861.25 257.5C868.86 252.692 877.193 250.61 886.25 251.25C906.922 255.345 927.755 256.595 948.75 255C962.51 249.568 975.01 242.068 986.25 232.5C1008.72 224.912 1028.72 229.078 1046.25 245C1053.43 251.342 1059.68 258.425 1065 266.25C1066.67 272.917 1066.67 279.582 1065 286.25C1047.87 310.49 1029.54 333.825 1010 356.25C1001.67 369.582 993.333 382.917 985 396.25C979.755 410.057 976.005 424.222 973.75 438.75C985.372 440.162 997.04 441.412 1008.75 442.5C1025.32 443.905 1030.73 452.655 1025 468.75C1019.46 482.857 1009.04 490.775 993.75 492.5C965.975 499.36 943.893 491.445 927.5 468.75C921.81 443.012 920.977 417.18 925 391.25C931.53 366.547 939.448 342.38 948.75 318.75C930.662 314.302 912.33 313.052 893.75 315C887.51 317.7 881.675 321.035 876.25 325C845.833 365.417 815.417 405.832 785 446.25C760.352 469.597 734.102 490.847 706.25 510C696.34 514.607 685.925 516.692 675 516.25C654.135 514.16 633.72 509.995 613.75 503.75C595.115 508.895 577.615 516.812 561.25 527.5C542.86 535.542 523.695 538.042 503.75 535C492.535 529.155 481.703 522.905 471.25 516.25C459.255 527.815 446.755 539.065 433.75 550C412.733 554.91 391.897 554.077 371.25 547.5C369.242 536.465 367.992 525.215 367.5 513.75C366.337 510.172 364.253 507.257 361.25 505C306.908 468.245 249.408 437.412 188.75 412.5C178.777 405.467 174.61 395.885 176.25 383.75C176.267 376.02 177.517 368.52 180 361.25C185.417 355.832 190.833 350.417 196.25 345C244.444 311.942 291.527 277.36 337.5 241.25C346.855 225.377 348.522 208.711 342.5 191.25C325.348 175.395 304.932 166.645 281.25 165C245.438 162.251 209.605 159.751 173.75 157.5C164.29 154.822 154.706 152.739 145 151.25C113.539 161.924 81.4557 164.008 48.75 157.5C27.0915 146.327 15.0082 128.41 12.5 103.75C12.5087 59.4956 32.092 27.8289 71.25 8.74987ZM616.25 323.75C619.682 323.357 623.018 323.775 626.25 325C640.218 334.275 653.968 343.857 667.5 353.75C669.167 357.082 669.167 360.417 667.5 363.75C656.032 382.51 645.2 401.677 635 421.25C629.68 429.075 623.43 436.157 616.25 442.5C592.807 457.972 567.807 470.055 541.25 478.75C536.497 454.755 538.583 431.42 547.5 408.75C570.003 380.007 592.917 351.675 616.25 323.75Z" fill="black"/>
<path fill-rule="evenodd" clip-rule="evenodd" d="M1881.25 46.25C1884.55 53.1437 1886.21 61.0605 1886.25 70C1885.83 77.9167 1885.42 85.8333 1885 93.75C1865.16 119.852 1843.91 144.852 1821.25 168.75C1826.93 178.185 1834.01 186.518 1842.5 193.75C1853.29 213.292 1854.12 233.292 1845 253.75C1842.74 256.753 1839.83 258.837 1836.25 260C1810.37 263.178 1787.87 256.092 1768.75 238.75C1724.64 264.94 1689.23 299.94 1662.5 343.75C1658.28 360.418 1662.86 364.168 1676.25 355C1690.48 346.217 1703.81 336.217 1716.25 325C1731.39 308.198 1747.22 292.365 1763.75 277.5C1784.17 272.117 1804.17 273.367 1823.75 281.25C1824.14 284.682 1823.73 288.018 1822.5 291.25C1812.13 311.642 1801.71 332.057 1791.25 352.5C1793.22 357.47 1796.97 360.385 1802.5 361.25C1816.7 356.027 1830.45 349.777 1843.75 342.5C1869.58 325 1895.42 307.5 1921.25 290C1939.5 285.425 1957.84 285.008 1976.25 288.75C1974.12 295.557 1971.2 302.225 1967.5 308.75C1943.74 333.34 1919.16 357.09 1893.75 380C1865.42 400.408 1833.75 409.99 1798.75 408.75C1771.38 404.462 1743.88 402.38 1716.25 402.5C1692.93 411.75 1668.77 418 1643.75 421.25C1621.56 419.693 1603.22 410.525 1588.75 393.75C1578.59 406.547 1569 419.88 1560 433.75C1550.33 444.255 1539.92 453.837 1528.75 462.5C1496.64 474.485 1464.14 485.32 1431.25 495C1404.91 528.527 1377.41 561.028 1348.75 592.5C1330.9 610.195 1310.06 623.53 1286.25 632.5C1261.38 636.328 1236.38 637.162 1211.25 635C1201.14 632.86 1191.97 628.695 1183.75 622.5C1158.71 599.145 1137.46 572.895 1120 543.75C1117.18 539.138 1115.93 534.138 1116.25 528.75C1121.96 529.02 1126.96 531.103 1131.25 535C1151.67 557.277 1175.84 573.945 1203.75 585C1245.71 595.18 1280.29 583.93 1307.5 551.25C1335.04 514.087 1355.45 473.255 1368.75 428.75C1368.23 427.285 1367.39 426.035 1366.25 425C1341.9 424.802 1317.73 423.138 1293.75 420C1288.69 412.043 1287.44 403.293 1290 393.75C1305.32 372.595 1323.24 353.845 1343.75 337.5C1367.08 324.168 1390.42 310.832 1413.75 297.5C1424.87 289.357 1432.37 278.94 1436.25 266.25C1432.82 265.857 1429.48 266.275 1426.25 267.5C1400.2 288.647 1371.45 304.897 1340 316.25C1329.37 314.79 1319.37 311.457 1310 306.25C1294.29 311.943 1281.38 321.525 1271.25 335C1264.43 340.98 1256.93 345.98 1248.75 350C1224.31 353.858 1200.15 358.858 1176.25 365C1161.07 378.522 1160.23 392.688 1173.75 407.5C1190.49 407.835 1207.15 406.585 1223.75 403.75C1246.36 405.1 1255.11 416.767 1250 438.75C1245.93 450.155 1238.02 457.237 1226.25 460C1190.43 468.112 1156.26 463.945 1123.75 447.5C1110.25 438.36 1100.67 426.277 1095 411.25C1095.66 391.28 1095.66 371.28 1095 351.25C1089.33 339.755 1082.66 328.922 1075 318.75C1073.77 314.665 1073.35 310.497 1073.75 306.25C1093.38 305.69 1112.54 302.772 1131.25 297.5C1164.43 263.41 1202.77 236.744 1246.25 217.5C1262.15 212.792 1277.98 212.792 1293.75 217.5C1298.22 219.461 1301.97 222.378 1305 226.25C1309.08 235.147 1314.08 243.48 1320 251.25C1345.57 235.751 1371.82 221.168 1398.75 207.5C1429.65 192.491 1462.15 187.491 1496.25 192.5C1504.15 196.033 1511.65 200.199 1518.75 205C1525.42 206.667 1532.08 206.667 1538.75 205C1580.57 180.746 1623.07 157.412 1666.25 135C1699.51 108.366 1734.51 84.199 1771.25 62.5C1802.68 57.133 1834.35 53.7995 1866.25 52.5C1872.44 52.4082 1877.44 50.325 1881.25 46.25ZM1736.25 168.75C1740.22 170.37 1744.38 171.62 1748.75 172.5C1752.08 174.167 1752.08 175.833 1748.75 177.5C1678.31 208.762 1624.56 258.345 1587.5 326.25C1583.05 328.698 1578.89 327.865 1575 323.75C1568.33 313.75 1561.67 303.75 1555 293.75C1552.06 284.35 1554.98 277.268 1563.75 272.5C1618.71 233.011 1676.21 198.427 1736.25 168.75ZM1248.75 276.25C1250.94 275.923 1252.61 276.755 1253.75 278.75C1245.35 302.592 1228.68 315.51 1203.75 317.5C1206 312.02 1208.5 306.605 1211.25 301.25C1216.25 297.917 1220.42 293.75 1223.75 288.75C1232.34 284.535 1240.68 280.367 1248.75 276.25ZM1501.25 331.25C1507.14 330.842 1512.98 331.258 1518.75 332.5C1525.93 350.717 1525.1 368.633 1516.25 386.25C1512.43 389.652 1508.26 392.57 1503.75 395C1483.7 397.08 1463.7 396.663 1443.75 393.75C1448.68 385.9 1454.1 378.4 1460 371.25C1475.14 359.02 1488.89 345.685 1501.25 331.25Z" fill="black"/>
<path fill-rule="evenodd" clip-rule="evenodd" d="M638.75 108.75C670.452 104.411 695.037 115.244 712.5 141.25C716.083 209.283 683.998 236.367 616.25 222.5C593.997 216.488 582.332 201.905 581.25 178.75C584.043 141.805 603.208 118.472 638.75 108.75Z" fill="black"/>
<path fill-rule="evenodd" clip-rule="evenodd" d="M1073.75 121.25C1110.12 121.375 1123.04 138.876 1112.5 173.75C1107.75 186.001 1099 193.918 1086.25 197.5C1072.08 199.167 1057.92 199.167 1043.75 197.5C1034.49 193.252 1029.07 186.168 1027.5 176.25C1026.1 154.47 1034.85 138.22 1053.75 127.5C1060.78 125.544 1067.44 123.461 1073.75 121.25Z" fill="black"/>
<path fill-rule="evenodd" clip-rule="evenodd" d="M-1.25 543.75C-1.25 537.082 -1.25 530.418 -1.25 523.75C6.8109 511.918 16.3943 501.082 27.5 491.25C31.4655 485.825 34.799 479.99 37.5 473.75C59.0515 396.842 81.5515 320.175 105 243.75C111.018 217.917 124.768 197.5 146.25 182.5C163.837 181.032 181.337 181.865 198.75 185C205.574 194.644 208.907 205.478 208.75 217.5C207.721 228.929 205.637 240.179 202.5 251.25C171.208 335.947 140.375 420.948 110 506.25C89.4515 532.168 62.3682 545.5 28.75 546.25C18.8686 544.095 8.86858 543.263 -1.25 543.75Z" fill="black"/>
<path d="M1963.21 91.5V37.8135H1990.86C1995.99 37.8135 1999.91 38.2529 2002.62 39.1318C2005.33 40.0107 2007.51 41.6465 2009.17 44.0391C2010.83 46.4072 2011.66 49.3003 2011.66 52.7183C2011.66 55.6968 2011.03 58.2725 2009.76 60.4453C2008.49 62.5938 2006.74 64.3394 2004.52 65.6821C2003.11 66.5366 2001.16 67.2446 1998.7 67.8062C2000.68 68.4653 2002.12 69.1245 2003.02 69.7837C2003.63 70.2231 2004.51 71.1631 2005.66 72.6035C2006.83 74.0439 2007.61 75.1548 2008 75.936L2016.02 91.5H1997.27L1988.41 75.0938C1987.29 72.9697 1986.28 71.5903 1985.41 70.9556C1984.21 70.1255 1982.85 69.7104 1981.34 69.7104H1979.88V91.5H1963.21ZM1979.88 59.5664H1986.87C1987.63 59.5664 1989.09 59.3223 1991.26 58.834C1992.36 58.6143 1993.25 58.0527 1993.94 57.1494C1994.65 56.2461 1995 55.2085 1995 54.0366C1995 52.3032 1994.45 50.9727 1993.35 50.0449C1992.25 49.1172 1990.19 48.6533 1987.16 48.6533H1979.88V59.5664Z" fill="black"/>
<circle cx="1986.25" cy="63.75" r="57.5" stroke="black" stroke-width="12.5"/>
<path d="M1647 568.741C1647.21 565.474 1602.79 578.625 1598.61 580.935C1594.44 583.245 1592.1 584.891 1598.19 587.469C1604.29 590.047 1611.05 590.185 1624.16 588.75C1637.28 587.315 1653.47 577.325 1654.06 575.756C1654.65 574.188 1654.34 571.4 1642.83 575.034C1631.33 578.667 1646.79 572.008 1647 568.741Z" fill="black"/>
<path fill-rule="evenodd" clip-rule="evenodd" d="M1555.92 492.565C1567.16 491.743 1578.42 498.815 1578.42 506.315C1578.42 513.815 1556.66 551.25 1554.16 555C1551.67 558.75 1562.67 557.405 1558.42 557.565C1554.16 557.725 1594.67 548.815 1595.92 548.815C1597.17 548.815 1599.67 548.815 1598.42 551.315C1597.17 553.815 1578.42 560.065 1578.42 562.032C1578.42 563.999 1599.67 561.315 1594.67 563.815C1589.67 566.315 1572.91 571.25 1572.17 573.815C1571.42 576.38 1590.17 571.172 1596.66 572.5C1604 576.439 1527.69 592.354 1512.91 595C1498.14 597.646 1507.77 577.835 1512.17 570.065C1523.69 555.805 1548.19 528.655 1559.16 513.75C1550.61 518.152 1525.92 537.565 1518.42 537.565C1510.92 537.565 1519.42 515.965 1527.17 507.565C1529.25 505.483 1531.33 503.398 1533.42 501.315C1539.71 497.253 1547.29 494.419 1555.92 492.565Z" fill="black"/>
<path fill-rule="evenodd" clip-rule="evenodd" d="M1718.42 475.065C1729.66 474.243 1740.92 481.315 1740.92 488.815C1740.92 496.315 1719.16 533.75 1716.66 537.5C1714.17 541.25 1725.17 539.905 1720.92 540.065C1716.66 540.225 1757.17 531.315 1758.42 531.315C1759.67 531.315 1762.17 531.315 1760.92 533.815C1759.67 536.315 1740.92 542.565 1740.92 544.532C1740.92 546.499 1762.17 543.815 1757.17 546.315C1752.17 548.815 1735.41 553.75 1734.67 556.315C1733.92 558.88 1752.67 553.672 1759.16 555C1766.5 558.939 1690.19 574.854 1675.41 577.5C1660.64 580.146 1670.27 560.335 1674.67 552.565C1686.19 538.305 1710.69 511.155 1721.66 496.25C1713.11 500.652 1688.42 520.065 1680.92 520.065C1673.42 520.065 1681.92 498.465 1689.67 490.065C1691.75 487.983 1693.83 485.898 1695.92 483.815C1702.21 479.753 1709.79 476.919 1718.42 475.065Z" fill="black"/>
<path fill-rule="evenodd" clip-rule="evenodd" d="M1601.66 520C1607.06 506.335 1617.91 493.75 1621.66 491.25C1625.41 488.75 1627.29 488.375 1630.41 487.5C1633.54 486.625 1635.46 486.348 1639.16 486.25C1643.97 486.381 1646.66 486.25 1649.16 487.5C1651.66 488.75 1657.91 492.5 1657.91 498.75C1657.91 505 1660 527.5 1657.91 537.5C1655.83 547.5 1652.91 551.25 1652.91 551.25C1648.84 558.857 1643.75 563.75 1637.91 565C1632.08 566.25 1623.75 567.5 1615.41 565C1607.08 562.5 1604.83 560.774 1602.91 555C1599.43 540.487 1599.5 532.923 1601.66 520ZM1621.5 524C1626.5 511.5 1626.49 508.297 1635 506C1638.56 505.001 1641 506.25 1641 510C1641 513.75 1641 522.5 1639.16 533.75C1637.33 545 1637.5 552.5 1629.16 555C1620.83 557.5 1620.33 555 1619.16 553.75C1618 552.5 1616.5 536.5 1621.5 524Z" fill="black"/>
<path d="M1802.68 524.499C1816.92 512.974 1810.4 512.25 1796.63 513.226C1782.86 514.202 1773.96 522.83 1768.65 511.521C1763.33 500.212 1767.13 482.637 1768.43 481.479C1769.73 480.322 1772.47 472.835 1784.31 467.891C1796.15 462.948 1828.05 457.428 1835.11 457.555C1842.17 457.682 1807.53 465.946 1807.62 467.745C1807.71 469.544 1828.98 463.429 1827.56 466.144C1826.15 468.859 1785.98 480.728 1789.88 481.522C1793.78 482.316 1820.93 473.543 1824.8 474.878C1828.67 476.213 1799.76 484.413 1792.8 491.822C1785.84 499.23 1798.1 500.834 1819.39 498.621C1840.68 496.408 1827.5 540 1812.5 545C1797.5 550 1764.22 560.491 1763.37 556.318C1762.52 552.145 1789.27 547.571 1791.86 545.421C1794.45 543.27 1770.48 549.602 1768.55 546.407C1766.61 543.212 1807.63 535.352 1794.76 535.914C1781.89 536.476 1769.9 540.179 1771.2 537.702C1772.49 535.224 1788.44 536.025 1802.68 524.499Z" fill="black"/>
</g>
<defs>
<clipPath id="clip0_52_20">
<rect width="2050" height="642.5" fill="white"/>
</clipPath>
</defs>
</svg>
