<svg width="91" height="139" viewBox="0 0 91 139" fill="none" xmlns="http://www.w3.org/2000/svg">
<rect x="1.10791" y="67.8359" width="67.3352" height="89.2149" transform="rotate(-90 1.10791 67.8359)" stroke="#1E1E1E"/>
<path d="M79.5459 68.3359H11.8848V65.9335H79.5459V68.3359ZM79.4978 64.7514H11.8848V63.5311H79.4978V64.7514ZM79.4978 61.1287H11.8848V59.9466H79.4978V61.1287ZM79.4978 55.1418H11.8848V53.9597H79.4978V55.1418ZM79.4978 50.337H11.8848V47.9727H79.4978V50.337ZM79.4978 44.35H11.8848V43.1679H79.4978V44.35ZM79.4978 41.9476H11.8848V40.7655H79.4978V41.9476ZM79.4978 39.5452H11.8848V38.3631H79.4978V39.5452ZM79.4978 34.7784H11.8848V32.376H79.4978V34.7784ZM79.4978 28.7915H11.8848V26.3891H79.4978V28.7915ZM79.4978 23.9868H11.8848V21.5843H79.4978V23.9868ZM79.4978 19.1818H11.8848V16.7793H79.4978V19.1818ZM79.4978 15.5973H11.8848L11.8848 13.1949H79.4978V15.5973ZM79.4978 9.5722H11.8848V5.98768H79.4978V9.5722ZM79.4978 4.80556H11.8848V3.58527H79.4978V4.80556ZM79.5459 2.40315H11.8848V0.000740051H79.5459V2.40315Z" fill="white"/>
<rect x="90.3228" y="71.1641" width="67.3352" height="89.2149" transform="rotate(90 90.3228 71.1641)" stroke="#1E1E1E"/>
<path d="M11.8847 70.6641H79.5459V73.0665H11.8847V70.6641ZM11.9328 74.2486H79.5459V75.4689H11.9328V74.2486ZM11.9328 77.8713H79.5459V79.0534H11.9328V77.8713ZM11.9328 83.8582H79.5459V85.0403H11.9328V83.8582ZM11.9328 88.663H79.5459V91.0273H11.9328V88.663ZM11.9328 94.65H79.5459V95.8321H11.9328V94.65ZM11.9328 97.0524H79.5459V98.2345H11.9328V97.0524ZM11.9328 99.4548H79.5459V100.637H11.9328V99.4548ZM11.9328 104.222H79.5459V106.624H11.9328V104.222ZM11.9328 110.209H79.5459V112.611H11.9328V110.209ZM11.9328 115.013H79.5459V117.416H11.9328V115.013ZM11.9328 119.818H79.5459V122.221H11.9328V119.818ZM11.9328 123.403H79.5459V125.805H11.9328V123.403ZM11.9328 129.428H79.5459V133.012H11.9328V129.428ZM11.9328 134.194H79.5459V135.415H11.9328V134.194ZM11.8847 136.597H79.5459V138.999H11.8847V136.597Z" fill="white"/>
</svg>
