<svg width="353" height="50" viewBox="0 0 353 50" fill="none" xmlns="http://www.w3.org/2000/svg">
<g clip-path="url(#clip0_642_3851)">
<mask id="mask0_642_3851" style="mask-type:luminance" maskUnits="userSpaceOnUse" x="0" y="0" width="49" height="50">
<path d="M49 0.280029H0V49.3162H49V0.280029Z" fill="white"/>
</mask>
<g mask="url(#mask0_642_3851)">
<path d="M28.7505 47.6896V49.3141H23.7535V47.7597C24.2596 47.7342 24.7401 47.7108 25.2951 47.6853V44.3682H23.6918C23.6578 44.8551 23.6238 45.3633 23.5813 45.9842H20.2875C20.2578 46.5796 20.2344 47.0602 20.2067 47.6109H18.6311C18.6056 47.1388 18.5801 46.6306 18.5439 45.9693H16.8662L16.9045 46.0076V42.6883C17.4935 42.6586 18.0357 42.6331 18.5779 42.6075C18.5779 43.1561 18.5779 43.7069 18.5779 44.2597H21.8993V42.6288H18.5567V40.9554C18.0293 40.9256 17.5211 40.8958 16.9534 40.8618V37.5213C18.0549 37.5213 19.1648 37.5213 20.2727 37.5213C20.2727 38.072 20.2727 38.6227 20.2727 39.1713H21.9014V37.5404H20.2514C20.262 36.9663 20.2727 36.3922 20.2854 35.8159L20.2429 35.8499H21.8908V32.4244H20.2429L20.2769 32.4584C20.2684 31.8843 20.2578 31.3102 20.2493 30.736C21.9525 30.736 23.6536 30.736 25.3568 30.736C25.3568 31.308 25.3568 31.88 25.3568 32.4499H23.694V42.5671H25.3951V39.3074H27.0621V44.298H32.1378V45.9948C34.464 45.9948 36.6925 45.9948 38.9209 45.9948C38.9209 46.5434 38.9209 47.0899 38.9209 47.6534H42.2635V42.6501H40.5752V46.014H38.9018V44.264H35.5782C35.5442 43.6473 35.5166 43.1413 35.4889 42.6203H33.8134V40.8639H28.8206V39.2032H32.1186C32.1186 38.5611 32.1186 38.0359 32.1186 37.5106C32.6694 37.5106 33.2201 37.5106 33.7687 37.5106V35.8818H32.1378V37.5319C31.5913 37.5043 31.0448 37.4745 30.4835 37.4469C30.4558 36.8706 30.4346 36.39 30.409 35.867C29.8413 35.8244 29.3331 35.7862 28.725 35.7415V34.1233H37.2028V30.7318C37.7493 30.7594 38.2936 30.7892 38.8507 30.819C38.8805 31.3952 38.906 31.8736 38.9336 32.4286C41.228 32.4286 43.4628 32.4286 45.6997 32.4286C45.6997 32.9794 45.6997 33.5301 45.6997 34.0787H47.3285V32.4478H45.6785L45.704 29.0286L45.67 29.0711H47.2966C47.3413 29.6452 47.3796 30.1534 47.4221 30.719C47.9473 30.7445 48.4279 30.7679 48.9829 30.7956V37.449H47.4625C47.4242 36.9323 47.386 36.4241 47.3434 35.8648H45.7104C45.6849 36.3879 45.6615 36.8685 45.6317 37.4469C45.0746 37.4766 44.526 37.5043 43.9795 37.5319C43.9795 36.4156 43.9795 35.2992 43.9795 34.1871H42.3507V37.5128H44.0008L43.9668 39.2373L44.0093 39.2032H42.3635V40.9341H44.0093L43.9753 40.9001V42.5459H45.7061V40.9001L45.6721 40.9426H47.3604V44.2831C47.9601 44.3129 48.4406 44.3363 48.9914 44.3639V45.9353C48.5108 45.9629 48.0026 45.9906 47.4242 46.0246C47.3923 46.5413 47.3604 47.024 47.3243 47.5939H45.7572C45.7295 47.1133 45.7019 46.6306 45.6679 46.0671H44.0093V49.3141H37.2963C37.2559 48.8059 37.2177 48.2977 37.173 47.7385H35.5421C35.5144 48.2658 35.4911 48.7485 35.4634 49.3035H32.1952C32.1697 48.8314 32.1399 48.3232 32.1059 47.7108C30.9598 47.7108 29.8434 47.7108 28.725 47.7108C28.725 47.1601 28.725 46.6094 28.725 46.0608H27.0962V47.6917H28.7462L28.7505 47.6896ZM40.5582 40.8979V35.884H35.5761V40.8979H40.5582Z" fill="#F6F6F6"/>
<path d="M16.8982 8.72182C16.9024 7.58422 16.9067 6.44661 16.9109 5.30901L16.8727 5.34728H18.5185V1.91958H13.5513V0.305664H20.1813C20.2217 0.824498 20.2621 1.3327 20.3067 1.88981H21.9206C21.9547 1.405 21.9887 0.896794 22.027 0.318422H27.0218V1.94084L27.0643 1.90682H25.3866C25.3441 2.52772 25.308 3.03379 25.2718 3.56538C24.6892 3.59303 24.1831 3.61854 23.6643 3.64406C23.6643 4.28197 23.6643 4.80293 23.6643 5.32602C23.1199 5.29837 22.5734 5.2686 22.0142 5.23884C21.9866 4.66259 21.9632 4.18416 21.9377 3.65469H20.3323V6.95269H23.6451V5.30688C24.1916 5.33452 24.7381 5.36429 25.3569 5.39619V12.0602H27.075V8.72395H28.759L28.7165 8.68993C28.7165 10.3974 28.7165 12.1027 28.7165 13.8102L28.759 13.7762H27.0282V15.5071L27.0622 15.473H25.4164V17.2039H27.0622L27.0197 17.1699V20.5508C27.6193 20.5806 28.0999 20.6061 28.7144 20.6359V23.9849L28.7569 23.9509L27.0346 23.9785V22.237H21.9547L21.9929 22.2753V20.6401C22.6224 20.6061 23.1029 20.5806 23.6154 20.5529V15.4582H20.2536C20.2536 13.689 20.2536 12.0432 20.2536 10.3953C20.8256 10.3953 21.3976 10.3953 21.9674 10.3953V13.7422H23.5984V10.4144C22.9987 10.4144 22.4735 10.4144 21.9462 10.4144C21.9462 9.87219 21.9462 9.32997 21.9462 8.77498H20.2727V10.4123C19.7007 10.4123 19.1287 10.4123 18.5567 10.4144V8.69205H16.8535L16.896 8.72608L16.8982 8.72182Z" fill="#F6F6F6"/>
<path d="M37.3115 0.282227H48.9917V12.024H37.3115V0.282227ZM38.9807 1.94292V10.3463H47.3458V1.94292H38.9807Z" fill="#F6F6F6"/>
<path d="M11.7333 37.6382V49.3056H0.0297852V37.6382H11.7333ZM10.045 47.681V39.2819H1.68197V47.681H10.0471H10.045Z" fill="#F6F6F6"/>
<path d="M11.6843 12.0368H0.019043V0.326904H11.6843V12.0347V12.0368ZM10.0768 1.97271H1.67336V10.3527H10.0768V1.97271Z" fill="#F6F6F6"/>
<path d="M5.01621 34.1254V35.7521H0.0107422V29.0753H1.63103L1.59701 29.0327V30.6785H3.32787V29.0327L3.29385 29.0668H4.93966V27.3359H3.29385L3.33638 27.3699V23.9869H5.02471L4.99069 23.9443V25.6476H8.40989C8.38225 26.1919 8.35461 26.7363 8.32696 27.2827C7.72733 27.3253 7.22125 27.3593 6.77259 27.3912V29.037H10.1067C10.0982 29.6111 10.0876 30.1852 10.0791 30.7593L10.1131 30.7168H6.76621V32.3988C7.24889 32.4307 7.75497 32.4647 8.32058 32.503V35.7372H6.77259C6.74707 35.263 6.7173 34.7527 6.68541 34.1403C6.10278 34.1403 5.54993 34.1403 4.9992 34.1403C4.9992 33.5895 4.9992 33.0388 4.9992 32.4902H3.3704V34.1211H5.02046L5.01621 34.1254Z" fill="#F6F6F6"/>
<path d="M3.33627 18.8943V17.1911H0V13.8782H3.23208C3.26823 14.3757 3.30437 14.8839 3.34478 15.4474H4.9842C5.00972 14.9286 5.03524 14.4459 5.06288 13.8867H8.33323V17.2059H13.5003L13.4663 17.1634C13.4748 17.7375 13.4854 18.3116 13.4939 18.8858H10.1024V20.5805C9.52825 20.572 8.95413 20.5635 8.38001 20.5528L8.41403 20.5869V18.856H6.68317L6.71719 18.89V17.2442H4.98633V18.89L5.02035 18.856H3.28949L3.33202 18.89L3.33627 18.8943Z" fill="#F6F6F6"/>
<path d="M45.6639 20.5719V23.9166C46.2422 23.957 46.7483 23.9911 47.3118 24.0315V25.5858C46.81 25.6177 46.3018 25.6517 45.6788 25.6921C45.6788 26.8425 45.6788 27.9589 45.6788 29.0752L45.7128 29.0327C45.1408 29.0263 44.5688 29.0199 43.9968 29.0135L44.0351 29.0518V22.2772H42.2957C42.2957 21.7265 42.2957 21.1757 42.2957 20.5931C41.6833 20.5591 41.1751 20.5315 40.7009 20.5059V18.9282C41.2772 18.9027 41.7833 18.8793 42.2744 18.8559V17.1569H38.9339V15.4707L38.8999 15.5132H45.6086V17.1144C45.1365 17.142 44.6283 17.1718 44.0521 17.2058V20.6123H45.7021L45.6639 20.574V20.5719Z" fill="#F6F6F6"/>
<path d="M20.2896 35.8159H18.6523C18.6119 35.2439 18.5757 34.7379 18.5375 34.1659C18.0229 34.1382 17.5423 34.1106 16.9555 34.0787C16.9214 33.579 16.8895 33.0708 16.847 32.4584H10.1107C10.1107 31.812 10.1107 31.2676 10.1107 30.7212L10.0767 30.7637H11.7799V29.0413C12.3519 29.0413 12.9239 29.0413 13.4959 29.0413C13.4959 29.5921 13.4959 30.1428 13.4959 30.6914H15.1247V29.0605H13.4746C13.4746 28.4885 13.4746 27.9165 13.4746 27.3445H16.9002V30.7339H18.5821V32.4563H20.2853L20.2513 32.4222V35.8478L20.2939 35.8138L20.2896 35.8159Z" fill="#F6F6F6"/>
<path d="M28.7189 23.9806C29.2952 23.9721 29.8735 23.9635 30.4498 23.955C30.4498 24.5058 30.4498 25.0565 30.4498 25.6051H32.0786V23.9742H30.4285V22.3454C31.0175 22.3092 31.5023 22.2795 32.068 22.2454V20.6018C31.6001 20.5762 31.0919 20.5465 30.52 20.5146V17.2761H32.0616C32.0892 17.7461 32.1211 18.2564 32.1594 18.9028H35.5403L35.5063 18.8603V20.5146C34.8748 20.5465 34.3963 20.572 33.8392 20.5996V27.3657H28.7593V23.9487L28.7168 23.9827L28.7189 23.9806Z" fill="#F6F6F6"/>
<path d="M5.02483 23.9891V22.3051H0.0214844V20.6359C0.508422 20.6104 0.988981 20.587 1.595 20.5551C1.61839 20.0511 1.64178 19.545 1.67155 18.8944C2.24566 18.8944 2.79214 18.8944 3.33649 18.8944L3.29396 18.8604V20.5062H5.02483V18.8604L4.9908 18.8944H6.72167L6.68764 18.8604V20.5912H8.41851L8.38449 20.5572V22.2136C7.75083 22.2434 7.26814 22.2668 6.74506 22.2923C6.70253 22.86 6.66213 23.3682 6.6196 23.9487H4.99293L5.02695 23.9913L5.02483 23.9891Z" fill="#F6F6F6"/>
<path d="M33.8881 8.73246V1.95361C33.2927 1.92384 32.7867 1.89832 32.2168 1.87068V0.320557H35.4191V8.69844C34.8875 8.69844 34.3687 8.69844 33.8498 8.69844L33.8881 8.73246Z" fill="#F6F6F6"/>
<path d="M16.8709 45.9692V49.2996H13.5576V46.0075C14.689 46.0075 15.7991 46.0075 16.9092 46.0075L16.8709 45.9692Z" fill="#F6F6F6"/>
<path d="M30.4221 3.64392H32.047V6.95087C31.5344 6.97639 31.0559 6.99978 30.4626 7.02956C30.4392 7.54208 30.4137 8.0461 30.3839 8.69047C29.8097 8.69047 29.2631 8.69047 28.7188 8.69047L28.7612 8.7245V5.37502C29.4056 5.34099 29.9118 5.31547 30.4562 5.28783V3.60352L30.4221 3.64605V3.64392Z" fill="#F6F6F6"/>
<path d="M15.2038 15.5055V13.8297C14.6444 13.7978 14.1362 13.768 13.5684 13.734V10.4271H15.1974L15.1633 10.3845V12.088H16.8859C16.8859 13.2257 16.8859 14.3635 16.8859 15.4991C16.3117 15.4906 15.7375 15.48 15.1633 15.4715L15.2059 15.5055H15.2038Z" fill="#F6F6F6"/>
<path d="M27.0239 1.94103H28.7146C28.7423 1.39023 28.7699 0.881955 28.7997 0.312012H30.4244C30.4244 1.41149 30.4244 2.52799 30.4244 3.64448L30.4585 3.60195H27.0665V1.907L27.0239 1.94103Z" fill="#F6F6F6"/>
<path d="M28.7189 13.808H33.7421V15.4625H28.7253L28.7593 15.505V13.7739L28.7168 13.808H28.7189Z" fill="#F6F6F6"/>
<path d="M48.9876 17.1107H47.4756V13.8867H48.9876V17.1107Z" fill="#F6F6F6"/>
<path d="M15.0908 44.2389H13.5532V41H15.0908V44.2389Z" fill="#F6F6F6"/>
<path d="M35.5423 18.9033V15.5113H37.2373L37.2032 15.4688V18.8608H35.5083L35.5423 18.9033Z" fill="#F6F6F6"/>
<path d="M1.6437 27.2961H0.00830078V24.0657H1.60967C1.60967 25.1673 1.60967 26.2497 1.60967 27.3343L1.6437 27.2961Z" fill="#F6F6F6"/>
<path d="M37.2371 15.5114V13.876H38.9002C38.9002 14.4119 38.9002 14.9627 38.9002 15.5114L38.9342 15.4688H37.2031L37.2371 15.5114Z" fill="#F6F6F6"/>
<path d="M1.63315 29.0755C1.6374 28.4822 1.63953 27.8909 1.64378 27.2976C1.64378 27.2976 1.60975 27.3359 1.60975 27.3338C2.18608 27.3465 2.7624 27.3593 3.33872 27.372L3.29619 27.338V29.0691L3.33022 29.0351H1.59912L1.63315 29.0776V29.0755Z" fill="#F6F6F6"/>
<path d="M47.3647 20.6337H49.0001V22.1713H47.4009C47.4009 21.6333 47.4009 21.1144 47.4009 20.5955L47.3669 20.6337H47.3647Z" fill="#F6F6F6"/>
<path d="M45.7019 20.6105V18.9751H47.367C47.367 19.5365 47.367 20.0852 47.367 20.6339C47.367 20.6339 47.4011 20.5956 47.4011 20.5977C46.8226 20.5914 46.2442 20.5828 45.6636 20.5743L45.7019 20.6126V20.6105Z" fill="#F6F6F6"/>
<path d="M32.0742 10.374V12.0094H30.5366V10.4102C31.0747 10.4102 31.5936 10.4102 32.1125 10.4102L32.0742 10.3762V10.374Z" fill="#F6F6F6"/>
<path d="M11.7206 34.2231V35.748H10.1958V34.2231H11.7206Z" fill="#F6F6F6"/>
<path d="M15.0909 37.4598H13.5703V35.9031H15.0909V37.4598Z" fill="#F6F6F6"/>
<path d="M15.1971 10.4252V8.72177C15.8096 8.72177 16.354 8.72177 16.9006 8.72177L16.858 8.68774C16.8665 9.26194 16.875 9.83614 16.8857 10.4103C16.3115 10.4018 15.7373 10.3912 15.1631 10.3827L15.1971 10.4252Z" fill="#F6F6F6"/>
<path d="M28.7254 15.4623V17.1658C28.1129 17.1658 27.5685 17.1658 27.022 17.1658L27.0645 17.1998V15.4687L27.0305 15.5027H28.7616L28.7276 15.4602L28.7254 15.4623Z" fill="#F6F6F6"/>
<path d="M33.8283 10.4335H35.4467V12.0073H33.8645V10.3953L33.8262 10.4335H33.8283Z" fill="#F6F6F6"/>
<path d="M43.9777 39.2393H45.6812C45.6812 39.8518 45.6812 40.3962 45.6812 40.9427L45.7152 40.9002H43.9841L44.0181 40.9342V39.2031L43.9756 39.2372L43.9777 39.2393Z" fill="#F6F6F6"/>
<path d="M16.9114 5.31118H15.2739V3.69067H16.8732C16.8732 4.25424 16.8732 4.80079 16.8732 5.34734L16.9114 5.30906V5.31118Z" fill="#F6F6F6"/>
<path d="M10.1621 15.4009V13.8804H11.7188V15.4009H10.1621Z" fill="#F6F6F6"/>
<path d="M13.5003 17.2082V15.5047C14.1128 15.5047 14.6572 15.5047 15.2038 15.5047L15.1613 15.4707C15.1698 16.0449 15.1804 16.6191 15.1889 17.1933C14.6147 17.1848 14.0405 17.1763 13.4663 17.1656L13.5003 17.2082Z" fill="#F6F6F6"/>
<path d="M33.8668 10.3974C33.2692 10.3911 32.6738 10.3826 32.0762 10.3762C32.0762 10.3762 32.1145 10.4102 32.1123 10.4102C32.1378 9.88917 32.1655 9.36814 32.1974 8.73227C32.7843 8.73227 33.3373 8.73227 33.8881 8.73227C33.8881 8.73227 33.8498 8.69824 33.8519 8.69824C33.8455 9.27669 33.837 9.85514 33.8285 10.4357L33.8668 10.3974Z" fill="#F6F6F6"/>
<path d="M25.342 32.431H27.0369V30.7361L28.7467 30.7829L28.7085 30.7446C28.7234 31.8781 28.7382 33.0137 28.751 34.1472H27.0603V37.4457H25.3398V32.431H25.342Z" fill="#F6F6F6"/>
<path d="M33.8393 42.6032V44.2365C33.2076 44.2662 32.6653 44.2918 32.123 44.3173V42.684C32.7547 42.6542 33.297 42.6287 33.8393 42.6011V42.6032Z" fill="#F6F6F6"/>
<path d="M18.561 30.7573V27.4338C19.1522 27.3977 19.6327 27.3679 20.226 27.3339C20.2579 26.8384 20.2919 26.3281 20.3344 25.7008H23.626C23.6579 25.1033 23.6835 24.6228 23.7196 23.9551H27.058C27.058 26.2218 27.058 28.4906 27.058 30.7573H25.342V27.4211H21.9845C21.959 27.925 21.9356 28.4056 21.9058 28.9754C21.3848 29.0095 20.8788 29.0413 20.277 29.0796V30.7573C19.705 30.7573 19.133 30.7573 18.561 30.7573Z" fill="#F6F6F6"/>
<path d="M33.8201 27.3446H35.5044C35.5278 26.83 35.5491 26.3259 35.5767 25.7305C36.1445 25.7028 36.6889 25.6752 37.2312 25.6497V30.7579H35.5639C35.5299 31.2895 35.4959 31.7978 35.4597 32.3635H32.2251V30.8196C32.6993 30.7919 33.2097 30.76 33.8201 30.7239V27.3467V27.3446Z" fill="#F6F6F6"/>
<path d="M28.7461 30.783V29.1455H30.3666V30.7448C29.8031 30.7448 29.2565 30.7448 28.71 30.7448L28.7482 30.783H28.7461Z" fill="#F6F6F6"/>
<path d="M37.2095 25.6714V22.2603H42.3177V23.8871C41.7265 23.9233 41.2416 23.9531 40.6759 23.9871V25.6374C41.1438 25.6608 41.6521 25.6863 42.222 25.7161V27.2664H38.9788C38.9555 26.7922 38.9299 26.286 38.898 25.6735H37.2095V25.6714Z" fill="#F6F6F6"/>
<path d="M43.9971 29.0137V30.6533H40.6816V29.052C41.813 29.052 42.9231 29.052 44.0354 29.052L43.9971 29.0137Z" fill="#F6F6F6"/>
<path d="M38.8468 37.6147V39.1353H37.29V37.6147H38.8468Z" fill="#F6F6F6"/>
<path d="M13.4746 18.8687C14.0466 18.8687 14.6185 18.8687 15.1905 18.8687V20.5676H18.4928V25.5752H16.9193V22.2857H10.1766C10.1425 21.6584 10.1128 21.112 10.083 20.5634H13.4746V18.8687Z" fill="#F6F6F6"/>
<path d="M13.4945 27.3661H11.7782V25.6712H8.38623V24.0464H15.0873V25.5967C14.6173 25.6222 14.1069 25.6499 13.4945 25.6818V27.3682V27.3661Z" fill="#F6F6F6"/>
<path d="M16.8643 12.1071C16.8643 11.535 16.8643 10.9629 16.8643 10.3909H18.5805V12.0241C17.9489 12.0539 17.4066 12.0794 16.8643 12.1071Z" fill="#F6F6F6"/>
<path d="M21.9569 22.2327V23.8702H20.3364V22.2709C20.9 22.2709 21.4465 22.2709 21.9931 22.2709L21.9548 22.2327H21.9569Z" fill="#F6F6F6"/>
<path d="M15.1694 17.1718H16.8856V18.8051C16.254 18.8348 15.7117 18.8604 15.1694 18.8859V17.1697V17.1718Z" fill="#F6F6F6"/>
<path d="M20.3706 17.2314H21.8699V18.8052H20.3706V17.2314Z" fill="#F6F6F6"/>
<path d="M16.8643 17.1935V15.4773H18.4869V17.1084C17.9574 17.1361 17.4108 17.1637 16.8643 17.1935Z" fill="#F6F6F6"/>
<path d="M40.667 8.6224V3.72046H45.6264V8.6224H40.667Z" fill="#F6F6F6"/>
<path d="M8.3404 41.0276V45.9168H3.40869V41.0276H8.3404Z" fill="#F6F6F6"/>
<path d="M3.38525 8.60548V3.70142H8.30846V8.60548H3.38525Z" fill="#F6F6F6"/>
<path d="M11.7992 27.3445C11.7992 27.9166 11.7992 28.4886 11.7992 29.0607H10.083V27.4274C10.7146 27.3977 11.2569 27.3721 11.7992 27.3445Z" fill="#F6F6F6"/>
</g>
<path d="M59.5919 40.376C58.3039 40.376 57.2799 39.776 57.2319 38.464L58.4719 38.328C58.4719 39.088 58.9439 39.448 59.6319 39.448C60.2639 39.448 60.6879 39.2 60.6879 38.696C60.6879 38.16 60.1519 38.112 59.3359 37.928C58.2559 37.68 57.3919 37.296 57.3919 36.224C57.3919 35.08 58.4959 34.584 59.5119 34.584C60.7279 34.584 61.5839 35.056 61.7199 36.336L60.5119 36.528C60.4799 35.776 60.0959 35.504 59.5039 35.504C58.9679 35.504 58.6079 35.736 58.6079 36.152C58.6079 36.576 59.0639 36.736 59.7999 36.888C60.9599 37.12 61.9039 37.44 61.9039 38.648C61.9039 39.84 60.8879 40.376 59.5919 40.376Z" fill="#F6F6F6"/>
<path d="M62.3013 40.28V34.68H66.1173V35.648H63.5093V36.968H65.8213V37.936H63.5093V39.312H66.1173V40.28H62.3013Z" fill="#F6F6F6"/>
<path d="M70.8568 41.56C70.1848 40.4 69.6968 39.256 69.6968 37.912C69.6968 36.656 70.1688 35.376 70.8648 34.344H71.8968L71.9048 34.368C71.2968 35.568 70.9288 36.64 70.9288 37.912C70.9288 39.28 71.3288 40.36 71.8968 41.536L71.8888 41.56H70.8568Z" fill="#F6F6F6"/>
<path d="M72.2383 40.28L74.0943 34.68H75.4223L77.2703 40.28H76.0223L75.6383 38.968H73.8623L73.4863 40.28H72.2383ZM74.1423 37.968H75.3503L75.0303 36.872C74.9663 36.64 74.8303 36.168 74.7503 35.816H74.7263C74.6383 36.192 74.5583 36.52 74.4543 36.872L74.1423 37.968Z" fill="#F6F6F6"/>
<path d="M77.4731 40.28V39.32H78.1051V35.64H77.4731V34.68H79.9451V35.64H79.3131V39.32H79.9451V40.28H77.4731Z" fill="#F6F6F6"/>
<path d="M80.7778 41.536C81.3698 40.344 81.7538 39.272 81.7538 37.952C81.7538 36.632 81.3698 35.552 80.7778 34.368L80.7858 34.344H81.8178C82.5058 35.44 82.9858 36.648 82.9858 37.952C82.9858 39.248 82.5058 40.464 81.8178 41.56H80.7858L80.7778 41.536Z" fill="#F6F6F6"/>
<path d="M58.1122 48.2881V47.3521H58.7922V44.4641C58.5282 44.7121 58.1282 44.8081 57.7202 44.8081C57.6402 44.8081 57.5522 44.8001 57.4722 44.7921V43.8001C58.3362 43.8001 58.8002 43.5041 58.9362 42.8001H59.9122V47.3521H60.5122V48.2881H58.1122Z" fill="#F6F6F6"/>
<path d="M62.9831 48.3761C61.7351 48.3761 60.9351 47.7521 60.9351 46.7361C60.9351 45.9841 61.2311 45.5121 61.9191 45.3041C61.4391 45.0961 61.1511 44.7361 61.1511 44.1521C61.1511 43.3841 61.7351 42.7041 62.9911 42.7041C64.2391 42.7041 64.8071 43.3841 64.8071 44.1521C64.8071 44.7281 64.5031 45.1041 64.0471 45.3041C64.7671 45.4881 65.0231 45.9921 65.0231 46.7281C65.0231 47.8081 64.1511 48.3761 62.9831 48.3761ZM62.1031 46.6401C62.1031 47.1841 62.4071 47.5041 62.9831 47.5041C63.5591 47.5041 63.8551 47.1841 63.8551 46.6401C63.8551 46.1441 63.5591 45.8081 62.9831 45.8081C62.4311 45.8081 62.1031 46.1201 62.1031 46.6401ZM62.2871 44.2481C62.2871 44.6321 62.5031 44.9361 62.9831 44.9361C63.4551 44.9361 63.6711 44.6321 63.6711 44.2481C63.6711 43.8401 63.4631 43.5761 62.9831 43.5761C62.4791 43.5761 62.2871 43.8481 62.2871 44.2481Z" fill="#F6F6F6"/>
<path d="M67.3714 48.3761C65.9634 48.3761 65.2354 47.4081 65.2354 45.5361C65.2354 43.8721 65.9154 42.7041 67.3714 42.7041C68.8274 42.7041 69.5154 43.8801 69.5154 45.5361C69.5154 47.2161 68.8274 48.3761 67.3714 48.3761ZM66.4434 45.5361C66.4434 45.8561 66.4514 46.1361 66.4834 46.3681L67.7634 43.7121C67.6514 43.6641 67.5234 43.6401 67.3714 43.6401C67.0674 43.6401 66.8594 43.7361 66.7154 43.9361C66.4994 44.2321 66.4434 44.7681 66.4434 45.5361ZM66.9074 47.3441C67.0354 47.4161 67.1874 47.4561 67.3714 47.4561C67.6674 47.4561 67.8754 47.3601 68.0194 47.1601C68.2434 46.8561 68.3074 46.3121 68.3074 45.5361C68.3074 45.1521 68.2914 44.8321 68.2514 44.5681L66.9074 47.3441Z" fill="#F6F6F6"/>
<path d="M71.8289 48.3761C70.4209 48.3761 69.6929 47.4081 69.6929 45.5361C69.6929 43.8721 70.3729 42.7041 71.8289 42.7041C73.2849 42.7041 73.9729 43.8801 73.9729 45.5361C73.9729 47.2161 73.2849 48.3761 71.8289 48.3761ZM70.9009 45.5361C70.9009 45.8561 70.9089 46.1361 70.9409 46.3681L72.2209 43.7121C72.1089 43.6641 71.9809 43.6401 71.8289 43.6401C71.5249 43.6401 71.3169 43.7361 71.1729 43.9361C70.9569 44.2321 70.9009 44.7681 70.9009 45.5361ZM71.3649 47.3441C71.4929 47.4161 71.6449 47.4561 71.8289 47.4561C72.1249 47.4561 72.3329 47.3601 72.4769 47.1601C72.7009 46.8561 72.7649 46.3121 72.7649 45.5361C72.7649 45.1521 72.7489 44.8321 72.7089 44.5681L71.3649 47.3441Z" fill="#F6F6F6"/>
<path d="M77.0474 46.0001V45.0401H81.2154V46.0001H77.0474Z" fill="#F6F6F6"/>
<path d="M86.233 48.3761C85.161 48.3761 84.553 47.8081 84.441 46.9041L85.545 46.7041C85.601 47.1121 85.785 47.4561 86.281 47.4561C86.969 47.4561 87.241 46.8161 87.265 45.6961C87.025 46.1201 86.641 46.4081 86.057 46.4081C85.041 46.4081 84.313 45.6561 84.313 44.5841C84.313 43.7121 84.849 42.7041 86.313 42.7041C87.929 42.7041 88.361 44.1441 88.361 45.3841C88.361 47.1521 87.801 48.3761 86.233 48.3761ZM85.473 44.6001C85.473 45.1441 85.689 45.4721 86.281 45.4721C86.841 45.4721 87.121 45.0641 87.121 44.5441C87.121 44.1041 86.937 43.6401 86.321 43.6401C85.697 43.6401 85.473 43.9601 85.473 44.6001Z" fill="#F6F6F6"/>
<path d="M90.7337 48.3761C89.3257 48.3761 88.5977 47.4081 88.5977 45.5361C88.5977 43.8721 89.2777 42.7041 90.7337 42.7041C92.1897 42.7041 92.8777 43.8801 92.8777 45.5361C92.8777 47.2161 92.1897 48.3761 90.7337 48.3761ZM89.8056 45.5361C89.8056 45.8561 89.8136 46.1361 89.8456 46.3681L91.1257 43.7121C91.0137 43.6641 90.8857 43.6401 90.7337 43.6401C90.4297 43.6401 90.2217 43.7361 90.0777 43.9361C89.8617 44.2321 89.8056 44.7681 89.8056 45.5361ZM90.2697 47.3441C90.3977 47.4161 90.5497 47.4561 90.7337 47.4561C91.0297 47.4561 91.2377 47.3601 91.3817 47.1601C91.6057 46.8561 91.6697 46.3121 91.6697 45.5361C91.6697 45.1521 91.6537 44.8321 91.6137 44.5681L90.2697 47.3441Z" fill="#F6F6F6"/>
<path d="M95.1912 48.3761C93.7832 48.3761 93.0552 47.4081 93.0552 45.5361C93.0552 43.8721 93.7352 42.7041 95.1912 42.7041C96.6472 42.7041 97.3352 43.8801 97.3352 45.5361C97.3352 47.2161 96.6472 48.3761 95.1912 48.3761ZM94.2632 45.5361C94.2632 45.8561 94.2712 46.1361 94.3032 46.3681L95.5832 43.7121C95.4712 43.6641 95.3432 43.6401 95.1912 43.6401C94.8872 43.6401 94.6792 43.7361 94.5352 43.9361C94.3192 44.2321 94.2632 44.7681 94.2632 45.5361ZM94.7272 47.3441C94.8552 47.4161 95.0072 47.4561 95.1912 47.4561C95.4872 47.4561 95.6952 47.3601 95.8392 47.1601C96.0632 46.8561 96.1272 46.3121 96.1272 45.5361C96.1272 45.1521 96.1112 44.8321 96.0712 44.5681L94.7272 47.3441Z" fill="#F6F6F6"/>
<path d="M97.4966 48.2801C97.5446 46.9281 98.1526 46.2401 99.1766 45.6001C99.8486 45.1761 100.241 44.9361 100.241 44.3281C100.241 43.9441 100.065 43.6481 99.6086 43.6481C98.9766 43.6481 98.8726 44.1601 98.8886 44.6721L97.6806 44.4961C97.6646 43.5441 98.2326 42.7041 99.6406 42.7041C100.721 42.7041 101.433 43.2881 101.433 44.3521C101.433 45.3121 100.937 45.7601 99.9766 46.3521C99.4086 46.7041 99.0486 46.9121 98.9286 47.3201H101.441V48.2801H97.4966Z" fill="#F6F6F6"/>
<path d="M103.831 48.3761C102.583 48.3761 101.783 47.7521 101.783 46.7361C101.783 45.9841 102.079 45.5121 102.767 45.3041C102.287 45.0961 101.999 44.7361 101.999 44.1521C101.999 43.3841 102.583 42.7041 103.839 42.7041C105.087 42.7041 105.655 43.3841 105.655 44.1521C105.655 44.7281 105.351 45.1041 104.895 45.3041C105.615 45.4881 105.871 45.9921 105.871 46.7281C105.871 47.8081 104.999 48.3761 103.831 48.3761ZM102.951 46.6401C102.951 47.1841 103.255 47.5041 103.831 47.5041C104.407 47.5041 104.703 47.1841 104.703 46.6401C104.703 46.1441 104.407 45.8081 103.831 45.8081C103.279 45.8081 102.951 46.1201 102.951 46.6401ZM103.135 44.2481C103.135 44.6321 103.351 44.9361 103.831 44.9361C104.303 44.9361 104.519 44.6321 104.519 44.2481C104.519 43.8401 104.311 43.5761 103.831 43.5761C103.327 43.5761 103.135 43.8481 103.135 44.2481Z" fill="#F6F6F6"/>
<path d="M93.1846 40.28V39.32H93.8166V35.64H93.1846V34.68H95.6566V35.64H95.0246V39.32H95.6566V40.28H93.1846Z" fill="#F6F6F6"/>
<path d="M96.2573 40.28V34.68H97.6013L98.8333 37.224C98.9933 37.552 99.3373 38.336 99.5293 38.848H99.5533C99.5133 38.312 99.4733 37.56 99.4733 37.232V34.68H100.593V40.28H99.2253L97.9373 37.608C97.7853 37.288 97.4813 36.608 97.3133 36.152H97.2893C97.3373 36.768 97.3693 37.504 97.3693 37.704V40.28H96.2573Z" fill="#F6F6F6"/>
<path d="M103.473 40.376C101.929 40.376 100.913 39.424 100.913 37.48C100.913 35.68 101.929 34.584 103.473 34.584C104.617 34.584 105.489 35.192 105.777 36.352L104.585 36.584C104.457 35.88 104.097 35.52 103.481 35.52C103.041 35.52 102.713 35.64 102.505 35.928C102.273 36.248 102.169 36.76 102.169 37.48C102.169 38.216 102.273 38.68 102.497 38.992C102.713 39.288 103.025 39.424 103.473 39.424C104.097 39.424 104.457 39.04 104.609 38.448L105.809 38.768C105.433 39.712 104.657 40.376 103.473 40.376Z" fill="#F6F6F6"/>
<path d="M60.3299 7.44C59.3099 7.44 58.5232 7.21667 57.9699 6.77C57.4232 6.32333 57.1499 5.71333 57.1499 4.94H59.0699C59.0766 5.31333 59.1866 5.57 59.3999 5.71C59.6132 5.85 59.9499 5.92 60.4099 5.92C61.0766 5.92 61.4099 5.70667 61.4099 5.28C61.4099 5.08 61.3332 4.93333 61.1799 4.84C61.0266 4.74667 60.7299 4.66333 60.2899 4.59L59.7299 4.5C58.0832 4.23333 57.2599 3.46667 57.2599 2.2C57.2599 1.52667 57.5099 0.993333 58.0099 0.6C58.5166 0.2 59.2399 0 60.1799 0C61.1266 0 61.8599 0.2 62.3799 0.6C62.8999 0.993333 63.1799 1.57667 63.2199 2.35H61.3399C61.3266 2.06333 61.2299 1.85333 61.0499 1.72C60.8699 1.58667 60.5899 1.52 60.2099 1.52C59.6032 1.52 59.2999 1.71667 59.2999 2.11C59.2999 2.31 59.3766 2.46 59.5299 2.56C59.6832 2.66 59.9532 2.74333 60.3399 2.81L60.9299 2.91C61.8166 3.05667 62.4599 3.30667 62.8599 3.66C63.2666 4.00667 63.4699 4.49667 63.4699 5.13C63.4699 5.88333 63.1932 6.45667 62.6399 6.85C62.0866 7.24333 61.3166 7.44 60.3299 7.44Z" fill="#F6F6F6"/>
<path d="M70.1199 6.42C69.4333 7.1 68.5299 7.44 67.4099 7.44C66.2899 7.44 65.3866 7.1 64.6999 6.42C64.0133 5.75333 63.6699 4.85333 63.6699 3.72C63.6699 2.59333 64.0133 1.69 64.6999 1.01C65.3933 0.336667 66.2966 0 67.4099 0C68.5233 0 69.4266 0.336667 70.1199 1.01C70.8066 1.69 71.1499 2.59333 71.1499 3.72C71.1499 4.85333 70.8066 5.75333 70.1199 6.42ZM66.1999 5.18C66.4999 5.53333 66.9033 5.71 67.4099 5.71C67.9166 5.71 68.3199 5.53333 68.6199 5.18C68.9199 4.83333 69.0699 4.34667 69.0699 3.72C69.0699 3.10667 68.9199 2.62333 68.6199 2.27C68.3199 1.91 67.9166 1.73 67.4099 1.73C66.9033 1.73 66.4999 1.91 66.1999 2.27C65.8999 2.62333 65.7499 3.10667 65.7499 3.72C65.7499 4.34667 65.8999 4.83333 66.1999 5.18Z" fill="#F6F6F6"/>
<path d="M74.7508 7.44C73.8041 7.44 73.0375 7.19 72.4508 6.69C71.8508 6.19 71.5508 5.47667 71.5508 4.55V0.160004H73.5508V4.57C73.5508 4.94333 73.6541 5.23 73.8608 5.43C74.0741 5.63 74.3708 5.73 74.7508 5.73C75.1308 5.73 75.4241 5.63 75.6308 5.43C75.8441 5.23 75.9508 4.94333 75.9508 4.57V0.160004H77.9508V4.55C77.9508 5.49 77.6608 6.20667 77.0808 6.7C76.4941 7.19333 75.7175 7.44 74.7508 7.44Z" fill="#F6F6F6"/>
<path d="M83.1979 1.32V0.160004H85.0979V7.28H82.9879L81.4779 4.75C81.0713 4.06333 80.7446 3.47667 80.4979 2.99C80.5313 3.97 80.5479 5.01333 80.5479 6.12V7.28H78.6479V0.160004H80.7579L82.268 2.69C82.6279 3.30333 82.9546 3.89333 83.2479 4.46C83.2146 3.48 83.1979 2.43333 83.1979 1.32Z" fill="#F6F6F6"/>
<path d="M85.8989 0.160004H89.0089C90.2423 0.160004 91.1656 0.480004 91.7789 1.12C92.3923 1.76667 92.6989 2.63333 92.6989 3.72C92.6989 4.80667 92.3923 5.67333 91.7789 6.32C91.1656 6.96 90.2423 7.28 89.0089 7.28H85.8989V0.160004ZM87.8989 5.6H88.9689C90.0689 5.6 90.6189 4.97333 90.6189 3.72C90.6189 2.46667 90.0689 1.84 88.9689 1.84H87.8989V5.6Z" fill="#F6F6F6"/>
<path d="M63.12 9.16V10.94H59.5V11.88H62.8V13.54H59.5V14.5H63.12V16.28H57.5V9.16H63.12Z" fill="#F6F6F6"/>
<path d="M63.2671 9.16H69.4671V10.94H67.3671V16.28H65.3671V10.94H63.2671V9.16Z" fill="#F6F6F6"/>
<path d="M74.3138 11.76V9.16H76.3138V16.28H74.3138V13.54H71.8638V16.28H69.8638V9.16H71.8638V11.76H74.3138Z" fill="#F6F6F6"/>
<path d="M79.1147 16.28H77.1147V9.16H79.1147V16.28Z" fill="#F6F6F6"/>
<path d="M83.2628 16.44C82.1561 16.44 81.2728 16.1033 80.6128 15.43C79.9461 14.7633 79.6128 13.86 79.6128 12.72C79.6128 11.58 79.9395 10.6733 80.5928 10C81.2395 9.33333 82.1295 9 83.2628 9C84.1761 9 84.9561 9.24667 85.6028 9.74C86.2361 10.24 86.6195 10.93 86.7528 11.81H84.7328C84.6395 11.4567 84.4628 11.1867 84.2028 11C83.9428 10.8067 83.6295 10.71 83.2628 10.71C82.7495 10.71 82.3595 10.8833 82.0928 11.23C81.8261 11.5767 81.6928 12.0733 81.6928 12.72C81.6928 13.3667 81.8261 13.8633 82.0928 14.21C82.3595 14.5567 82.7495 14.73 83.2628 14.73C83.6628 14.73 83.9928 14.6233 84.2528 14.41C84.5195 14.19 84.6895 13.8833 84.7628 13.49H86.7628C86.6495 14.4233 86.2761 15.1467 85.6428 15.66C85.0028 16.18 84.2095 16.44 83.2628 16.44Z" fill="#F6F6F6"/>
<path d="M90.0916 16.44C89.0716 16.44 88.285 16.2167 87.7316 15.77C87.185 15.3233 86.9116 14.7133 86.9116 13.94H88.8316C88.8383 14.3133 88.9483 14.57 89.1616 14.71C89.375 14.85 89.7116 14.92 90.1716 14.92C90.8383 14.92 91.1716 14.7067 91.1716 14.28C91.1716 14.08 91.095 13.9333 90.9416 13.84C90.7883 13.7467 90.4916 13.6633 90.0516 13.59L89.4916 13.5C87.845 13.2333 87.0216 12.4667 87.0216 11.2C87.0216 10.5267 87.2716 9.99333 87.7716 9.6C88.2783 9.2 89.0016 9 89.9416 9C90.8883 9 91.6216 9.2 92.1416 9.6C92.6616 9.99333 92.9416 10.5767 92.9816 11.35H91.1016C91.0883 11.0633 90.9916 10.8533 90.8116 10.72C90.6316 10.5867 90.3516 10.52 89.9716 10.52C89.365 10.52 89.0616 10.7167 89.0616 11.11C89.0616 11.31 89.1383 11.46 89.2916 11.56C89.445 11.66 89.715 11.7433 90.1016 11.81L90.6916 11.91C91.5783 12.0567 92.2216 12.3067 92.6216 12.66C93.0283 13.0067 93.2316 13.4967 93.2316 14.13C93.2316 14.8833 92.955 15.4567 92.4016 15.85C91.8483 16.2433 91.0783 16.44 90.0916 16.44Z" fill="#F6F6F6"/>
<path d="M59.5 25.28H57.5V18.16H59.5V25.28Z" fill="#F6F6F6"/>
<path d="M64.8479 19.32V18.16H66.7479V25.28H64.6379L63.1278 22.75C62.7212 22.0633 62.3946 21.4767 62.1479 20.99C62.1813 21.97 62.1978 23.0133 62.1978 24.12V25.28H60.2979V18.16H62.4079L63.9179 20.69C64.2779 21.3033 64.6046 21.8933 64.8979 22.46C64.8646 21.48 64.8479 20.4333 64.8479 19.32Z" fill="#F6F6F6"/>
<path d="M70.899 25.44C69.7924 25.44 68.909 25.1033 68.249 24.43C67.5824 23.7633 67.249 22.86 67.249 21.72C67.249 20.58 67.5757 19.6733 68.229 19C68.8757 18.3333 69.7657 18 70.899 18C71.8124 18 72.5924 18.2467 73.239 18.74C73.8724 19.24 74.2557 19.93 74.389 20.81H72.369C72.2757 20.4567 72.099 20.1867 71.839 20C71.579 19.8067 71.2657 19.71 70.899 19.71C70.3857 19.71 69.9957 19.8833 69.729 20.23C69.4624 20.5767 69.329 21.0733 69.329 21.72C69.329 22.3667 69.4624 22.8633 69.729 23.21C69.9957 23.5567 70.3857 23.73 70.899 23.73C71.299 23.73 71.629 23.6233 71.889 23.41C72.1557 23.19 72.3257 22.8833 72.399 22.49H74.399C74.2857 23.4233 73.9124 24.1467 73.279 24.66C72.639 25.18 71.8457 25.44 70.899 25.44Z" fill="#F6F6F6"/>
<path d="M76.3374 25.28H74.2974V23.3H76.3374V25.28Z" fill="#F6F6F6"/>
<path d="M143.14 41.63C143.82 42.3167 144.16 43.22 144.16 44.34C144.16 45.46 143.82 46.3634 143.14 47.05C142.474 47.7367 141.574 48.08 140.44 48.08C139.314 48.08 138.41 47.7367 137.73 47.05C137.057 46.3567 136.72 45.4534 136.72 44.34C136.72 43.2267 137.057 42.3234 137.73 41.63C138.41 40.9434 139.314 40.6 140.44 40.6C141.574 40.6 142.474 40.9434 143.14 41.63ZM141.9 45.55C142.254 45.25 142.43 44.8467 142.43 44.34C142.43 43.8334 142.254 43.43 141.9 43.13C141.554 42.83 141.067 42.68 140.44 42.68C139.827 42.68 139.344 42.83 138.99 43.13C138.63 43.43 138.45 43.8334 138.45 44.34C138.45 44.8467 138.63 45.25 138.99 45.55C139.344 45.85 139.827 46 140.44 46C141.067 46 141.554 45.85 141.9 45.55Z" fill="#F6F6F6"/>
<path d="M142.33 34.0792L143.28 34.0392C143.574 34.0258 143.814 33.9658 144 33.8592V35.9192C143.847 35.9992 143.607 36.0458 143.28 36.0592L142.47 36.0892C142.11 36.1025 141.867 36.1858 141.74 36.3392C141.607 36.4858 141.54 36.7258 141.54 37.0592V38.0992H144V40.0992H136.88V36.5992C136.88 35.6925 137.077 35.0225 137.47 34.5892C137.87 34.1625 138.377 33.9492 138.99 33.9492C139.357 33.9492 139.687 34.0458 139.98 34.2392C140.274 34.4258 140.5 34.6992 140.66 35.0592C140.794 34.6992 140.987 34.4525 141.24 34.3192C141.494 34.1792 141.857 34.0992 142.33 34.0792ZM138.44 38.0992H140.08V36.8992C140.08 36.3058 139.807 36.0092 139.26 36.0092C138.714 36.0092 138.44 36.3058 138.44 36.8992V38.0992Z" fill="#F6F6F6"/>
<path d="M144 31.4046V33.4046H136.88V31.4046H144Z" fill="#F6F6F6"/>
<path d="M141.44 26.9866H139.92V23.6166H144V24.9766L143.07 25.1766C143.424 25.3966 143.694 25.7099 143.88 26.1166C144.067 26.5233 144.16 26.9766 144.16 27.4766C144.16 28.5166 143.824 29.3466 143.15 29.9666C142.484 30.5933 141.58 30.9066 140.44 30.9066C139.3 30.9066 138.394 30.5799 137.72 29.9266C137.054 29.2799 136.72 28.3766 136.72 27.2166C136.72 26.2499 136.95 25.4533 137.41 24.8266C137.877 24.1866 138.51 23.8133 139.31 23.7066V25.7466C138.724 25.9533 138.43 26.4366 138.43 27.1966C138.43 27.7099 138.607 28.1099 138.96 28.3966C139.314 28.6833 139.807 28.8266 140.44 28.8266C141.074 28.8266 141.567 28.6766 141.92 28.3766C142.274 28.0699 142.45 27.6399 142.45 27.0866C142.45 26.7333 142.36 26.4299 142.18 26.1766C141.994 25.9166 141.747 25.7499 141.44 25.6766V26.9866Z" fill="#F6F6F6"/>
<path d="M144 20.916V22.916H136.88V20.916H144Z" fill="#F6F6F6"/>
<path d="M138.04 15.5679H136.88V13.6679H144V15.7779L141.47 17.2879C140.784 17.6946 140.197 18.0213 139.71 18.2679C140.69 18.2346 141.734 18.2179 142.84 18.2179H144V20.1179H136.88V18.0079L139.41 16.4979C140.024 16.1379 140.614 15.8113 141.18 15.5179C140.2 15.5513 139.154 15.5679 138.04 15.5679Z" fill="#F6F6F6"/>
<path d="M144 5.91559V8.03558L143.07 8.33559V11.1256L144 11.4256V13.4656L136.88 10.9356V8.53559L144 5.91559ZM139.78 10.0856L141.42 10.6056V8.87559L139.78 9.40559C139.207 9.59225 138.83 9.70559 138.65 9.74559C139.204 9.91225 139.58 10.0256 139.78 10.0856Z" fill="#F6F6F6"/>
<path d="M136.88 3.71323H142.22V0.563232H144V5.71323H136.88V3.71323Z" fill="#F6F6F6"/>
<path fill-rule="evenodd" clip-rule="evenodd" d="M149 49.28V0.280029H150V49.28H149Z" fill="#F6F6F6"/>
<path fill-rule="evenodd" clip-rule="evenodd" d="M131 49.28V0.280029H132V49.28H131Z" fill="#F6F6F6"/>
<path d="M313.39 45.6357C313.82 45.0257 314.57 44.7207 315.64 44.7207C316.595 44.7207 317.325 44.9132 317.83 45.2982C318.33 45.6782 318.58 46.2407 318.58 46.9857C318.58 47.5757 318.445 48.0582 318.175 48.4332C317.905 48.8032 317.525 49.0282 317.035 49.1082V47.7582C317.365 47.6832 317.53 47.4307 317.53 47.0007C317.53 46.6957 317.425 46.4732 317.215 46.3332C317 46.1882 316.643 46.1032 316.143 46.0782C316.488 46.3632 316.66 46.7932 316.66 47.3682C316.66 47.9482 316.488 48.3932 316.143 48.7032C315.798 49.0182 315.39 49.1757 314.92 49.1757C314.325 49.1757 313.855 48.9707 313.51 48.5607C313.17 48.1457 313 47.6282 313 47.0082C313 46.4582 313.13 46.0007 313.39 45.6357ZM315.415 47.5782C315.56 47.4332 315.633 47.2432 315.633 47.0082C315.633 46.7732 315.56 46.5832 315.415 46.4382C315.275 46.2982 315.098 46.2282 314.883 46.2282C314.663 46.2282 314.483 46.2982 314.343 46.4382C314.203 46.5782 314.133 46.7682 314.133 47.0082C314.133 47.2482 314.203 47.4382 314.343 47.5782C314.483 47.7182 314.663 47.7882 314.883 47.7882C315.098 47.7882 315.275 47.7182 315.415 47.5782Z" fill="#F6F6F6"/>
<path d="M317.853 40.2251C318.338 40.6351 318.58 41.2326 318.58 42.0176C318.58 42.8026 318.338 43.3976 317.853 43.8026C317.378 44.2126 316.69 44.4176 315.79 44.4176C314.895 44.4176 314.205 44.2126 313.72 43.8026C313.24 43.3976 313 42.8026 313 42.0176C313 41.2376 313.24 40.6401 313.72 40.2251C314.21 39.8201 314.9 39.6176 315.79 39.6176C316.685 39.6176 317.373 39.8201 317.853 40.2251ZM317.358 42.0176C317.358 41.7276 317.238 41.5151 316.998 41.3801C316.758 41.2451 316.355 41.1776 315.79 41.1776C315.23 41.1776 314.83 41.2451 314.59 41.3801C314.345 41.5151 314.223 41.7276 314.223 42.0176C314.223 42.2926 314.34 42.5026 314.575 42.6476C314.81 42.7876 315.215 42.8576 315.79 42.8576C316.365 42.8576 316.768 42.7876 316.998 42.6476C317.238 42.5076 317.358 42.2976 317.358 42.0176Z" fill="#F6F6F6"/>
<path d="M317.853 35.1236C318.338 35.5336 318.58 36.1311 318.58 36.9161C318.58 37.7011 318.338 38.2961 317.853 38.7011C317.378 39.1111 316.69 39.3161 315.79 39.3161C314.895 39.3161 314.205 39.1111 313.72 38.7011C313.24 38.2961 313 37.7011 313 36.9161C313 36.1361 313.24 35.5386 313.72 35.1236C314.21 34.7186 314.9 34.5161 315.79 34.5161C316.685 34.5161 317.373 34.7186 317.853 35.1236ZM317.358 36.9161C317.358 36.6261 317.238 36.4136 316.998 36.2786C316.758 36.1436 316.355 36.0761 315.79 36.0761C315.23 36.0761 314.83 36.1436 314.59 36.2786C314.345 36.4136 314.223 36.6261 314.223 36.9161C314.223 37.1911 314.34 37.4011 314.575 37.5461C314.81 37.6861 315.215 37.7561 315.79 37.7561C316.365 37.7561 316.768 37.6861 316.998 37.5461C317.238 37.4061 317.358 37.1961 317.358 36.9161Z" fill="#F6F6F6"/>
<path d="M317.238 32.6886V30.0336H318.46V34.3761L317.92 34.3461C317.53 34.3211 317.203 34.2586 316.938 34.1586C316.753 34.0936 316.585 34.0011 316.435 33.8811C316.095 33.6011 315.825 33.1811 315.625 32.6211L315.513 32.2986C315.418 32.0236 315.315 31.8311 315.205 31.7211C315.095 31.6061 314.953 31.5486 314.778 31.5486C314.408 31.5486 314.223 31.7611 314.223 32.1861C314.223 32.4211 314.285 32.5936 314.41 32.7036C314.53 32.8136 314.718 32.8686 314.973 32.8686V34.2936C314.353 34.2986 313.87 34.1211 313.525 33.7611C313.175 33.4011 313 32.8636 313 32.1486C313 31.4936 313.15 30.9811 313.45 30.6111C313.755 30.2461 314.145 30.0636 314.62 30.0636C315.11 30.0636 315.495 30.1961 315.775 30.4611C316.06 30.7411 316.318 31.1611 316.548 31.7211L316.713 32.1186C316.793 32.3186 316.87 32.4586 316.945 32.5386C317.02 32.6186 317.118 32.6686 317.238 32.6886Z" fill="#F6F6F6"/>
<path d="M315.663 26.135C315.878 25.565 316.305 25.28 316.945 25.28C317.425 25.28 317.818 25.4825 318.123 25.8875C318.428 26.2875 318.58 26.8475 318.58 27.5675C318.58 28.2875 318.428 28.8475 318.123 29.2475C317.818 29.6525 317.425 29.855 316.945 29.855C316.305 29.855 315.878 29.57 315.663 29C315.398 29.42 315.01 29.63 314.5 29.63C314.045 29.63 313.683 29.445 313.413 29.075C313.138 28.705 313 28.2025 313 27.5675C313 26.9325 313.137 26.43 313.412 26.06C313.683 25.69 314.045 25.505 314.5 25.505C315.01 25.505 315.398 25.715 315.663 26.135ZM314.178 27.0125C314.073 27.1375 314.02 27.3225 314.02 27.5675C314.02 27.8125 314.073 27.9975 314.178 28.1225C314.293 28.2525 314.443 28.3175 314.628 28.3175C314.813 28.3175 314.958 28.2525 315.063 28.1225C315.168 27.9925 315.22 27.8075 315.22 27.5675C315.22 27.3275 315.168 27.1425 315.063 27.0125C314.958 26.8825 314.813 26.8175 314.628 26.8175C314.443 26.8175 314.293 26.8825 314.178 27.0125ZM317.283 28.19C317.403 28.055 317.463 27.8475 317.463 27.5675C317.463 27.2925 317.403 27.0825 317.283 26.9375C317.168 26.8025 317.008 26.735 316.803 26.735C316.593 26.735 316.43 26.8075 316.315 26.9525C316.2 27.0925 316.143 27.2975 316.143 27.5675C316.143 27.8375 316.2 28.045 316.315 28.19C316.43 28.33 316.593 28.4 316.803 28.4C317.013 28.4 317.173 28.33 317.283 28.19Z" fill="#F6F6F6"/>
<path d="M313.39 20.6357C313.82 20.0257 314.57 19.7207 315.64 19.7207C316.595 19.7207 317.325 19.9132 317.83 20.2982C318.33 20.6782 318.58 21.2407 318.58 21.9857C318.58 22.5757 318.445 23.0582 318.175 23.4332C317.905 23.8032 317.525 24.0282 317.035 24.1082V22.7582C317.365 22.6832 317.53 22.4307 317.53 22.0007C317.53 21.6957 317.425 21.4732 317.215 21.3332C317 21.1882 316.643 21.1032 316.143 21.0782C316.488 21.3632 316.66 21.7932 316.66 22.3682C316.66 22.9482 316.488 23.3932 316.143 23.7032C315.798 24.0182 315.39 24.1757 314.92 24.1757C314.325 24.1757 313.855 23.9707 313.51 23.5607C313.17 23.1457 313 22.6282 313 22.0082C313 21.4582 313.13 21.0007 313.39 20.6357ZM315.415 22.5782C315.56 22.4332 315.633 22.2432 315.633 22.0082C315.633 21.7732 315.56 21.5832 315.415 21.4382C315.275 21.2982 315.098 21.2282 314.883 21.2282C314.663 21.2282 314.483 21.2982 314.343 21.4382C314.203 21.5782 314.133 21.7682 314.133 22.0082C314.133 22.2482 314.203 22.4382 314.343 22.5782C314.483 22.7182 314.663 22.7882 314.883 22.7882C315.098 22.7882 315.275 22.7182 315.415 22.5782Z" fill="#F6F6F6"/>
<path d="M317.853 15.2251C318.338 15.6351 318.58 16.2326 318.58 17.0176C318.58 17.8026 318.338 18.3976 317.853 18.8026C317.378 19.2126 316.69 19.4176 315.79 19.4176C314.895 19.4176 314.205 19.2126 313.72 18.8026C313.24 18.3976 313 17.8026 313 17.0176C313 16.2376 313.24 15.6401 313.72 15.2251C314.21 14.8201 314.9 14.6176 315.79 14.6176C316.685 14.6176 317.373 14.8201 317.853 15.2251ZM317.358 17.0176C317.358 16.7276 317.238 16.5151 316.998 16.3801C316.758 16.2451 316.355 16.1776 315.79 16.1776C315.23 16.1776 314.83 16.2451 314.59 16.3801C314.345 16.5151 314.223 16.7276 314.223 17.0176C314.223 17.2926 314.34 17.5026 314.575 17.6476C314.81 17.7876 315.215 17.8576 315.79 17.8576C316.365 17.8576 316.768 17.7876 316.998 17.6476C317.238 17.5076 317.358 17.2976 317.358 17.0176Z" fill="#F6F6F6"/>
<path d="M317.853 10.1236C318.338 10.5336 318.58 11.1311 318.58 11.9161C318.58 12.7011 318.338 13.2961 317.853 13.7011C317.378 14.1111 316.69 14.3161 315.79 14.3161C314.895 14.3161 314.205 14.1111 313.72 13.7011C313.24 13.2961 313 12.7011 313 11.9161C313 11.1361 313.24 10.5386 313.72 10.1236C314.21 9.71861 314.9 9.51611 315.79 9.51611C316.685 9.51611 317.373 9.71861 317.853 10.1236ZM317.358 11.9161C317.358 11.6261 317.238 11.4136 316.998 11.2786C316.758 11.1436 316.355 11.0761 315.79 11.0761C315.23 11.0761 314.83 11.1436 314.59 11.2786C314.345 11.4136 314.223 11.6261 314.223 11.9161C314.223 12.1911 314.34 12.4011 314.575 12.5461C314.81 12.6861 315.215 12.7561 315.79 12.7561C316.365 12.7561 316.768 12.6861 316.998 12.5461C317.238 12.4061 317.358 12.1961 317.358 11.9161Z" fill="#F6F6F6"/>
<path d="M317.238 7.68863V5.03363H318.46V9.37613L317.92 9.34613C317.53 9.32113 317.203 9.25863 316.938 9.15863C316.753 9.09363 316.585 9.00113 316.435 8.88113C316.095 8.60113 315.825 8.18113 315.625 7.62113L315.513 7.29863C315.418 7.02363 315.315 6.83113 315.205 6.72113C315.095 6.60613 314.953 6.54863 314.778 6.54863C314.408 6.54863 314.223 6.76113 314.223 7.18613C314.223 7.42113 314.285 7.59363 314.41 7.70363C314.53 7.81363 314.718 7.86863 314.973 7.86863V9.29363C314.353 9.29863 313.87 9.12113 313.525 8.76113C313.175 8.40113 313 7.86363 313 7.14863C313 6.49363 313.15 5.98113 313.45 5.61113C313.755 5.24613 314.145 5.06363 314.62 5.06363C315.11 5.06363 315.495 5.19613 315.775 5.46113C316.06 5.74113 316.318 6.16113 316.548 6.72113L316.713 7.11863C316.793 7.31863 316.87 7.45863 316.945 7.53863C317.02 7.61863 317.118 7.66863 317.238 7.68863Z" fill="#F6F6F6"/>
<path d="M315.663 1.13503C315.878 0.565029 316.305 0.280029 316.945 0.280029C317.425 0.280029 317.818 0.482529 318.123 0.887529C318.428 1.28753 318.58 1.84753 318.58 2.56753C318.58 3.28753 318.428 3.84753 318.123 4.24753C317.818 4.65253 317.425 4.85503 316.945 4.85503C316.305 4.85503 315.878 4.57003 315.663 4.00003C315.398 4.42003 315.01 4.63003 314.5 4.63003C314.045 4.63003 313.683 4.44503 313.413 4.07503C313.138 3.70503 313 3.20253 313 2.56753C313 1.93253 313.137 1.43003 313.412 1.06003C313.683 0.690029 314.045 0.505029 314.5 0.505029C315.01 0.505029 315.398 0.715029 315.663 1.13503ZM314.178 2.01253C314.073 2.13753 314.02 2.32253 314.02 2.56753C314.02 2.81253 314.073 2.99753 314.178 3.12253C314.293 3.25253 314.443 3.31753 314.628 3.31753C314.813 3.31753 314.958 3.25253 315.063 3.12253C315.168 2.99253 315.22 2.80753 315.22 2.56753C315.22 2.32753 315.168 2.14253 315.063 2.01253C314.958 1.88253 314.813 1.81753 314.628 1.81753C314.443 1.81753 314.293 1.88253 314.178 2.01253ZM317.283 3.19003C317.403 3.05503 317.463 2.84753 317.463 2.56753C317.463 2.29253 317.403 2.08253 317.283 1.93753C317.168 1.80253 317.008 1.73503 316.803 1.73503C316.593 1.73503 316.43 1.80753 316.315 1.95253C316.2 2.09253 316.143 2.29753 316.143 2.56753C316.143 2.83753 316.2 3.04503 316.315 3.19003C316.43 3.33003 316.593 3.40003 316.803 3.40003C317.013 3.40003 317.173 3.33003 317.283 3.19003Z" fill="#F6F6F6"/>
<mask id="mask1_642_3851" style="mask-type:alpha" maskUnits="userSpaceOnUse" x="263" y="0" width="48" height="50">
<mask id="mask2_642_3851" style="mask-type:luminance" maskUnits="userSpaceOnUse" x="263" y="0" width="48" height="50">
<path d="M310.46 49.363H263.46V0.280006H310.46V49.363Z" fill="white"/>
</mask>
<g mask="url(#mask2_642_3851)">
<path d="M266.521 49.3237V0.304047H265.009V49.3237H266.521Z" fill="#BFEA88"/>
<path d="M300.075 49.3479H300.816V0.317688H300.075V49.3479Z" fill="#BFEA88"/>
<path d="M286.587 49.3511H287.326V0.298218H286.587V49.3511Z" fill="#BFEA88"/>
<path d="M302.772 49.3494H303.513V0.296509H302.772V49.3494Z" fill="#BFEA88"/>
<path d="M295.835 49.3479H296.576V0.317688H295.835V49.3479Z" fill="#BFEA88"/>
<path d="M310.444 0.293579H309.705V49.3464H310.444V0.293579Z" fill="#BFEA88"/>
<path d="M275.025 49.3496H275.767V0.319397H275.025V49.3496Z" fill="#BFEA88"/>
<path d="M268.088 49.363H268.823V0.316223H268.088V49.363Z" fill="#BFEA88"/>
<path d="M279.23 0.295044H278.49V49.3479H279.23V0.295044Z" fill="#BFEA88"/>
<path d="M281.96 49.363H282.695V0.317719H281.96V49.363Z" fill="#BFEA88"/>
<path d="M288.897 49.363H289.631V0.316223H288.897V49.363Z" fill="#BFEA88"/>
<path d="M291.949 0.298126H291.212V49.3208H291.949V0.298126Z" fill="#BFEA88"/>
<path d="M271.137 0.293564H270.401V49.3389H271.137V0.292053V0.293564Z" fill="#BFEA88"/>
<path d="M279.651 49.3479H280.391V0.296539H279.651V49.3479Z" fill="#BFEA88"/>
<path d="M307.013 49.3586H307.747V0.313324H307.013V49.3586Z" fill="#BFEA88"/>
<path d="M305.823 0.298126H305.086V49.3208H305.823V0.298126Z" fill="#BFEA88"/>
<path d="M301.615 49.3479H301.971V0.292023H301.615V49.3479Z" fill="#BFEA88"/>
<path d="M263.816 0.295197H263.46V49.3511H263.816V0.295197Z" fill="#BFEA88"/>
<path d="M304.313 49.3511H304.669V0.295197H304.313V49.3511Z" fill="#BFEA88"/>
<path d="M297.375 49.3479H297.732V0.292023H297.375V49.3479Z" fill="#BFEA88"/>
<path d="M294.68 49.353H295.034V0.29715H294.68V49.353Z" fill="#BFEA88"/>
<path d="M308.905 0.296707H308.548V49.3511H308.905V0.295197V0.296707Z" fill="#BFEA88"/>
<path d="M269.982 0.296707H269.625V49.3511H269.982V0.295197V0.296707Z" fill="#BFEA88"/>
<path d="M290.793 0.280037H290.443V49.3284H290.793V0.278534V0.280037Z" fill="#BFEA88"/>
<path d="M271.941 49.3496H272.298V0.293732H271.941V49.3496Z" fill="#BFEA88"/>
<path d="M276.918 0.295239H276.562V49.3496H276.918V0.293732V0.295239Z" fill="#BFEA88"/>
<path d="M283.503 49.3511H283.859V0.295197H283.503V49.3511Z" fill="#BFEA88"/>
<path d="M273.869 49.3511H274.224V0.295197H273.869V49.3511Z" fill="#BFEA88"/>
<path d="M285.045 49.3528H285.4V0.296906H285.045V49.3528Z" fill="#BFEA88"/>
<path d="M298.92 49.3542H299.273V0.29837H298.92V49.3542Z" fill="#BFEA88"/>
<path d="M277.69 0.299713H277.338V49.3511H277.69V0.299713Z" fill="#BFEA88"/>
<path d="M272.714 49.3479H273.064V0.308624H272.714V49.3479Z" fill="#BFEA88"/>
<path d="M264.236 49.3479H264.585V0.308624H264.236V49.3479Z" fill="#BFEA88"/>
<path d="M284.626 0.280334H284.278V49.3528H284.626V0.280334Z" fill="#BFEA88"/>
<path d="M298.499 0.296555H298.15V49.3479H298.499V0.295044V0.296555Z" fill="#BFEA88"/>
<path d="M292.719 0.280334H292.371V49.3528H292.719V0.280334Z" fill="#BFEA88"/>
<path d="M293.14 49.3511H293.494V0.295197H293.14V49.3511Z" fill="#BFEA88"/>
<path d="M306.592 0.298218H306.242V49.3511H306.592V0.299725V0.298218Z" fill="#BFEA88"/>
<path d="M287.745 49.353H288.097V0.29715H287.745V49.353Z" fill="#BFEA88"/>
<path d="M266.934 49.3542H267.287V0.29837H266.934V49.3542Z" fill="#BFEA88"/>
<path d="M281.158 0.299713H280.808V49.3511H281.158V0.299713Z" fill="#BFEA88"/>
</g>
</mask>
<g mask="url(#mask1_642_3851)">
<path d="M257.161 -18.926H310.46V68.5698H257.161V-18.926Z" fill="#F6F6F6"/>
</g>
<mask id="mask3_642_3851" style="mask-type:luminance" maskUnits="userSpaceOnUse" x="190" y="7" width="34" height="35">
<path d="M224 7.28003H190V41.28H224V7.28003Z" fill="white"/>
</mask>
<g mask="url(#mask3_642_3851)">
<path d="M207.001 41.28C197.626 41.28 190 33.6539 190 24.2811C190 14.9083 197.626 7.28003 207.001 7.28003C216.376 7.28003 224.002 14.9062 224.002 24.2811C224.002 33.656 216.376 41.2821 207.001 41.2821V41.28ZM207.001 7.91746C197.978 7.91746 190.637 15.2584 190.637 24.2811C190.637 33.3037 197.978 40.6426 206.999 40.6426C216.019 40.6426 223.36 33.3016 223.36 24.2811C223.36 15.2605 216.024 7.91746 207.001 7.91746Z" fill="#F6F6F6"/>
<path d="M207.001 41.28C199.457 41.28 193.317 33.6539 193.317 24.279C193.317 14.9041 199.455 7.28003 207.001 7.28003C214.548 7.28003 220.685 14.9062 220.685 24.2811C220.685 33.656 214.548 41.2821 207.001 41.2821V41.28ZM207.001 7.91746C199.809 7.91746 193.957 15.2584 193.957 24.279C193.957 33.2995 199.809 40.6405 207.001 40.6405C214.193 40.6405 220.046 33.2995 220.046 24.279C220.046 15.2584 214.193 7.91746 207.001 7.91746Z" fill="#F6F6F6"/>
<path d="M207.001 41.28C201.379 41.28 196.804 33.6539 196.804 24.279C196.804 14.9041 201.377 7.28003 207.001 7.28003C212.625 7.28003 217.198 14.9062 217.198 24.2811C217.198 33.656 212.625 41.2821 207.001 41.2821V41.28ZM207.001 7.91746C201.732 7.91746 197.444 15.2584 197.444 24.279C197.444 33.2995 201.732 40.6405 207.001 40.6405C212.27 40.6405 216.558 33.2995 216.558 24.279C216.558 15.2584 212.27 7.91746 207.001 7.91746Z" fill="#F6F6F6"/>
<path d="M207.001 41.28C203.183 41.28 200.193 33.8132 200.193 24.279C200.193 14.7447 203.183 7.28003 207.001 7.28003C210.82 7.28003 213.81 14.7468 213.81 24.2811C213.81 33.8153 210.82 41.2821 207.001 41.2821V41.28ZM207.001 7.91746C203.657 7.91746 200.83 15.4115 200.83 24.279C200.83 33.1464 203.657 40.6405 207.001 40.6405C210.346 40.6405 213.172 33.1485 213.172 24.279C213.172 15.4094 210.346 7.91746 207.001 7.91746Z" fill="#F6F6F6"/>
<path d="M207.001 41.28C204.648 41.28 203.38 32.5216 203.38 24.279C203.38 16.0364 204.648 7.28003 207.001 7.28003C209.354 7.28003 210.622 16.0385 210.622 24.2811C210.622 32.5237 209.354 41.2821 207.001 41.2821V41.28ZM207.001 7.91746C205.783 7.91746 204.019 13.7445 204.019 24.279C204.019 34.8134 205.783 40.6405 207.001 40.6405C208.219 40.6405 209.983 34.8134 209.983 24.279C209.983 13.7445 208.219 7.91746 207.001 7.91746Z" fill="#F6F6F6"/>
<path d="M207.32 7.59863H206.682V40.9612H207.32V7.59863Z" fill="#F6F6F6"/>
<path d="M223.681 23.9624H190.319V24.5998H223.681V23.9624Z" fill="#F6F6F6"/>
</g>
<path d="M174.5 16.16H177.84C178.693 16.16 179.36 16.3833 179.84 16.83C180.327 17.27 180.57 17.8733 180.57 18.64C180.57 19.4067 180.327 20.0133 179.84 20.46C179.36 20.9 178.693 21.12 177.84 21.12H176.5V23.28H174.5V16.16ZM176.5 19.44H177.69C177.97 19.44 178.187 19.3733 178.34 19.24C178.5 19.1 178.58 18.9 178.58 18.64C178.58 18.38 178.5 18.1833 178.34 18.05C178.187 17.91 177.97 17.84 177.69 17.84H176.5V19.44Z" fill="#F6F6F6"/>
<path d="M187.088 21.61L187.128 22.56C187.141 22.8533 187.201 23.0933 187.308 23.28H185.248C185.168 23.1267 185.121 22.8867 185.108 22.56L185.078 21.75C185.064 21.39 184.981 21.1467 184.828 21.02C184.681 20.8867 184.441 20.82 184.108 20.82H183.068V23.28H181.068V16.16H184.568C185.474 16.16 186.144 16.3567 186.578 16.75C187.004 17.15 187.218 17.6567 187.218 18.27C187.218 18.6367 187.121 18.9667 186.928 19.26C186.741 19.5533 186.468 19.78 186.108 19.94C186.468 20.0733 186.714 20.2667 186.848 20.52C186.988 20.7733 187.068 21.1367 187.088 21.61ZM183.068 17.72V19.36H184.268C184.861 19.36 185.158 19.0867 185.158 18.54C185.158 17.9933 184.861 17.72 184.268 17.72H183.068Z" fill="#F6F6F6"/>
<path d="M193.912 22.42C193.225 23.1 192.322 23.44 191.202 23.44C190.082 23.44 189.179 23.1 188.492 22.42C187.805 21.7533 187.462 20.8533 187.462 19.72C187.462 18.5933 187.805 17.69 188.492 17.01C189.185 16.3367 190.089 16 191.202 16C192.315 16 193.219 16.3367 193.912 17.01C194.599 17.69 194.942 18.5933 194.942 19.72C194.942 20.8533 194.599 21.7533 193.912 22.42ZM189.992 21.18C190.292 21.5333 190.695 21.71 191.202 21.71C191.709 21.71 192.112 21.5333 192.412 21.18C192.712 20.8333 192.862 20.3467 192.862 19.72C192.862 19.1067 192.712 18.6233 192.412 18.27C192.112 17.91 191.709 17.73 191.202 17.73C190.695 17.73 190.292 17.91 189.992 18.27C189.692 18.6233 189.542 19.1067 189.542 19.72C189.542 20.3467 189.692 20.8333 189.992 21.18Z" fill="#F6F6F6"/>
<path d="M194.74 16.16H200.94V17.94H198.84V23.28H196.84V17.94H194.74V16.16Z" fill="#F6F6F6"/>
<path d="M206.957 16.16V17.94H203.337V18.88H206.637V20.54H203.337V21.5H206.957V23.28H201.337V16.16H206.957Z" fill="#F6F6F6"/>
<path d="M210.854 23.44C209.747 23.44 208.864 23.1033 208.204 22.43C207.537 21.7633 207.204 20.86 207.204 19.72C207.204 18.58 207.531 17.6733 208.184 17C208.831 16.3333 209.721 16 210.854 16C211.767 16 212.547 16.2467 213.194 16.74C213.827 17.24 214.211 17.93 214.344 18.81H212.324C212.231 18.4567 212.054 18.1867 211.794 18C211.534 17.8067 211.221 17.71 210.854 17.71C210.341 17.71 209.951 17.8833 209.684 18.23C209.417 18.5767 209.284 19.0733 209.284 19.72C209.284 20.3667 209.417 20.8633 209.684 21.21C209.951 21.5567 210.341 21.73 210.854 21.73C211.254 21.73 211.584 21.6233 211.844 21.41C212.111 21.19 212.281 20.8833 212.354 20.49H214.354C214.241 21.4233 213.867 22.1467 213.234 22.66C212.594 23.18 211.801 23.44 210.854 23.44Z" fill="#F6F6F6"/>
<path d="M214.15 16.16H220.35V17.94H218.25V23.28H216.25V17.94H214.15V16.16Z" fill="#F6F6F6"/>
<path d="M222.746 23.28H220.746V16.16H222.746V23.28Z" fill="#F6F6F6"/>
<path d="M228.095 17.32V16.16H229.995V23.28H227.885L226.375 20.75C225.968 20.0633 225.641 19.4767 225.395 18.99C225.428 19.97 225.445 21.0133 225.445 22.12V23.28H223.545V16.16H225.655L227.165 18.69C227.525 19.3033 227.851 19.8933 228.145 20.46C228.111 19.48 228.095 18.4333 228.095 17.32Z" fill="#F6F6F6"/>
<path d="M234.416 20.72V19.2H237.786V23.28H236.426L236.226 22.35C236.006 22.7033 235.692 22.9733 235.286 23.16C234.879 23.3467 234.426 23.44 233.926 23.44C232.886 23.44 232.056 23.1033 231.436 22.43C230.809 21.7633 230.496 20.86 230.496 19.72C230.496 18.58 230.822 17.6733 231.476 17C232.122 16.3333 233.026 16 234.186 16C235.152 16 235.949 16.23 236.576 16.69C237.216 17.1567 237.589 17.79 237.696 18.59H235.656C235.449 18.0033 234.966 17.71 234.206 17.71C233.692 17.71 233.292 17.8867 233.006 18.24C232.719 18.5933 232.576 19.0867 232.576 19.72C232.576 20.3533 232.726 20.8467 233.026 21.2C233.332 21.5533 233.762 21.73 234.316 21.73C234.669 21.73 234.972 21.64 235.226 21.46C235.486 21.2733 235.652 21.0267 235.726 20.72H234.416Z" fill="#F6F6F6"/>
<path d="M193.5 32.5798H191.38L191.08 31.6498H188.29L187.99 32.5798H185.95L188.48 25.4598H190.88L193.5 32.5798ZM189.33 28.3598L188.81 29.9998H190.54L190.01 28.3598C189.824 27.7865 189.71 27.4098 189.67 27.2298C189.504 27.7831 189.39 28.1598 189.33 28.3598Z" fill="#F6F6F6"/>
<path d="M199.723 30.9098L199.763 31.8598C199.776 32.1531 199.836 32.3931 199.943 32.5798H197.883C197.803 32.4265 197.756 32.1865 197.743 31.8598L197.713 31.0498C197.699 30.6898 197.616 30.4465 197.463 30.3198C197.316 30.1865 197.076 30.1198 196.743 30.1198H195.703V32.5798H193.703V25.4598H197.203C198.109 25.4598 198.779 25.6565 199.213 26.0498C199.639 26.4498 199.853 26.9565 199.853 27.5698C199.853 27.9365 199.756 28.2665 199.563 28.5598C199.376 28.8531 199.103 29.0798 198.743 29.2398C199.103 29.3731 199.349 29.5665 199.483 29.8198C199.623 30.0731 199.703 30.4365 199.723 30.9098ZM195.703 27.0198V28.6598H196.903C197.496 28.6598 197.793 28.3865 197.793 27.8398C197.793 27.2931 197.496 27.0198 196.903 27.0198H195.703Z" fill="#F6F6F6"/>
<path d="M199.997 25.4598H206.197V27.2398H204.097V32.5798H202.097V27.2398H199.997V25.4598Z" fill="#F6F6F6"/>
<path d="M208.594 32.5798H206.594V25.4598H208.594V32.5798Z" fill="#F6F6F6"/>
<path d="M212.222 32.7398C211.202 32.7398 210.415 32.5165 209.862 32.0698C209.315 31.6231 209.042 31.0131 209.042 30.2398H210.962C210.968 30.6131 211.078 30.8698 211.292 31.0098C211.505 31.1498 211.842 31.2198 212.302 31.2198C212.968 31.2198 213.302 31.0065 213.302 30.5798C213.302 30.3798 213.225 30.2331 213.072 30.1398C212.918 30.0465 212.622 29.9631 212.182 29.8898L211.622 29.7998C209.975 29.5331 209.152 28.7665 209.152 27.4998C209.152 26.8265 209.402 26.2931 209.902 25.8998C210.408 25.4998 211.132 25.2998 212.072 25.2998C213.018 25.2998 213.752 25.4998 214.272 25.8998C214.792 26.2931 215.072 26.8765 215.112 27.6498H213.232C213.218 27.3631 213.122 27.1531 212.942 27.0198C212.762 26.8865 212.482 26.8198 212.102 26.8198C211.495 26.8198 211.192 27.0165 211.192 27.4098C211.192 27.6098 211.268 27.7598 211.422 27.8598C211.575 27.9598 211.845 28.0431 212.232 28.1098L212.822 28.2098C213.708 28.3565 214.352 28.6065 214.752 28.9598C215.158 29.3065 215.362 29.7965 215.362 30.4298C215.362 31.1831 215.085 31.7565 214.532 32.1498C213.978 32.5431 213.208 32.7398 212.222 32.7398Z" fill="#F6F6F6"/>
<path d="M215.217 25.4598H221.417V27.2398H219.317V32.5798H217.317V27.2398H215.217V25.4598Z" fill="#F6F6F6"/>
<path d="M224.595 32.7398C223.575 32.7398 222.788 32.5165 222.235 32.0698C221.688 31.6231 221.415 31.0131 221.415 30.2398H223.335C223.342 30.6131 223.452 30.8698 223.665 31.0098C223.878 31.1498 224.215 31.2198 224.675 31.2198C225.342 31.2198 225.675 31.0065 225.675 30.5798C225.675 30.3798 225.598 30.2331 225.445 30.1398C225.292 30.0465 224.995 29.9631 224.555 29.8898L223.995 29.7998C222.348 29.5331 221.525 28.7665 221.525 27.4998C221.525 26.8265 221.775 26.2931 222.275 25.8998C222.782 25.4998 223.505 25.2998 224.445 25.2998C225.392 25.2998 226.125 25.4998 226.645 25.8998C227.165 26.2931 227.445 26.8765 227.485 27.6498H225.605C225.592 27.3631 225.495 27.1531 225.315 27.0198C225.135 26.8865 224.855 26.8198 224.475 26.8198C223.868 26.8198 223.565 27.0165 223.565 27.4098C223.565 27.6098 223.642 27.7598 223.795 27.8598C223.948 27.9598 224.218 28.0431 224.605 28.1098L225.195 28.2098C226.082 28.3565 226.725 28.6065 227.125 28.9598C227.532 29.3065 227.735 29.7965 227.735 30.4298C227.735 31.1831 227.458 31.7565 226.905 32.1498C226.352 32.5431 225.582 32.7398 224.595 32.7398Z" fill="#F6F6F6"/>
<path d="M353 21.3793L335.858 24.1899V22.0797L323 24.1876V19.9673L340.142 17.1567V19.2669L353 17.1613V21.3793Z" fill="#F6F6F6"/>
<path d="M353 12.941L335.858 15.7516V13.6414L323 15.747V3.09055L340.142 0.280029V2.3902L353 0.282303V4.50264L335.858 7.31089V5.203L327.287 6.60598V10.8263L340.142 8.71843V10.8286L353 8.72297V12.941Z" fill="#F6F6F6"/>
<path d="M353 46.3793L335.858 49.1899V47.0797L323 49.1876V44.9673L340.142 42.1567V44.2669L353 42.1613V46.3793Z" fill="#F6F6F6"/>
<path d="M353 37.941L335.858 40.7516V38.6414L323 40.747V28.0906L340.142 25.28V27.3902L353 25.2823V29.5026L335.858 32.3109V30.203L327.287 31.606V35.8263L340.142 33.7184V35.8286L353 33.723V37.941Z" fill="#F6F6F6"/>
</g>
<defs>
<clipPath id="clip0_642_3851">
<rect width="353" height="50" fill="white"/>
</clipPath>
</defs>
</svg>
