<svg width="455" height="363" viewBox="0 0 455 363" fill="none" xmlns="http://www.w3.org/2000/svg">
<path fill-rule="evenodd" clip-rule="evenodd" d="M0 332.481H15.2549C35.7492 332.481 46.3769 327.476 60.1538 311.34C73.4425 295.776 98.8839 246.313 99.9401 233.989L100.652 225.666L78.1497 224.864C41.7194 223.566 42.2598 222.159 95.6879 179.114C215.62 82.4889 312.789 20.8661 370.028 5.13507C385.184 0.970653 397.367 -0.458176 412.771 0.124453C432.545 0.870774 434.249 1.39514 433.472 6.48621C432.476 13.0117 428.792 18.0278 407.12 42.3706L390.953 60.5293L399.498 70.3202C404.197 75.7054 408.833 83.2768 409.798 87.1471C412.128 96.4858 409.208 113.629 404.771 116.664C398.836 120.729 377.722 117.069 368.801 110.436C360.418 104.199 360.357 104.196 350.551 109.434C336.631 116.87 305.269 147.236 295.193 163.033C286.81 176.176 286.206 185.437 293.729 185.437C299.026 185.437 324.564 164.637 342 146.12C355.813 131.452 358.295 129.948 368.707 129.948C375.019 129.948 383.474 131.205 387.489 132.742L394.791 135.536L383.408 156.771C371.501 178.981 370.905 185.437 380.763 185.437C388.6 185.437 413.829 171.678 434.263 156.264C443.335 149.419 451.71 143.82 452.877 143.82C454.046 143.82 455 152.343 455 162.759C455 178.861 454.071 182.546 448.795 187.384C436.566 198.601 418.457 208.023 400.637 212.449C385.352 216.244 379.544 216.435 363.553 213.678C337.108 209.114 326.21 209.563 308.132 215.955C282.544 225.003 259.193 222.367 248.333 209.202C243.094 202.855 241.062 203.712 233.978 215.262C224.177 231.237 209.612 246.352 198.733 251.834C193.323 254.559 179.587 259.039 168.212 261.786C156.837 264.533 145.272 268.142 142.512 269.807C139.751 271.469 127.193 285.954 114.605 301.996C91.6729 331.216 67.1166 352.629 48.867 359.321C43.9806 361.113 30.9896 362.673 19.9924 362.789L0 363V332.481ZM220.783 131.055C225.283 125.52 267.893 97.1683 304.571 75.3003C322.741 64.4662 332.012 60.5875 339.731 60.5875C353.425 60.5875 353.008 64.0334 338.52 70.5699C309.353 83.7318 269.388 120.407 250.926 150.953C247.302 156.949 243.05 162.734 241.475 163.807C237.816 166.307 228.261 157.29 221.828 145.271C217.443 137.081 217.314 135.319 220.783 131.055ZM146.152 207.43C146.152 205.793 155.296 195.072 166.472 183.606C189.561 159.92 197.746 157.598 202.246 173.46C205.478 184.846 202.773 195.308 194.423 203.709C188.56 209.605 185.279 210.407 166.957 210.407C153.983 210.407 146.152 209.286 146.152 207.43Z" fill="#853BFF"/>
</svg>
