<svg xmlns="http://www.w3.org/2000/svg" width="1135" height="865" fill="none" viewBox="0 0 1135 865"><path fill="#fff" fill-opacity=".2" fill-rule="evenodd" d="M1043.81 9.03143C961.236 18.071 956.01 20.259 882.467 76.5092C853.531 98.6418 813.105 125.129 792.622 135.382C772.145 145.628 735.353 166.274 710.857 181.26C686.361 196.247 653.399 215.104 637.609 223.155L608.89 237.805L581.111 223.632C540.734 203.042 492.283 205.132 429.76 230.161C401.329 241.543 362.292 261.263 343.008 273.991C323.724 286.713 297.531 303.621 284.799 311.559C257.694 328.46 256.263 350.684 280.983 370.979C317.137 400.665 343.436 395.637 418.291 344.716C462.617 314.561 481.88 310.879 468.952 335.031C459.755 352.206 424.387 377.978 371.846 405.777C323.689 431.262 251.135 503.039 251.135 525.199C251.135 544.997 272.642 553.096 325.204 553.096H372.14L367.644 575.888C356.448 632.657 285.515 747.444 245.123 774.17C222.353 789.233 208.941 792.621 171.237 792.845C117.664 793.154 82.829 778.125 34.8968 734.028C18.2086 718.67 2.95845 707.702 1.00834 709.651C-9.68923 720.346 67.4034 820.868 105.76 846.234C130.635 862.686 141.375 865.148 187.588 864.993C271.204 864.72 320.091 832.18 413.878 714.392C436.908 685.464 460.744 658.977 466.84 655.54C472.943 652.097 499.459 643.745 525.772 636.977C589.206 620.665 632.242 594.451 661.333 554.408C705.336 493.831 705.954 446.346 663.507 387.256C649.772 368.125 644.062 353.454 646.889 344.534C651.35 330.494 791.415 234.958 864.166 196.338C906.353 173.939 923.609 170.005 935.429 180.082C939.091 183.21 950.202 189.192 960.121 193.386C987.738 205.055 1032.08 179.654 1087.65 120.319C1133.16 71.7334 1135 68.3883 1135 34.425C1135 10.3218 1132.21 -0.61827 1126.23 0.0269137C1121.41 0.545866 1084.32 4.5993 1043.81 9.03143ZM524.488 454.58C467.906 512.387 468.72 521.384 529.973 515.164C581.525 509.925 592.075 503.508 600.739 472.119C609.009 442.146 600.858 416.787 582.072 414.073C570.505 412.404 555.29 423.113 524.488 454.58Z" clip-rule="evenodd"/></svg>