<svg width="572" height="185" viewBox="0 0 572 185" fill="none" xmlns="http://www.w3.org/2000/svg">
<path fill-rule="evenodd" clip-rule="evenodd" d="M20.2286 0.0641666C27.6212 -0.340739 34.5968 1.17063 41.1553 4.5983C44.94 7.46576 46.9164 11.3023 47.0846 16.108C47.4091 17.1061 47.9904 17.9199 48.8285 18.5495C60.2202 18.4635 71.6136 18.4635 83.0089 18.5495C95.5433 18.697 107.17 21.9522 117.887 28.3153C132.517 39.6708 134.261 52.8081 123.119 67.7274C116.548 74.576 109.689 81.2028 102.541 87.6078C95.1792 92.767 87.7383 97.7657 80.2187 102.605C82.026 104.674 84.1187 106.418 86.4967 107.837C94.4021 112.255 102.308 116.673 110.214 121.091C112.011 121.963 113.871 122.196 115.794 121.788C122.691 115.589 128.853 108.73 134.279 101.21C138.988 93.4192 143.871 85.746 148.928 78.1908C151.349 75.0594 154.488 73.7808 158.345 74.3542C163.449 76.8319 168.681 79.0404 174.04 80.981C180.21 78.0694 186.14 74.6974 191.828 70.8664C196.907 67.8223 202.255 67.125 207.872 68.7737C212.116 70.9285 215.72 73.8352 218.684 77.4932C219.149 79.3536 219.149 81.2133 218.684 83.0737C213.625 91.5637 208.742 100.167 204.035 108.883C203.023 111.141 202.208 113.466 201.594 115.859C202.001 116.907 202.582 117.837 203.338 118.649C216.37 102.695 228.81 86.302 240.657 69.4713C242.781 68.1299 245.106 67.5488 247.633 67.7274C253.401 68.87 259.214 69.2188 265.072 68.7737C268.911 67.2581 272.399 65.1655 275.535 62.4957C281.804 60.3784 287.385 61.541 292.277 65.9835C294.28 67.7532 296.024 69.7294 297.508 71.9128C297.974 73.7731 297.974 75.6328 297.508 77.4932C292.729 84.2568 287.614 90.7678 282.162 97.0249C279.837 100.745 277.511 104.466 275.186 108.186C273.723 112.038 272.677 115.991 272.047 120.044C275.29 120.438 278.546 120.787 281.813 121.091C286.435 121.483 287.947 123.924 286.347 128.415C284.8 132.351 281.893 134.561 277.628 135.042C269.878 136.956 263.716 134.747 259.143 128.415C257.555 121.234 257.323 114.026 258.445 106.791C260.267 99.8981 262.476 93.1548 265.072 86.5615C260.025 85.3205 254.91 84.9718 249.726 85.5152C247.984 86.2685 246.356 87.1991 244.843 88.3054C236.355 99.5828 227.869 110.86 219.382 122.137C212.504 128.652 205.18 134.581 197.409 139.925C194.643 141.21 191.737 141.792 188.689 141.669C182.867 141.085 177.171 139.923 171.599 138.181C166.399 139.616 161.516 141.826 156.95 144.808C151.819 147.052 146.471 147.749 140.906 146.9C137.777 145.269 134.755 143.526 131.838 141.669C128.491 144.896 125.003 148.035 121.375 151.086C115.51 152.456 109.697 152.223 103.936 150.388C103.376 147.309 103.027 144.17 102.889 140.971C102.565 139.973 101.983 139.16 101.145 138.53C85.9826 128.274 69.9387 119.671 53.0139 112.72C50.2311 110.758 49.0685 108.084 49.5261 104.698C49.5309 102.541 49.8797 100.448 50.5724 98.42C52.0838 96.9084 53.5951 95.3975 55.1065 93.8859C68.5538 84.662 81.6912 75.0127 94.5186 64.9372C97.1289 60.5083 97.5942 55.8579 95.9137 50.986C91.1278 46.562 85.4315 44.1205 78.8235 43.6616C68.8311 42.8946 58.8328 42.197 48.8285 41.5689C46.1888 40.8218 43.5148 40.2404 40.8066 39.825C32.0282 42.8035 23.0762 43.3848 13.9505 41.5689C7.90731 38.4513 4.5358 33.4522 3.83594 26.5714C3.83836 14.2234 9.30257 5.38766 20.2286 0.0641666ZM172.296 87.9566C173.254 87.8471 174.185 87.9636 175.087 88.3054C178.984 90.8933 182.821 93.5671 186.596 96.3273C187.062 97.2572 187.062 98.1877 186.596 99.1175C183.397 104.352 180.374 109.7 177.528 115.161C176.044 117.345 174.3 119.321 172.296 121.091C165.755 125.408 158.78 128.779 151.37 131.205C150.044 124.51 150.625 117.999 153.114 111.674C159.392 103.654 165.786 95.7483 172.296 87.9566Z" fill="white"/>
<path fill-rule="evenodd" clip-rule="evenodd" d="M525.263 10.5312C526.182 12.4548 526.647 14.6637 526.658 17.1581C526.541 19.367 526.426 21.5759 526.309 23.7849C520.773 31.0678 514.843 38.0434 508.521 44.7116C510.106 47.3442 512.082 49.6693 514.451 51.6872C517.46 57.1399 517.692 62.7204 515.148 68.4287C514.518 69.2664 513.705 69.8482 512.707 70.1726C505.486 71.0591 499.208 69.0823 493.873 64.2433C481.566 71.5509 471.684 81.3167 464.226 93.5408C463.048 98.1914 464.327 99.2377 468.063 96.6798C472.033 94.2293 475.753 91.439 479.224 88.3091C483.447 83.6208 487.865 79.2031 492.478 75.0555C498.175 73.5536 503.756 73.9024 509.219 76.1018C509.328 77.0595 509.212 77.9901 508.87 78.892C505.975 84.582 503.069 90.2783 500.151 95.9822C500.699 97.369 501.745 98.1823 503.29 98.4237C507.25 96.9665 511.087 95.2226 514.799 93.192C522.007 88.3091 529.216 83.4262 536.424 78.5433C541.517 77.2667 546.632 77.1502 551.77 78.1945C551.176 80.0939 550.362 81.9543 549.329 83.7749C542.7 90.6361 535.841 97.263 528.751 103.655C520.845 109.35 512.009 112.023 502.243 111.677C494.607 110.481 486.934 109.9 479.224 109.933C472.718 112.514 465.974 114.258 458.995 115.165C452.802 114.731 447.686 112.173 443.648 107.492C440.812 111.063 438.138 114.783 435.626 118.653C432.929 121.584 430.023 124.258 426.907 126.675C417.948 130.019 408.879 133.042 399.702 135.743C392.353 145.098 384.68 154.166 376.683 162.948C371.701 167.885 365.887 171.606 359.244 174.109C352.304 175.177 345.329 175.41 338.317 174.806C335.496 174.209 332.938 173.047 330.644 171.319C323.657 164.802 317.728 157.478 312.856 149.346C312.069 148.059 311.72 146.663 311.81 145.16C313.402 145.235 314.797 145.817 315.995 146.904C321.693 153.12 328.436 157.771 336.224 160.855C347.931 163.696 357.581 160.557 365.173 151.438C372.856 141.069 378.553 129.676 382.263 117.258C382.117 116.849 381.884 116.5 381.566 116.211C374.771 116.156 368.028 115.692 361.336 114.816C359.925 112.596 359.576 110.155 360.29 107.492C364.565 101.589 369.563 96.3575 375.288 91.7969C381.798 88.0768 388.309 84.356 394.819 80.6359C397.921 78.364 400.014 75.4573 401.097 71.9164C400.14 71.8069 399.209 71.9234 398.307 72.2652C391.037 78.1659 383.015 82.7 374.241 85.8676C371.274 85.4603 368.484 84.5304 365.871 83.0774C361.488 84.6657 357.883 87.3395 355.058 91.0993C353.155 92.7679 351.063 94.163 348.78 95.2847C341.962 96.361 335.219 97.7561 328.551 99.47C324.314 103.243 324.082 107.195 327.854 111.329C332.523 111.422 337.174 111.073 341.805 110.282C348.113 110.659 350.554 113.914 349.129 120.048C347.994 123.23 345.785 125.206 342.502 125.977C332.508 128.241 322.974 127.078 313.902 122.489C310.136 119.939 307.462 116.568 305.88 112.375C306.065 106.803 306.065 101.222 305.88 95.6335C304.297 92.4261 302.437 89.4036 300.3 86.5652C299.955 85.4254 299.84 84.2625 299.951 83.0774C305.427 82.9211 310.775 82.1071 315.995 80.6359C325.254 71.124 335.949 63.6835 348.083 58.314C352.518 57.0005 356.936 57.0005 361.336 58.314C362.582 58.8613 363.629 59.6751 364.475 60.7555C365.612 63.2379 367.008 65.5631 368.661 67.7311C375.794 63.4066 383.118 59.3374 390.634 55.5238C399.256 51.3359 408.324 49.9408 417.839 51.3385C420.044 52.3242 422.136 53.4867 424.117 54.8263C425.977 55.2913 427.837 55.2913 429.697 54.8263C441.365 48.0587 453.223 41.5482 465.273 35.2946C474.553 27.863 484.319 21.1199 494.57 15.0654C503.34 13.5679 512.176 12.6377 521.077 12.2751C522.803 12.2495 524.198 11.6683 525.263 10.5312ZM484.804 44.7116C485.911 45.1637 487.074 45.5125 488.292 45.758C489.222 46.223 489.222 46.688 488.292 47.1531C468.638 55.8759 453.641 69.7108 443.3 88.6579C442.059 89.3408 440.897 89.1085 439.812 87.9603C437.951 85.1701 436.092 82.3798 434.231 79.5896C433.411 76.9668 434.224 74.9906 436.673 73.6603C452.008 62.6419 468.052 52.9923 484.804 44.7116ZM348.78 74.7067C349.391 74.6153 349.857 74.8476 350.175 75.4042C347.831 82.0569 343.181 85.6611 336.224 86.2164C336.851 84.6874 337.549 83.1764 338.317 81.6823C339.712 80.7524 340.875 79.5896 341.805 78.1945C344.202 77.0184 346.528 75.8556 348.78 74.7067ZM419.234 90.053C420.878 89.9393 422.505 90.0551 424.117 90.4018C426.121 95.4849 425.889 100.484 423.419 105.399C422.353 106.349 421.19 107.163 419.931 107.841C414.336 108.421 408.756 108.305 403.19 107.492C404.566 105.302 406.078 103.209 407.724 101.214C411.949 97.8015 415.786 94.0807 419.234 90.053Z" fill="white"/>
<path fill-rule="evenodd" clip-rule="evenodd" d="M178.575 27.9707C187.421 26.7598 194.281 29.7826 199.153 37.0389C200.153 56.0218 191.2 63.5788 172.297 59.7096C166.088 58.0322 162.833 53.963 162.531 47.5023C163.31 37.1939 168.658 30.6833 178.575 27.9707Z" fill="white"/>
<path fill-rule="evenodd" clip-rule="evenodd" d="M299.953 31.457C310.101 31.492 313.706 36.375 310.765 46.1058C309.439 49.5242 306.997 51.7331 303.441 52.7326C299.488 53.1976 295.536 53.1976 291.582 52.7326C288.998 51.5472 287.486 49.5707 287.048 46.8033C286.657 40.7263 289.098 36.1921 294.373 33.2009C296.333 32.6552 298.193 32.074 299.953 31.457Z" fill="white"/>
<path fill-rule="evenodd" clip-rule="evenodd" d="M0 149.341C0 147.481 0 145.621 0 143.76C2.24918 140.459 4.92316 137.436 8.02193 134.692C9.1284 133.179 10.0585 131.55 10.8122 129.809C16.8255 108.35 23.1036 86.9582 29.6463 65.6339C31.3254 58.4259 35.162 52.7292 41.156 48.5437C46.0631 48.134 50.946 48.3665 55.8047 49.2412C57.7086 51.9323 58.6387 54.955 58.595 58.3095C58.3077 61.4985 57.7264 64.6375 56.8511 67.7265C48.1199 91.3591 39.5167 115.076 31.0414 138.878C25.3079 146.109 17.751 149.829 8.37071 150.039C5.61356 149.437 2.82332 149.205 0 149.341Z" fill="white"/>
<path d="M464.014 176.825C464.073 175.913 451.68 179.583 450.514 180.228C449.348 180.872 448.696 181.331 450.397 182.051C452.098 182.77 453.984 182.808 457.643 182.408C461.303 182.008 465.821 179.22 465.985 178.783C466.149 178.345 466.063 177.567 462.853 178.581C459.642 179.595 463.955 177.737 464.014 176.825Z" fill="white"/>
<path fill-rule="evenodd" clip-rule="evenodd" d="M438.601 155.573C441.739 155.343 444.879 157.317 444.879 159.41C444.879 161.502 438.81 171.947 438.113 172.994C437.415 174.04 440.485 173.665 439.299 173.709C438.113 173.754 449.413 171.268 449.762 171.268C450.111 171.268 450.808 171.268 450.46 171.966C450.111 172.663 444.879 174.407 444.879 174.956C444.879 175.505 450.808 174.756 449.413 175.453C448.018 176.151 443.344 177.528 443.135 178.244C442.926 178.959 448.158 177.506 449.971 177.877C452.018 178.976 430.727 183.416 426.603 184.155C422.479 184.893 425.167 179.365 426.394 177.197C429.61 173.218 436.446 165.643 439.508 161.484C437.12 162.712 430.23 168.129 428.138 168.129C426.045 168.129 428.419 162.102 430.579 159.758C431.16 159.177 431.742 158.595 432.323 158.014C434.079 156.881 436.194 156.09 438.601 155.573Z" fill="white"/>
<path fill-rule="evenodd" clip-rule="evenodd" d="M483.945 150.69C487.083 150.461 490.223 152.434 490.223 154.527C490.223 156.619 484.154 167.064 483.456 168.111C482.759 169.157 485.828 168.782 484.642 168.827C483.456 168.871 494.757 166.385 495.106 166.385C495.455 166.385 496.152 166.385 495.803 167.083C495.455 167.78 490.223 169.524 490.223 170.073C490.223 170.622 496.152 169.873 494.757 170.571C493.362 171.268 488.688 172.645 488.479 173.361C488.27 174.077 493.502 172.623 495.315 172.994C497.362 174.093 476.07 178.533 471.947 179.272C467.823 180.01 470.511 174.482 471.738 172.314C474.953 168.336 481.789 160.76 484.852 156.601C482.464 157.83 475.574 163.246 473.481 163.246C471.389 163.246 473.763 157.219 475.923 154.875C476.504 154.294 477.086 153.713 477.667 153.132C479.423 151.998 481.537 151.207 483.945 150.69Z" fill="white"/>
<path fill-rule="evenodd" clip-rule="evenodd" d="M451.364 163.226C452.87 159.413 455.898 155.901 456.944 155.204C457.991 154.506 458.514 154.402 459.386 154.157C460.257 153.913 460.794 153.836 461.827 153.809C463.169 153.845 463.92 153.809 464.617 154.157C465.315 154.506 467.059 155.552 467.059 157.296C467.059 159.04 467.641 165.318 467.059 168.109C466.477 170.899 465.664 171.945 465.664 171.945C464.527 174.068 463.107 175.433 461.478 175.782C459.85 176.13 457.526 176.479 455.2 175.782C452.875 175.084 452.247 174.603 451.713 172.991C450.742 168.942 450.761 166.831 451.364 163.226ZM456.899 164.342C458.294 160.854 458.291 159.96 460.665 159.319C461.66 159.041 462.339 159.389 462.339 160.435C462.34 161.482 462.339 163.923 461.827 167.062C461.315 170.201 461.363 172.294 459.037 172.991C456.711 173.689 456.572 172.991 456.247 172.643C455.922 172.294 455.503 167.83 456.899 164.342Z" fill="white"/>
<path d="M507.452 164.485C511.426 161.269 509.605 161.067 505.763 161.339C501.921 161.612 499.437 164.019 497.955 160.863C496.473 157.708 497.532 152.804 497.895 152.481C498.257 152.158 499.022 150.069 502.326 148.69C505.63 147.31 514.529 145.77 516.499 145.806C518.469 145.841 508.806 148.147 508.831 148.649C508.856 149.151 514.789 147.445 514.395 148.202C514.001 148.96 502.791 152.272 503.88 152.493C504.97 152.714 512.545 150.267 513.624 150.639C514.704 151.012 506.636 153.3 504.695 155.367C502.753 157.434 506.172 157.882 512.113 157.264C518.054 156.647 514.377 168.81 510.192 170.205C506.006 171.6 496.72 174.527 496.484 173.363C496.247 172.198 503.71 170.922 504.434 170.322C505.157 169.722 498.467 171.489 497.927 170.597C497.387 169.706 508.834 167.513 505.243 167.67C501.651 167.826 498.306 168.86 498.667 168.168C499.028 167.477 503.479 167.701 507.452 164.485Z" fill="white"/>
<path d="M547.801 26.6133V9.43359H555.102C556.938 9.43359 558.27 9.58984 559.098 9.90234C559.934 10.207 560.602 10.7539 561.102 11.543C561.602 12.332 561.852 13.2344 561.852 14.25C561.852 15.5391 561.473 16.6055 560.715 17.4492C559.957 18.2852 558.824 18.8125 557.316 19.0312C558.066 19.4688 558.684 19.9492 559.168 20.4727C559.66 20.9961 560.32 21.9258 561.148 23.2617L563.246 26.6133H559.098L556.59 22.875C555.699 21.5391 555.09 20.6992 554.762 20.3555C554.434 20.0039 554.086 19.7656 553.719 19.6406C553.352 19.5078 552.77 19.4414 551.973 19.4414H551.27V26.6133H547.801ZM551.27 16.6992H553.836C555.5 16.6992 556.539 16.6289 556.953 16.4883C557.367 16.3477 557.691 16.1055 557.926 15.7617C558.16 15.418 558.277 14.9883 558.277 14.4727C558.277 13.8945 558.121 13.4297 557.809 13.0781C557.504 12.7188 557.07 12.4922 556.508 12.3984C556.227 12.3594 555.383 12.3398 553.977 12.3398H551.27V16.6992Z" fill="white"/>
<circle cx="554.214" cy="17.7878" r="15.7878" stroke="white" stroke-width="4"/>
</svg>
