<svg width="354" height="58" viewBox="0 0 354 58" fill="none" xmlns="http://www.w3.org/2000/svg">
<mask id="path-1-inside-1_642_2825" fill="white">
<path fill-rule="evenodd" clip-rule="evenodd" d="M0 51.7817V6.55421C2.28523 6.55401 4.54802 6.40177 6.65932 6.10615C8.77202 5.81034 10.6917 5.37676 12.3087 4.83016C13.9256 4.28357 15.2083 3.63468 16.0834 2.92052C16.9585 2.20638 17.4089 1.44098 17.4089 0.668001L336.579 0.667969C336.579 1.44097 337.03 2.20639 337.905 2.92055C338.78 3.63471 340.063 4.2836 341.68 4.8302C343.297 5.37679 345.216 5.81037 347.329 6.10618C349.442 6.40199 351.706 6.55425 353.993 6.55425V0.667969L354 0.668003V57.668H0V57.6679H17.4089C17.4089 56.895 16.9585 56.1295 16.0834 55.4154C15.2083 54.7012 13.9256 54.0523 12.3086 53.5057C10.6917 52.9591 8.77201 52.5256 6.65932 52.2297C4.54801 51.9341 2.28523 51.7819 0 51.7817ZM336.579 57.668C336.579 56.895 337.03 56.1296 337.905 55.4154C338.78 54.7012 340.063 54.0523 341.68 53.5058C343.297 52.9592 345.216 52.5256 347.329 52.2298C349.442 51.934 351.706 51.7817 353.993 51.7817V57.668H336.579Z"/>
</mask>
<path d="M0 6.55421L-4.38187e-05 6.05421L-0.5 6.05426V6.55421H0ZM0 51.7817H-0.5V52.2816L-4.4236e-05 52.2817L0 51.7817ZM6.65932 6.10615L6.58999 5.61098L6.65932 6.10615ZM12.3087 4.83016L12.1485 4.35649H12.1485L12.3087 4.83016ZM16.0834 2.92052L16.3995 3.3079V3.3079L16.0834 2.92052ZM17.4089 0.668001V0.168001L16.909 0.168001L16.9089 0.667985L17.4089 0.668001ZM336.579 0.667969H337.079V0.167969L336.579 0.167969V0.667969ZM337.905 2.92055L338.221 2.53317V2.53317L337.905 2.92055ZM341.68 4.8302L341.52 5.30386V5.30387L341.68 4.8302ZM347.329 6.10618L347.26 6.60135L347.329 6.10618ZM353.993 6.55425V7.05425H354.493V6.55425H353.993ZM353.993 0.667969L353.995 0.167975L353.493 0.165588V0.667969H353.993ZM354 0.668003H354.5V0.170373L354.002 0.168009L354 0.668003ZM354 57.668V58.168H354.5V57.668H354ZM0 57.668H-0.5V58.168H0V57.668ZM0 57.6679V57.1679H-0.5V57.6679H0ZM17.4089 57.6679V58.1679H17.9089V57.6679H17.4089ZM16.0834 55.4154L15.7673 55.8027L16.0834 55.4154ZM12.3086 53.5057L12.1485 53.9794H12.1485L12.3086 53.5057ZM6.65932 52.2297L6.58999 52.7249L6.65932 52.2297ZM337.905 55.4154L338.221 55.8028V55.8028L337.905 55.4154ZM336.579 57.668H336.079V58.168H336.579V57.668ZM341.68 53.5058L341.52 53.0321L341.68 53.5058ZM347.329 52.2298L347.26 51.7346L347.329 52.2298ZM353.993 51.7817H354.493V51.2817H353.993V51.7817ZM353.993 57.668V58.168H354.493V57.668H353.993ZM-0.5 6.55421V7.58211H0.5V6.55421H-0.5ZM-0.5 9.63791V11.6937H0.5V9.63791H-0.5ZM-0.5 13.7495V15.8053H0.5V13.7495H-0.5ZM-0.5 17.8611V19.9169H0.5V17.8611H-0.5ZM-0.5 21.9727V24.0285H0.5V21.9727H-0.5ZM-0.5 26.0843V28.14H0.5V26.0843H-0.5ZM-0.5 30.1958V32.2516H0.5V30.1958H-0.5ZM-0.5 34.3074V36.3632H0.5V34.3074H-0.5ZM-0.5 38.419V40.4748H0.5V38.419H-0.5ZM-0.5 42.5306V44.5864H0.5V42.5306H-0.5ZM-0.5 46.6422V48.698H0.5V46.6422H-0.5ZM-0.5 50.7538V51.7817H0.5V50.7538H-0.5ZM-4.4236e-05 52.2817C0.275974 52.2817 0.551658 52.284 0.826774 52.2885L0.843087 51.2886C0.562563 51.284 0.28147 51.2817 4.4236e-05 51.2817L-4.4236e-05 52.2817ZM2.47933 52.3425C3.03415 52.3698 3.58454 52.4062 4.12853 52.4516L4.21171 51.4551C3.6562 51.4087 3.09446 51.3715 2.52848 51.3437L2.47933 52.3425ZM5.77169 52.6185C6.04687 52.6516 6.31972 52.6871 6.58999 52.7249L6.72865 51.7346C6.45185 51.6958 6.17257 51.6595 5.89108 51.6257L5.77169 52.6185ZM6.58999 52.7249C7.07231 52.7924 7.54412 52.8672 8.00409 52.9488L8.17887 51.9642C7.70648 51.8804 7.22262 51.8037 6.72865 51.7346L6.58999 52.7249ZM10.7902 53.567C11.2647 53.6962 11.7181 53.8339 12.1485 53.9794L12.4688 53.0321C12.0179 52.8797 11.5452 52.7362 11.053 52.6021L10.7902 53.567ZM12.1485 53.9794C12.4887 54.0944 12.8128 54.2137 13.1201 54.3369L13.4921 53.4086C13.1665 53.2781 12.8251 53.1525 12.4688 53.0321L12.1485 53.9794ZM14.9536 55.234C15.2605 55.4205 15.5318 55.6106 15.7673 55.8027L16.3995 55.028C16.1234 54.8026 15.8134 54.5863 15.473 54.3794L14.9536 55.234ZM15.7673 55.8027C15.9369 55.9412 16.0865 56.0795 16.2167 56.217L16.9427 55.5293C16.7801 55.3576 16.5986 55.1905 16.3995 55.028L15.7673 55.8027ZM16.824 57.1637C16.8814 57.3348 16.9089 57.5026 16.9089 57.6679H17.9089C17.9089 57.3892 17.8621 57.1141 17.7721 56.8457L16.824 57.1637ZM17.4089 57.1679H16.3209V58.1679H17.4089V57.1679ZM14.1448 57.1679H11.9686V58.1679H14.1448V57.1679ZM9.79252 57.1679H7.61641V58.1679H9.79252V57.1679ZM5.44029 57.1679H3.26417V58.1679H5.44029V57.1679ZM1.08806 57.1679H0V58.1679H1.08806V57.1679ZM-0.5 57.6679V57.668H0.5V57.6679H-0.5ZM-0.5 57.668V57.668H0.5V57.668H-0.5ZM0 58.168H0.994382V57.168H0V58.168ZM2.98315 58.168H4.97191V57.168H2.98315V58.168ZM6.96067 58.168H8.94944V57.168H6.96067V58.168ZM10.9382 58.168H12.927V57.168H10.9382V58.168ZM14.9157 58.168H16.9045V57.168H14.9157V58.168ZM18.8933 58.168H20.882V57.168H18.8933V58.168ZM22.8708 58.168H24.8595V57.168H22.8708V58.168ZM26.8483 58.168H28.8371V57.168H26.8483V58.168ZM30.8258 58.168H32.8146V57.168H30.8258V58.168ZM34.8034 58.168H36.7921V57.168H34.8034V58.168ZM38.7809 58.168H40.7697V57.168H38.7809V58.168ZM42.7584 58.168H44.7472V57.168H42.7584V58.168ZM46.736 58.168H48.7247V57.168H46.736V58.168ZM50.7135 58.168H52.7023V57.168H50.7135V58.168ZM54.691 58.168H56.6798V57.168H54.691V58.168ZM58.6686 58.168H60.6573V57.168H58.6686V58.168ZM62.6461 58.168H64.6349V57.168H62.6461V58.168ZM66.6236 58.168H68.6124V57.168H66.6236V58.168ZM70.6011 58.168H72.5899V57.168H70.6011V58.168ZM74.5787 58.168H76.5674V57.168H74.5787V58.168ZM78.5562 58.168H80.545V57.168H78.5562V58.168ZM82.5337 58.168H84.5225V57.168H82.5337V58.168ZM86.5112 58.168H88.5V57.168H86.5112V58.168ZM90.4888 58.168H92.4775V57.168H90.4888V58.168ZM94.4663 58.168H96.455V57.168H94.4663V58.168ZM98.4438 58.168H100.433V57.168H98.4438V58.168ZM102.421 58.168H104.41V57.168H102.421V58.168ZM106.399 58.168H108.388V57.168H106.399V58.168ZM110.376 58.168H112.365V57.168H110.376V58.168ZM114.354 58.168H116.343V57.168H114.354V58.168ZM118.331 58.168H120.32V57.168H118.331V58.168ZM122.309 58.168H124.298V57.168H122.309V58.168ZM126.286 58.168H128.275V57.168H126.286V58.168ZM130.264 58.168H132.253V57.168H130.264V58.168ZM134.242 58.168H136.23V57.168H134.242V58.168ZM138.219 58.168H140.208V57.168H138.219V58.168ZM142.197 58.168H144.185V57.168H142.197V58.168ZM146.174 58.168H148.163V57.168H146.174V58.168ZM150.152 58.168H152.14V57.168H150.152V58.168ZM154.129 58.168H156.118V57.168H154.129V58.168ZM158.107 58.168H160.096V57.168H158.107V58.168ZM162.084 58.168H164.073V57.168H162.084V58.168ZM166.062 58.168H168.051V57.168H166.062V58.168ZM170.039 58.168H172.028V57.168H170.039V58.168ZM174.017 58.168H176.006V57.168H174.017V58.168ZM177.994 58.168H179.983V57.168H177.994V58.168ZM181.972 58.168H183.961V57.168H181.972V58.168ZM185.95 58.168H187.938V57.168H185.95V58.168ZM189.927 58.168H191.916V57.168H189.927V58.168ZM193.905 58.168H195.893V57.168H193.905V58.168ZM197.882 58.168H199.871V57.168H197.882V58.168ZM201.86 58.168H203.848V57.168H201.86V58.168ZM205.837 58.168H207.826V57.168H205.837V58.168ZM209.815 58.168H211.804V57.168H209.815V58.168ZM213.792 58.168H215.781V57.168H213.792V58.168ZM217.77 58.168H219.759V57.168H217.77V58.168ZM221.747 58.168H223.736V57.168H221.747V58.168ZM225.725 58.168H227.714V57.168H225.725V58.168ZM229.702 58.168H231.691V57.168H229.702V58.168ZM233.68 58.168H235.669V57.168H233.68V58.168ZM237.658 58.168H239.646V57.168H237.658V58.168ZM241.635 58.168H243.624V57.168H241.635V58.168ZM245.613 58.168H247.601V57.168H245.613V58.168ZM249.59 58.168H251.579V57.168H249.59V58.168ZM253.568 58.168H255.556V57.168H253.568V58.168ZM257.545 58.168H259.534V57.168H257.545V58.168ZM261.523 58.168H263.512V57.168H261.523V58.168ZM265.5 58.168H267.489V57.168H265.5V58.168ZM269.478 58.168H271.467V57.168H269.478V58.168ZM273.455 58.168H275.444V57.168H273.455V58.168ZM277.433 58.168H279.422V57.168H277.433V58.168ZM281.41 58.168H283.399V57.168H281.41V58.168ZM285.388 58.168H287.377V57.168H285.388V58.168ZM289.366 58.168H291.354V57.168H289.366V58.168ZM293.343 58.168H295.332V57.168H293.343V58.168ZM297.321 58.168H299.309V57.168H297.321V58.168ZM301.298 58.168H303.287V57.168H301.298V58.168ZM305.276 58.168H307.264V57.168H305.276V58.168ZM309.253 58.168H311.242V57.168H309.253V58.168ZM313.231 58.168H315.22V57.168H313.231V58.168ZM317.208 58.168H319.197V57.168H317.208V58.168ZM321.186 58.168H323.175V57.168H321.186V58.168ZM325.163 58.168H327.152V57.168H325.163V58.168ZM329.141 58.168H331.13V57.168H329.141V58.168ZM333.118 58.168H335.107V57.168H333.118V58.168ZM337.096 58.168H339.085V57.168H337.096V58.168ZM341.074 58.168H343.062V57.168H341.074V58.168ZM345.051 58.168H347.04V57.168H345.051V58.168ZM349.029 58.168H351.017V57.168H349.029V58.168ZM353.006 58.168H354V57.168H353.006V58.168ZM354.5 57.668V56.6502H353.5V57.668H354.5ZM354.5 54.6145V52.5787H353.5V54.6145H354.5ZM354.5 50.543V48.5073H353.5V50.543H354.5ZM354.5 46.4716V44.4359H353.5V46.4716H354.5ZM354.5 42.4002V40.3644H353.5V42.4002H354.5ZM354.5 38.3287V36.293H353.5V38.3287H354.5ZM354.5 34.2573V32.2216H353.5V34.2573H354.5ZM354.5 30.1859V28.1502H353.5V30.1859H354.5ZM354.5 26.1144V24.0787H353.5V26.1144H354.5ZM354.5 22.043V20.0073H353.5V22.043H354.5ZM354.5 17.9716V15.9359H353.5V17.9716H354.5ZM354.5 13.9002V11.8644H353.5V13.9002H354.5ZM354.5 9.82873V7.79302H353.5V9.82873H354.5ZM354.5 5.75731V3.72159H353.5V5.75731H354.5ZM354.5 1.68588V0.668003H353.5V1.68588H354.5ZM354.002 0.168009L354.001 0.168L353.996 1.16799L353.998 1.168L354.002 0.168009ZM353.997 0.167983L353.995 0.167975L353.99 1.16796L353.992 1.16797L353.997 0.167983ZM353.493 0.667969V2.13954H354.493V0.667969H353.493ZM353.493 5.08268V6.55425H354.493V5.08268H353.493ZM353.993 6.05425C353.717 6.05425 353.441 6.052 353.165 6.04753L353.149 7.0474C353.43 7.05196 353.711 7.05425 353.993 7.05425V6.05425ZM351.512 5.9936C350.957 5.96631 350.406 5.92988 349.861 5.88446L349.778 6.881C350.334 6.92738 350.896 6.96455 351.463 6.99239L351.512 5.9936ZM348.217 5.71748C347.942 5.68437 347.669 5.64888 347.398 5.61101L347.26 6.60135C347.537 6.64013 347.816 6.67646 348.098 6.71033L348.217 5.71748ZM347.398 5.61101C346.916 5.54348 346.444 5.46872 345.984 5.38707L345.809 6.37168C346.282 6.45553 346.766 6.53219 347.26 6.60135L347.398 5.61101ZM343.198 4.76893C342.724 4.63968 342.27 4.50201 341.84 4.35652L341.52 5.30387C341.97 5.45626 342.443 5.5997 342.935 5.73377L343.198 4.76893ZM341.84 4.35653C341.5 4.24154 341.176 4.12224 340.868 3.99906L340.496 4.9273C340.822 5.05779 341.163 5.18341 341.52 5.30386L341.84 4.35653ZM339.035 3.10193C338.728 2.91544 338.456 2.72534 338.221 2.53317L337.589 3.30792C337.865 3.5333 338.175 3.7496 338.515 3.95649L339.035 3.10193ZM338.221 2.53317C338.051 2.39474 337.902 2.25644 337.772 2.11896L337.046 2.80662C337.208 2.97832 337.39 3.14546 337.589 3.30793L338.221 2.53317ZM337.164 1.17221C337.107 1.0011 337.079 0.833302 337.079 0.667969H336.079C336.079 0.946754 336.126 1.22182 336.216 1.49027L337.164 1.17221ZM336.579 0.167969L335.582 0.167969V1.16797L336.579 1.16797V0.167969ZM333.587 0.167969L331.592 0.167969V1.16797L333.587 1.16797V0.167969ZM329.598 0.167969L327.603 0.16797V1.16797L329.598 1.16797V0.167969ZM325.608 0.16797L323.613 0.16797V1.16797L325.608 1.16797V0.16797ZM321.618 0.16797L319.623 0.16797V1.16797L321.618 1.16797V0.16797ZM317.629 0.167971L315.634 0.167971V1.16797L317.629 1.16797V0.167971ZM313.639 0.167971L311.644 0.167971V1.16797L313.639 1.16797V0.167971ZM309.649 0.167971L307.655 0.167972V1.16797L309.649 1.16797V0.167971ZM305.66 0.167972L303.665 0.167972V1.16797L305.66 1.16797V0.167972ZM301.67 0.167972L299.675 0.167973V1.16797L301.67 1.16797V0.167972ZM297.68 0.167973L295.686 0.167973V1.16797L297.68 1.16797V0.167973ZM293.691 0.167973L291.696 0.167973V1.16797L293.691 1.16797V0.167973ZM289.701 0.167974L287.706 0.167974V1.16797L289.701 1.16797V0.167974ZM285.712 0.167974L283.717 0.167974V1.16797L285.712 1.16797V0.167974ZM281.722 0.167974L279.727 0.167975V1.16797L281.722 1.16797V0.167974ZM277.732 0.167975L275.737 0.167975V1.16797L277.732 1.16797V0.167975ZM273.743 0.167975L271.748 0.167975V1.16798L273.743 1.16798V0.167975ZM269.753 0.167976L267.758 0.167976V1.16798L269.753 1.16798V0.167976ZM265.763 0.167976L263.769 0.167976V1.16798L265.763 1.16798V0.167976ZM261.774 0.167976L259.779 0.167977V1.16798L261.774 1.16798V0.167976ZM257.784 0.167977L255.789 0.167977V1.16798L257.784 1.16798V0.167977ZM253.795 0.167977L251.8 0.167977V1.16798L253.795 1.16798V0.167977ZM249.805 0.167978L247.81 0.167978V1.16798L249.805 1.16798V0.167978ZM245.815 0.167978L243.82 0.167978V1.16798L245.815 1.16798V0.167978ZM241.826 0.167978L239.831 0.167979V1.16798L241.826 1.16798V0.167978ZM237.836 0.167979L235.841 0.167979V1.16798L237.836 1.16798V0.167979ZM233.846 0.167979L231.852 0.167979V1.16798L233.846 1.16798V0.167979ZM229.857 0.16798L227.862 0.16798V1.16798L229.857 1.16798V0.16798ZM225.867 0.16798L223.872 0.16798V1.16798L225.867 1.16798V0.16798ZM221.878 0.16798L219.883 0.167981V1.16798L221.878 1.16798V0.16798ZM217.888 0.167981L215.893 0.167981V1.16798L217.888 1.16798V0.167981ZM213.898 0.167981L211.903 0.167981V1.16798L213.898 1.16798V0.167981ZM209.909 0.167982L207.914 0.167982V1.16798L209.909 1.16798V0.167982ZM205.919 0.167982L203.924 0.167982V1.16798L205.919 1.16798V0.167982ZM201.929 0.167983L199.935 0.167983V1.16798L201.929 1.16798V0.167983ZM197.94 0.167983L195.945 0.167983V1.16798L197.94 1.16798V0.167983ZM193.95 0.167983L191.955 0.167984V1.16798L193.95 1.16798V0.167983ZM189.961 0.167984L187.966 0.167984V1.16798L189.961 1.16798V0.167984ZM185.971 0.167984L183.976 0.167984V1.16798L185.971 1.16798V0.167984ZM181.981 0.167985L179.986 0.167985V1.16798L181.981 1.16798V0.167985ZM177.992 0.167985L175.997 0.167985V1.16799L177.992 1.16798V0.167985ZM174.002 0.167985L172.007 0.167986V1.16799L174.002 1.16799V0.167985ZM170.012 0.167986L168.018 0.167986V1.16799L170.012 1.16799V0.167986ZM166.023 0.167986L164.028 0.167986V1.16799L166.023 1.16799V0.167986ZM162.033 0.167987L160.038 0.167987V1.16799L162.033 1.16799V0.167987ZM158.044 0.167987L156.049 0.167987V1.16799L158.044 1.16799V0.167987ZM154.054 0.167987L152.059 0.167988V1.16799L154.054 1.16799V0.167987ZM150.064 0.167988L148.07 0.167988V1.16799L150.064 1.16799V0.167988ZM146.075 0.167988L144.08 0.167988V1.16799L146.075 1.16799V0.167988ZM142.085 0.167989L140.09 0.167989V1.16799L142.085 1.16799V0.167989ZM138.095 0.167989L136.101 0.167989V1.16799L138.095 1.16799V0.167989ZM134.106 0.167989L132.111 0.16799V1.16799L134.106 1.16799L134.106 0.167989ZM130.116 0.16799L128.121 0.16799V1.16799L130.116 1.16799V0.16799ZM126.127 0.16799L124.132 0.16799L124.132 1.16799L126.127 1.16799V0.16799ZM122.137 0.167991L120.142 0.167991V1.16799L122.137 1.16799V0.167991ZM118.147 0.167991L116.153 0.167991V1.16799L118.147 1.16799V0.167991ZM114.158 0.167991L112.163 0.167992V1.16799L114.158 1.16799V0.167991ZM110.168 0.167992L108.173 0.167992V1.16799L110.168 1.16799V0.167992ZM106.178 0.167992L104.184 0.167993L104.184 1.16799L106.178 1.16799V0.167992ZM102.189 0.167993L100.194 0.167993V1.16799L102.189 1.16799V0.167993ZM98.1992 0.167993L96.2044 0.167993V1.16799L98.1992 1.16799V0.167993ZM94.2096 0.167994L92.2148 0.167994V1.16799L94.2096 1.16799V0.167994ZM90.2199 0.167994L88.2251 0.167994V1.16799L90.2199 1.16799V0.167994ZM86.2303 0.167994L84.2355 0.167995V1.16799L86.2303 1.16799V0.167994ZM82.2407 0.167995L80.2459 0.167995V1.16799L82.2407 1.16799V0.167995ZM78.2511 0.167995L76.2563 0.167995V1.168L78.2511 1.168V0.167995ZM74.2614 0.167996L72.2666 0.167996V1.168L74.2614 1.168V0.167996ZM70.2718 0.167996L68.277 0.167996V1.168L70.2718 1.168V0.167996ZM66.2822 0.167996L64.2874 0.167997V1.168L66.2822 1.168V0.167996ZM62.2926 0.167997L60.2978 0.167997V1.168L62.2926 1.168V0.167997ZM58.303 0.167997L56.3081 0.167997V1.168L58.303 1.168V0.167997ZM54.3133 0.167998L52.3185 0.167998V1.168L54.3133 1.168V0.167998ZM50.3237 0.167998L48.3289 0.167998V1.168L50.3237 1.168V0.167998ZM46.3341 0.167998L44.3393 0.167999V1.168L46.3341 1.168V0.167998ZM42.3444 0.167999L40.3496 0.167999V1.168L42.3444 1.168V0.167999ZM38.3548 0.167999L36.36 0.167999V1.168L38.3548 1.168V0.167999ZM34.3652 0.168L32.3704 0.168V1.168L34.3652 1.168V0.168ZM30.3756 0.168L28.3808 0.168V1.168L30.3756 1.168V0.168ZM26.386 0.168L24.3911 0.168001V1.168L26.386 1.168V0.168ZM22.3963 0.168001L20.4015 0.168001V1.168L22.3963 1.168L22.3963 0.168001ZM18.4067 0.168001L17.4089 0.168001V1.168L18.4067 1.168V0.168001ZM16.9089 0.667985C16.9089 0.833313 16.8814 1.00111 16.824 1.17221L17.7721 1.49029C17.8621 1.22185 17.9089 0.946794 17.9089 0.668017L16.9089 0.667985ZM16.2167 2.11894C16.0865 2.25641 15.9369 2.39472 15.7673 2.53314L16.3995 3.3079C16.5986 3.14543 16.7801 2.97829 16.9427 2.80659L16.2167 2.11894ZM15.7673 2.53314C15.5318 2.72531 15.2605 2.91541 14.9536 3.1019L15.473 3.95646C15.8134 3.74956 16.1234 3.53327 16.3995 3.3079L15.7673 2.53314ZM13.1201 3.99903C12.8128 4.12221 12.4887 4.24151 12.1485 4.35649L12.4688 5.30383C12.8251 5.18338 13.1665 5.05776 13.4921 4.92727L13.1201 3.99903ZM12.1485 4.35649C11.7181 4.50198 11.2647 4.63965 10.7902 4.7689L11.053 5.73375C11.5452 5.59967 12.0179 5.45623 12.4688 5.30383L12.1485 4.35649ZM8.0041 5.38704C7.54413 5.46869 7.07231 5.54345 6.58999 5.61098L6.72866 6.60132C7.22262 6.53216 7.70649 6.4555 8.17888 6.37165L8.0041 5.38704ZM6.58999 5.61098C6.31973 5.64882 6.04687 5.6843 5.7717 5.71738L5.89108 6.71023C6.17257 6.67638 6.45186 6.64007 6.72866 6.60132L6.58999 5.61098ZM4.12853 5.88429C3.58454 5.9297 3.03415 5.96613 2.47933 5.99343L2.52848 6.99222C3.09446 6.96437 3.6562 6.9272 4.21171 6.88083L4.12853 5.88429ZM0.826775 6.04744C0.551659 6.05193 0.275975 6.05419 -4.38187e-05 6.05421L4.38187e-05 7.05421C0.28147 7.05419 0.562563 7.05188 0.843087 7.04731L0.826775 6.04744ZM337.589 55.028C337.39 55.1905 337.208 55.3576 337.046 55.5293L337.772 56.217C337.902 56.0795 338.051 55.9412 338.221 55.8028L337.589 55.028ZM336.216 56.8457C336.126 57.1141 336.079 57.3892 336.079 57.668H337.079C337.079 57.5027 337.107 57.3348 337.164 57.1637L336.216 56.8457ZM336.579 58.168H337.668V57.168H336.579V58.168ZM339.844 58.168H342.021V57.168H339.844V58.168ZM344.198 58.168H346.374V57.168H344.198V58.168ZM348.551 58.168H350.728V57.168H348.551V58.168ZM352.904 58.168H353.993V57.168H352.904V58.168ZM354.493 57.668V56.1964H353.493V57.668H354.493ZM354.493 53.2533V51.7817H353.493V53.2533H354.493ZM353.993 51.2817C353.711 51.2817 353.43 51.284 353.149 51.2886L353.165 52.2884C353.441 52.2839 353.717 52.2817 353.993 52.2817V51.2817ZM351.463 51.3436C350.896 51.3714 350.334 51.4086 349.778 51.455L349.861 52.4515C350.406 52.4061 350.957 52.3696 351.512 52.3424L351.463 51.3436ZM348.098 51.6256C347.816 51.6595 347.537 51.6958 347.26 51.7346L347.398 52.7249C347.669 52.6871 347.942 52.6516 348.217 52.6185L348.098 51.6256ZM347.26 51.7346C346.766 51.8038 346.282 51.8804 345.809 51.9643L345.984 52.9489C346.444 52.8672 346.916 52.7925 347.398 52.7249L347.26 51.7346ZM342.935 52.6022C342.443 52.7363 341.97 52.8797 341.52 53.0321L341.84 53.9794C342.27 53.8339 342.724 53.6963 343.198 53.567L342.935 52.6022ZM341.52 53.0321C341.163 53.1525 340.822 53.2782 340.496 53.4087L340.868 54.3369C341.176 54.2137 341.5 54.0944 341.84 53.9794L341.52 53.0321ZM338.515 54.3795C338.175 54.5864 337.865 54.8027 337.589 55.028L338.221 55.8028C338.456 55.6106 338.728 55.4205 339.035 55.234L338.515 54.3795ZM0 6.55421L-8.76373e-05 5.55421L-1 5.5543V6.55421H0ZM0 51.7817H-1V52.7816L-8.8472e-05 52.7817L0 51.7817ZM6.65932 6.10615L6.52066 5.11581L6.65932 6.10615ZM12.3087 4.83016L11.9884 3.88282L12.3087 4.83016ZM16.0834 2.92052L16.7157 3.69528V3.69527L16.0834 2.92052ZM17.4089 0.668001V-0.331999L16.409 -0.331999L16.4089 0.667969L17.4089 0.668001ZM336.579 0.667969H337.579V-0.332031L336.579 -0.332031V0.667969ZM337.905 2.92055L338.537 2.1458V2.14579L337.905 2.92055ZM341.68 4.8302L341.359 5.77753V5.77754L341.68 4.8302ZM347.329 6.10618L347.19 7.09652L347.329 6.10618ZM353.993 6.55425V7.55425H354.993V6.55425H353.993ZM353.993 0.667969L353.998 -0.33202L352.993 -0.336793V0.667969H353.993ZM354 0.668003H355V-0.327257L354.005 -0.331986L354 0.668003ZM354 57.668V58.668H355V57.668H354ZM0 57.668H-1V58.668H0V57.668ZM0 57.6679V56.6679H-1V57.6679H0ZM17.4089 57.6679V58.6679H18.4089V57.6679H17.4089ZM16.0834 55.4154L15.4511 56.1901H15.4511L16.0834 55.4154ZM12.3086 53.5057L11.9884 54.4531H11.9884L12.3086 53.5057ZM6.65932 52.2297L6.52065 53.2201H6.52065L6.65932 52.2297ZM337.905 55.4154L338.537 56.1902V56.1902L337.905 55.4154ZM336.579 57.668H335.579V58.668H336.579V57.668ZM341.68 53.5058L341.359 52.5584L341.68 53.5058ZM347.329 52.2298L347.19 51.2394L347.329 52.2298ZM353.993 51.7817H354.993V50.7817H353.993V51.7817ZM353.993 57.668V58.668H354.993V57.668H353.993ZM-1 6.55421V7.58211H1V6.55421H-1ZM-1 9.63791V11.6937H1V9.63791H-1ZM-1 13.7495V15.8053H1V13.7495H-1ZM-1 17.8611V19.9169H1V17.8611H-1ZM-1 21.9727V24.0285H1V21.9727H-1ZM-1 26.0843V28.14H1V26.0843H-1ZM-1 30.1958V32.2516H1V30.1958H-1ZM-1 34.3074V36.3632H1V34.3074H-1ZM-1 38.419V40.4748H1V38.419H-1ZM-1 42.5306V44.5864H1V42.5306H-1ZM-1 46.6422V48.698H1V46.6422H-1ZM-1 50.7538V51.7817H1V50.7538H-1ZM-8.8472e-05 52.7817C0.273226 52.7817 0.546206 52.7839 0.818618 52.7884L0.851243 50.7887C0.568015 50.784 0.284219 50.7817 8.8472e-05 50.7817L-8.8472e-05 52.7817ZM2.45476 52.8419C3.00399 52.8689 3.54871 52.9049 4.08694 52.9499L4.2533 50.9568C3.69203 50.9099 3.12462 50.8724 2.55305 50.8443L2.45476 52.8419ZM5.712 53.1149C5.98402 53.1476 6.25366 53.1827 6.52065 53.2201L6.79798 51.2394C6.51792 51.2002 6.23542 51.1635 5.95077 51.1292L5.712 53.1149ZM6.52065 53.2201C6.99715 53.2868 7.46294 53.3606 7.9167 53.4412L8.26626 51.4719C7.78766 51.387 7.29777 51.3094 6.79798 51.2394L6.52065 53.2201ZM10.6588 54.0494C11.1244 54.1762 11.5682 54.311 11.9884 54.4531L12.6289 52.5584C12.1678 52.4025 11.6855 52.2562 11.1844 52.1197L10.6588 54.0494ZM11.9884 54.4531C12.3205 54.5653 12.6359 54.6815 12.9341 54.801L13.6781 52.9445C13.3434 52.8104 12.9933 52.6816 12.6289 52.5584L11.9884 54.4531ZM14.6939 55.6613C14.984 55.8376 15.236 56.0146 15.4511 56.1901L16.7157 54.6406C16.4192 54.3986 16.0899 54.1692 15.7326 53.9521L14.6939 55.6613ZM15.4511 56.1901C15.606 56.3165 15.7396 56.4404 15.8537 56.5608L17.3057 55.1855C17.1269 54.9967 16.9295 54.8151 16.7157 54.6406L15.4511 56.1901ZM16.35 57.3227C16.391 57.4452 16.4089 57.5593 16.4089 57.6679H18.4089C18.4089 57.3324 18.3525 57.0037 18.2461 56.6866L16.35 57.3227ZM17.4089 56.6679H16.3209V58.6679H17.4089V56.6679ZM14.1448 56.6679H11.9686V58.6679H14.1448V56.6679ZM9.79252 56.6679H7.61641V58.6679H9.79252V56.6679ZM5.44029 56.6679H3.26417V58.6679H5.44029V56.6679ZM1.08806 56.6679H0V58.6679H1.08806V56.6679ZM-1 57.6679V57.668H1V57.6679H-1ZM-1 57.668V57.668H1V57.668H-1ZM0 58.668H0.994382V56.668H0V58.668ZM2.98315 58.668H4.97191V56.668H2.98315V58.668ZM6.96067 58.668H8.94944V56.668H6.96067V58.668ZM10.9382 58.668H12.927V56.668H10.9382V58.668ZM14.9157 58.668H16.9045V56.668H14.9157V58.668ZM18.8933 58.668H20.882V56.668H18.8933V58.668ZM22.8708 58.668H24.8595V56.668H22.8708V58.668ZM26.8483 58.668H28.8371V56.668H26.8483V58.668ZM30.8258 58.668H32.8146V56.668H30.8258V58.668ZM34.8034 58.668H36.7921V56.668H34.8034V58.668ZM38.7809 58.668H40.7697V56.668H38.7809V58.668ZM42.7584 58.668H44.7472V56.668H42.7584V58.668ZM46.736 58.668H48.7247V56.668H46.736V58.668ZM50.7135 58.668H52.7023V56.668H50.7135V58.668ZM54.691 58.668H56.6798V56.668H54.691V58.668ZM58.6686 58.668H60.6573V56.668H58.6686V58.668ZM62.6461 58.668H64.6349V56.668H62.6461V58.668ZM66.6236 58.668H68.6124V56.668H66.6236V58.668ZM70.6011 58.668H72.5899V56.668H70.6011V58.668ZM74.5787 58.668H76.5674V56.668H74.5787V58.668ZM78.5562 58.668H80.545V56.668H78.5562V58.668ZM82.5337 58.668H84.5225V56.668H82.5337V58.668ZM86.5112 58.668H88.5V56.668H86.5112V58.668ZM90.4888 58.668H92.4775V56.668H90.4888V58.668ZM94.4663 58.668H96.455V56.668H94.4663V58.668ZM98.4438 58.668H100.433V56.668H98.4438V58.668ZM102.421 58.668H104.41V56.668H102.421V58.668ZM106.399 58.668H108.388V56.668H106.399V58.668ZM110.376 58.668H112.365V56.668H110.376V58.668ZM114.354 58.668H116.343V56.668H114.354V58.668ZM118.331 58.668H120.32V56.668H118.331V58.668ZM122.309 58.668H124.298V56.668H122.309V58.668ZM126.286 58.668H128.275V56.668H126.286V58.668ZM130.264 58.668H132.253V56.668H130.264V58.668ZM134.242 58.668H136.23V56.668H134.242V58.668ZM138.219 58.668H140.208V56.668H138.219V58.668ZM142.197 58.668H144.185V56.668H142.197V58.668ZM146.174 58.668H148.163V56.668H146.174V58.668ZM150.152 58.668H152.14V56.668H150.152V58.668ZM154.129 58.668H156.118V56.668H154.129V58.668ZM158.107 58.668H160.096V56.668H158.107V58.668ZM162.084 58.668H164.073V56.668H162.084V58.668ZM166.062 58.668H168.051V56.668H166.062V58.668ZM170.039 58.668H172.028V56.668H170.039V58.668ZM174.017 58.668H176.006V56.668H174.017V58.668ZM177.994 58.668H179.983V56.668H177.994V58.668ZM181.972 58.668H183.961V56.668H181.972V58.668ZM185.95 58.668H187.938V56.668H185.95V58.668ZM189.927 58.668H191.916V56.668H189.927V58.668ZM193.905 58.668H195.893V56.668H193.905V58.668ZM197.882 58.668H199.871V56.668H197.882V58.668ZM201.86 58.668H203.848V56.668H201.86V58.668ZM205.837 58.668H207.826V56.668H205.837V58.668ZM209.815 58.668H211.804V56.668H209.815V58.668ZM213.792 58.668H215.781V56.668H213.792V58.668ZM217.77 58.668H219.759V56.668H217.77V58.668ZM221.747 58.668H223.736V56.668H221.747V58.668ZM225.725 58.668H227.714V56.668H225.725V58.668ZM229.702 58.668H231.691V56.668H229.702V58.668ZM233.68 58.668H235.669V56.668H233.68V58.668ZM237.658 58.668H239.646V56.668H237.658V58.668ZM241.635 58.668H243.624V56.668H241.635V58.668ZM245.613 58.668H247.601V56.668H245.613V58.668ZM249.59 58.668H251.579V56.668H249.59V58.668ZM253.568 58.668H255.556V56.668H253.568V58.668ZM257.545 58.668H259.534V56.668H257.545V58.668ZM261.523 58.668H263.512V56.668H261.523V58.668ZM265.5 58.668H267.489V56.668H265.5V58.668ZM269.478 58.668H271.467V56.668H269.478V58.668ZM273.455 58.668H275.444V56.668H273.455V58.668ZM277.433 58.668H279.422V56.668H277.433V58.668ZM281.41 58.668H283.399V56.668H281.41V58.668ZM285.388 58.668H287.377V56.668H285.388V58.668ZM289.366 58.668H291.354V56.668H289.366V58.668ZM293.343 58.668H295.332V56.668H293.343V58.668ZM297.321 58.668H299.309V56.668H297.321V58.668ZM301.298 58.668H303.287V56.668H301.298V58.668ZM305.276 58.668H307.264V56.668H305.276V58.668ZM309.253 58.668H311.242V56.668H309.253V58.668ZM313.231 58.668H315.22V56.668H313.231V58.668ZM317.208 58.668H319.197V56.668H317.208V58.668ZM321.186 58.668H323.175V56.668H321.186V58.668ZM325.163 58.668H327.152V56.668H325.163V58.668ZM329.141 58.668H331.13V56.668H329.141V58.668ZM333.118 58.668H335.107V56.668H333.118V58.668ZM337.096 58.668H339.085V56.668H337.096V58.668ZM341.074 58.668H343.062V56.668H341.074V58.668ZM345.051 58.668H347.04V56.668H345.051V58.668ZM349.029 58.668H351.017V56.668H349.029V58.668ZM353.006 58.668H354V56.668H353.006V58.668ZM355 57.668V56.6502H353V57.668H355ZM355 54.6145V52.5787H353V54.6145H355ZM355 50.543V48.5073H353V50.543H355ZM355 46.4716V44.4359H353V46.4716H355ZM355 42.4002V40.3644H353V42.4002H355ZM355 38.3287V36.293H353V38.3287H355ZM355 34.2573V32.2216H353V34.2573H355ZM355 30.1859V28.1502H353V30.1859H355ZM355 26.1144V24.0787H353V26.1144H355ZM355 22.043V20.0073H353V22.043H355ZM355 17.9716V15.9359H353V17.9716H355ZM355 13.9002V11.8644H353V13.9002H355ZM355 9.82873V7.79302H353V9.82873H355ZM355 5.75731V3.72159H353V5.75731H355ZM355 1.68588V0.668003H353V1.68588H355ZM354.005 -0.331986L354.003 -0.331994L353.993 1.66798L353.995 1.66799L354.005 -0.331986ZM353.999 -0.332011L353.998 -0.33202L353.988 1.66796L353.99 1.66797L353.999 -0.332011ZM352.993 0.667969V2.13954H354.993V0.667969H352.993ZM352.993 5.08268V6.55425H354.993V5.08268H352.993ZM353.993 5.55425C353.719 5.55425 353.446 5.55202 353.174 5.5476L353.141 7.54734C353.424 7.55194 353.708 7.55425 353.993 7.55425V5.55425ZM351.536 5.4942C350.987 5.46719 350.442 5.43113 349.903 5.38619L349.737 7.37927C350.298 7.42613 350.866 7.46368 351.438 7.49179L351.536 5.4942ZM348.277 5.22106C348.005 5.18833 347.735 5.15325 347.468 5.11584L347.19 7.09652C347.471 7.13576 347.753 7.17251 348.038 7.20676L348.277 5.22106ZM347.468 5.11584C346.991 5.04912 346.525 4.97532 346.072 4.89477L345.722 6.86398C346.201 6.94894 346.69 7.02654 347.19 7.09652L347.468 5.11584ZM343.329 4.2865C342.864 4.15967 342.42 4.02489 342 3.88285L341.359 5.77754C341.82 5.93339 342.303 6.07971 342.804 6.2162L343.329 4.2865ZM342 3.88286C341.668 3.77061 341.352 3.65446 341.054 3.53494L340.31 5.39141C340.645 5.52557 340.995 5.65435 341.359 5.77753L342 3.88286ZM339.294 2.67464C339.004 2.49836 338.752 2.32136 338.537 2.1458L337.273 3.6953C337.569 3.93729 337.898 4.16667 338.256 4.38378L339.294 2.67464ZM338.537 2.14579C338.382 2.01939 338.249 1.89549 338.135 1.77513L336.683 3.15045C336.861 3.33926 337.059 3.52082 337.273 3.69531L338.537 2.14579ZM337.638 1.01318C337.597 0.890747 337.579 0.776575 337.579 0.667969H335.579C335.579 1.00348 335.636 1.33218 335.742 1.6493L337.638 1.01318ZM336.579 -0.332031L335.582 -0.332031V1.66797L336.579 1.66797V-0.332031ZM333.587 -0.332031L331.592 -0.332031V1.66797L333.587 1.66797V-0.332031ZM329.598 -0.332031L327.603 -0.33203V1.66797L329.598 1.66797V-0.332031ZM325.608 -0.33203L323.613 -0.33203V1.66797L325.608 1.66797V-0.33203ZM321.618 -0.33203L319.623 -0.33203V1.66797L321.618 1.66797V-0.33203ZM317.629 -0.332029L315.634 -0.332029V1.66797L317.629 1.66797V-0.332029ZM313.639 -0.332029L311.644 -0.332029V1.66797L313.639 1.66797V-0.332029ZM309.649 -0.332029L307.655 -0.332028V1.66797L309.649 1.66797V-0.332029ZM305.66 -0.332028L303.665 -0.332028V1.66797L305.66 1.66797V-0.332028ZM301.67 -0.332028L299.675 -0.332027V1.66797L301.67 1.66797V-0.332028ZM297.68 -0.332027L295.686 -0.332027V1.66797L297.68 1.66797V-0.332027ZM293.691 -0.332027L291.696 -0.332027V1.66797L293.691 1.66797V-0.332027ZM289.701 -0.332026L287.706 -0.332026V1.66797L289.701 1.66797V-0.332026ZM285.712 -0.332026L283.717 -0.332026V1.66797L285.712 1.66797V-0.332026ZM281.722 -0.332026L279.727 -0.332025V1.66797L281.722 1.66797V-0.332026ZM277.732 -0.332025L275.737 -0.332025V1.66797L277.732 1.66797V-0.332025ZM273.743 -0.332025L271.748 -0.332025V1.66798L273.743 1.66798V-0.332025ZM269.753 -0.332024L267.758 -0.332024V1.66798L269.753 1.66798V-0.332024ZM265.763 -0.332024L263.769 -0.332024V1.66798L265.763 1.66798V-0.332024ZM261.774 -0.332024L259.779 -0.332023V1.66798L261.774 1.66798V-0.332024ZM257.784 -0.332023L255.789 -0.332023V1.66798L257.784 1.66798V-0.332023ZM253.795 -0.332023L251.8 -0.332023V1.66798L253.795 1.66798V-0.332023ZM249.805 -0.332022L247.81 -0.332022V1.66798L249.805 1.66798V-0.332022ZM245.815 -0.332022L243.82 -0.332022V1.66798L245.815 1.66798V-0.332022ZM241.826 -0.332022L239.831 -0.332021V1.66798L241.826 1.66798V-0.332022ZM237.836 -0.332021L235.841 -0.332021V1.66798L237.836 1.66798V-0.332021ZM233.846 -0.332021L231.852 -0.332021V1.66798L233.846 1.66798V-0.332021ZM229.857 -0.33202L227.862 -0.33202V1.66798L229.857 1.66798V-0.33202ZM225.867 -0.33202L223.872 -0.33202V1.66798L225.867 1.66798V-0.33202ZM221.878 -0.33202L219.883 -0.332019V1.66798L221.878 1.66798V-0.33202ZM217.888 -0.332019L215.893 -0.332019V1.66798L217.888 1.66798V-0.332019ZM213.898 -0.332019L211.903 -0.332018V1.66798L213.898 1.66798V-0.332019ZM209.909 -0.332018L207.914 -0.332018V1.66798L209.909 1.66798V-0.332018ZM205.919 -0.332018L203.924 -0.332018V1.66798L205.919 1.66798V-0.332018ZM201.929 -0.332017L199.935 -0.332017V1.66798L201.929 1.66798V-0.332017ZM197.94 -0.332017L195.945 -0.332017V1.66798L197.94 1.66798V-0.332017ZM193.95 -0.332017L191.955 -0.332016V1.66798L193.95 1.66798V-0.332017ZM189.961 -0.332016L187.966 -0.332016V1.66798L189.961 1.66798V-0.332016ZM185.971 -0.332016L183.976 -0.332016V1.66798L185.971 1.66798V-0.332016ZM181.981 -0.332015L179.986 -0.332015V1.66798L181.981 1.66798V-0.332015ZM177.992 -0.332015L175.997 -0.332015V1.66799L177.992 1.66798V-0.332015ZM174.002 -0.332015L172.007 -0.332014V1.66799L174.002 1.66799V-0.332015ZM170.012 -0.332014L168.018 -0.332014V1.66799L170.012 1.66799V-0.332014ZM166.023 -0.332014L164.028 -0.332014V1.66799L166.023 1.66799V-0.332014ZM162.033 -0.332013L160.038 -0.332013V1.66799L162.033 1.66799V-0.332013ZM158.044 -0.332013L156.049 -0.332013V1.66799L158.044 1.66799V-0.332013ZM154.054 -0.332013L152.059 -0.332012V1.66799L154.054 1.66799V-0.332013ZM150.064 -0.332012L148.07 -0.332012V1.66799L150.064 1.66799V-0.332012ZM146.075 -0.332012L144.08 -0.332012L144.08 1.66799L146.075 1.66799V-0.332012ZM142.085 -0.332011L140.09 -0.332011V1.66799L142.085 1.66799V-0.332011ZM138.095 -0.332011L136.101 -0.332011V1.66799L138.095 1.66799V-0.332011ZM134.106 -0.332011L132.111 -0.33201V1.66799L134.106 1.66799L134.106 -0.332011ZM130.116 -0.33201L128.121 -0.33201V1.66799L130.116 1.66799V-0.33201ZM126.127 -0.33201L124.132 -0.33201L124.132 1.66799L126.127 1.66799V-0.33201ZM122.137 -0.332009L120.142 -0.332009V1.66799L122.137 1.66799V-0.332009ZM118.147 -0.332009L116.153 -0.332009V1.66799L118.147 1.66799V-0.332009ZM114.158 -0.332009L112.163 -0.332008V1.66799L114.158 1.66799V-0.332009ZM110.168 -0.332008L108.173 -0.332008V1.66799L110.168 1.66799V-0.332008ZM106.178 -0.332008L104.184 -0.332008L104.184 1.66799L106.178 1.66799V-0.332008ZM102.189 -0.332007L100.194 -0.332007V1.66799L102.189 1.66799V-0.332007ZM98.1992 -0.332007L96.2044 -0.332007V1.66799L98.1992 1.66799V-0.332007ZM94.2096 -0.332007L92.2148 -0.332006V1.66799L94.2096 1.66799V-0.332007ZM90.2199 -0.332006L88.2251 -0.332006V1.66799L90.2199 1.66799V-0.332006ZM86.2303 -0.332006L84.2355 -0.332006V1.66799L86.2303 1.66799V-0.332006ZM82.2407 -0.332005L80.2459 -0.332005V1.66799L82.2407 1.66799V-0.332005ZM78.2511 -0.332005L76.2563 -0.332005V1.668L78.2511 1.668V-0.332005ZM74.2614 -0.332004L72.2666 -0.332004V1.668L74.2614 1.668L74.2614 -0.332004ZM70.2718 -0.332004L68.277 -0.332004V1.668L70.2718 1.668V-0.332004ZM66.2822 -0.332004L64.2874 -0.332003V1.668L66.2822 1.668V-0.332004ZM62.2926 -0.332003L60.2978 -0.332003V1.668L62.2926 1.668V-0.332003ZM58.303 -0.332003L56.3081 -0.332003V1.668L58.303 1.668V-0.332003ZM54.3133 -0.332002L52.3185 -0.332002V1.668L54.3133 1.668V-0.332002ZM50.3237 -0.332002L48.3289 -0.332002V1.668L50.3237 1.668V-0.332002ZM46.3341 -0.332002L44.3393 -0.332001V1.668L46.3341 1.668V-0.332002ZM42.3444 -0.332001L40.3496 -0.332001V1.668L42.3444 1.668V-0.332001ZM38.3548 -0.332001L36.36 -0.332001V1.668L38.3548 1.668V-0.332001ZM34.3652 -0.332L32.3704 -0.332V1.668L34.3652 1.668V-0.332ZM30.3756 -0.332L28.3808 -0.332V1.668L30.3756 1.668V-0.332ZM26.386 -0.332L24.3911 -0.331999V1.668L26.386 1.668V-0.332ZM22.3963 -0.331999L20.4015 -0.331999V1.668L22.3963 1.668L22.3963 -0.331999ZM18.4067 -0.331999L17.4089 -0.331999V1.668L18.4067 1.668V-0.331999ZM16.4089 0.667969C16.4089 0.776572 16.391 0.890741 16.35 1.01317L18.2461 1.64933C18.3525 1.33222 18.4089 1.00354 18.4089 0.668033L16.4089 0.667969ZM15.8537 1.77511C15.7397 1.89547 15.606 2.01936 15.4512 2.14576L16.7157 3.69527C16.9295 3.52078 17.1269 3.33923 17.3057 3.15042L15.8537 1.77511ZM15.4512 2.14576C15.236 2.32132 14.984 2.49833 14.6939 2.67461L15.7326 4.38374C16.0899 4.16664 16.4192 3.93726 16.7157 3.69528L15.4512 2.14576ZM12.9341 3.53491C12.6359 3.65443 12.3205 3.77058 11.9884 3.88282L12.6289 5.7775C12.9933 5.65432 13.3434 5.52554 13.6781 5.39138L12.9341 3.53491ZM11.9884 3.88282C11.5682 4.02486 11.1244 4.15965 10.6588 4.28648L11.1844 6.21617C11.6855 6.07968 12.1678 5.93336 12.6289 5.7775L11.9884 3.88282ZM7.91671 4.89474C7.46295 4.97529 6.99716 5.04909 6.52066 5.11581L6.79799 7.09649C7.29778 7.02651 7.78766 6.94891 8.26626 6.86395L7.91671 4.89474ZM6.52066 5.11581C6.25367 5.15319 5.98402 5.18825 5.71201 5.22096L5.95077 7.20666C6.23542 7.17243 6.51792 7.1357 6.79799 7.09649L6.52066 5.11581ZM4.08694 5.38603C3.54871 5.43095 3.00399 5.46701 2.45476 5.49403L2.55306 7.49161C3.12462 7.46349 3.69203 7.42594 4.2533 7.37909L4.08694 5.38603ZM0.81862 5.5475C0.546207 5.55195 0.273227 5.55419 -8.76373e-05 5.55421L8.76373e-05 7.55421C0.284218 7.55419 0.568015 7.55186 0.851243 7.54724L0.81862 5.5475ZM337.273 54.6406C337.059 54.8151 336.861 54.9967 336.683 55.1855L338.135 56.5608C338.249 56.4405 338.382 56.3166 338.537 56.1902L337.273 54.6406ZM335.742 56.6867C335.636 57.0038 335.579 57.3325 335.579 57.668H337.579C337.579 57.5594 337.597 57.4452 337.638 57.3228L335.742 56.6867ZM336.579 58.668H337.668V56.668H336.579V58.668ZM339.844 58.668H342.021V56.668H339.844V58.668ZM344.198 58.668H346.374V56.668H344.198V58.668ZM348.551 58.668H350.728V56.668H348.551V58.668ZM352.904 58.668H353.993V56.668H352.904V58.668ZM354.993 57.668V56.1964H352.993V57.668H354.993ZM354.993 53.2533V51.7817H352.993V53.2533H354.993ZM353.993 50.7817C353.708 50.7817 353.424 50.784 353.141 50.7886L353.174 52.7884C353.446 52.7839 353.719 52.7817 353.993 52.7817V50.7817ZM351.438 50.8442C350.866 50.8723 350.298 50.9098 349.737 50.9567L349.903 52.9498C350.442 52.9048 350.987 52.8688 351.536 52.8418L351.438 50.8442ZM348.038 51.1292C347.753 51.1634 347.471 51.2002 347.19 51.2394L347.468 53.2201C347.735 53.1827 348.005 53.1476 348.277 53.1149L348.038 51.1292ZM347.19 51.2394C346.69 51.3094 346.201 51.387 345.722 51.472L346.072 53.4412C346.525 53.3606 346.991 53.2868 347.468 53.2201L347.19 51.2394ZM342.804 52.1198C342.303 52.2562 341.82 52.4026 341.359 52.5584L342 54.4531C342.42 54.3111 342.864 54.1763 343.329 54.0494L342.804 52.1198ZM341.359 52.5584C340.995 52.6816 340.645 52.8104 340.31 52.9445L341.054 54.801C341.352 54.6815 341.668 54.5653 342 54.4531L341.359 52.5584ZM338.256 53.9522C337.898 54.1693 337.569 54.3987 337.273 54.6407L338.537 56.1902C338.752 56.0146 339.004 55.8376 339.294 55.6613L338.256 53.9522Z" fill="white" mask="url(#path-1-inside-1_642_2825)"/>
</svg>
