<svg width="24" height="24" viewBox="0 0 24 24" fill="none" xmlns="http://www.w3.org/2000/svg" >
<path d="M19 4.00012H17V3.00012C17 2.73491 16.8946 2.48055 16.7071 2.29302C16.5196 2.10548 16.2652 2.00012 16 2.00012C15.7348 2.00012 15.4804 2.10548 15.2929 2.29302C15.1054 2.48055 15 2.73491 15 3.00012V4.00012H9V3.00012C9 2.73491 8.89464 2.48055 8.70711 2.29302C8.51957 2.10548 8.26522 2.00012 8 2.00012C7.73478 2.00012 7.48043 2.10548 7.29289 2.29302C7.10536 2.48055 7 2.73491 7 3.00012V4.00012H5C4.20435 4.00012 3.44129 4.31619 2.87868 4.8788C2.31607 5.44141 2 6.20447 2 7.00012V19.0001C2 19.7958 2.31607 20.5588 2.87868 21.1214C3.44129 21.6841 4.20435 22.0001 5 22.0001H19C19.7956 22.0001 20.5587 21.6841 21.1213 21.1214C21.6839 20.5588 22 19.7958 22 19.0001V7.00012C22 6.20447 21.6839 5.44141 21.1213 4.8788C20.5587 4.31619 19.7956 4.00012 19 4.00012ZM20 19.0001C20 19.2653 19.8946 19.5197 19.7071 19.7072C19.5196 19.8948 19.2652 20.0001 19 20.0001H5C4.73478 20.0001 4.48043 19.8948 4.29289 19.7072C4.10536 19.5197 4 19.2653 4 19.0001V12.0001H20V19.0001ZM20 10.0001H4V7.00012C4 6.73491 4.10536 6.48055 4.29289 6.29302C4.48043 6.10548 4.73478 6.00012 5 6.00012H7V7.00012C7 7.26534 7.10536 7.51969 7.29289 7.70723C7.48043 7.89476 7.73478 8.00012 8 8.00012C8.26522 8.00012 8.51957 7.89476 8.70711 7.70723C8.89464 7.51969 9 7.26534 9 7.00012V6.00012H15V7.00012C15 7.26534 15.1054 7.51969 15.2929 7.70723C15.4804 7.89476 15.7348 8.00012 16 8.00012C16.2652 8.00012 16.5196 7.89476 16.7071 7.70723C16.8946 7.51969 17 7.26534 17 7.00012V6.00012H19C19.2652 6.00012 19.5196 6.10548 19.7071 6.29302C19.8946 6.48055 20 6.73491 20 7.00012V10.0001Z" fill="#93F2B1"/>
</svg>
