<svg width="13" height="13" viewBox="0 0 13 13" fill="none" xmlns="http://www.w3.org/2000/svg">
<mask id="mask0_1756_380" style="mask-type:alpha" maskUnits="userSpaceOnUse" x="0" y="0" width="13" height="13">
<rect x="0.4375" y="0.368164" width="12.4" height="12.4" fill="#D9D9D9"/>
</mask>
<g mask="url(#mask0_1756_380)">
<path d="M7.52885 11.218L4.05426 7.6013V6.56797H5.8626C6.31899 6.56797 6.71294 6.41943 7.04447 6.12234C7.376 5.82526 7.57621 5.45714 7.6451 5.01797H3.5376V3.98464H7.4901C7.34371 3.68325 7.12628 3.43568 6.83781 3.24193C6.54933 3.04818 6.22426 2.9513 5.8626 2.9513H3.5376V1.91797H9.7376V2.9513H8.05843C8.17899 3.09769 8.28663 3.257 8.38135 3.42922C8.47607 3.60144 8.54926 3.78658 8.60093 3.98464H9.7376V5.01797H8.69135C8.62246 5.74991 8.32107 6.36345 7.78718 6.85859C7.25329 7.35373 6.61176 7.6013 5.8626 7.6013H5.48801L8.9626 11.218H7.52885Z" fill="#93F2B1"/>
</g>
</svg>
