<svg width="24" height="19" viewBox="0 0 24 19" fill="none" xmlns="http://www.w3.org/2000/svg">
<path fill-rule="evenodd" clip-rule="evenodd" d="M5.41392 7.06617C6.13081 7.06617 6.81834 6.78139 7.32525 6.27447C7.83217 5.76755 8.11695 5.08003 8.11695 4.36314C8.11695 3.64625 7.83217 2.95872 7.32525 2.45181C6.81834 1.94489 6.13081 1.66011 5.41392 1.66011C4.69703 1.66011 4.00951 1.94489 3.50259 2.45181C2.99567 2.95872 2.71089 3.64625 2.71089 4.36314C2.71089 5.08003 2.99567 5.76755 3.50259 6.27447C4.00951 6.78139 4.69703 7.06617 5.41392 7.06617ZM5.41392 8.41768C5.94637 8.41768 6.47361 8.31281 6.96553 8.10905C7.45745 7.90529 7.90442 7.60664 8.28092 7.23014C8.65742 6.85364 8.95607 6.40667 9.15983 5.91475C9.36359 5.42283 9.46847 4.89559 9.46847 4.36314C9.46847 3.83069 9.36359 3.30345 9.15983 2.81153C8.95607 2.31961 8.65742 1.87264 8.28092 1.49614C7.90442 1.11964 7.45745 0.820988 6.96553 0.617228C6.47361 0.413468 5.94637 0.308594 5.41392 0.308594C4.33859 0.308594 3.3073 0.735768 2.54692 1.49614C1.78655 2.25652 1.35938 3.28781 1.35938 4.36314C1.35938 5.43847 1.78655 6.46976 2.54692 7.23014C3.3073 7.99051 4.33859 8.41768 5.41392 8.41768Z" fill="#93F2B1" stroke="#93F2B1" stroke-width="0.5"/>
<path fill-rule="evenodd" clip-rule="evenodd" d="M3.86115 6.92625C3.92408 6.98902 3.97401 7.06359 4.00808 7.14569C4.04215 7.22779 4.05968 7.3158 4.05968 7.40469C4.05968 7.49357 4.04215 7.58158 4.00808 7.66368C3.97401 7.74578 3.92408 7.82035 3.86115 7.88312L3.40434 8.33858C2.52523 9.21794 2.03132 10.4104 2.0312 11.6538V14.1623C2.0312 14.3415 1.96001 14.5134 1.83328 14.6401C1.70655 14.7668 1.53467 14.838 1.35545 14.838C1.17622 14.838 1.00434 14.7668 0.877612 14.6401C0.750883 14.5134 0.679688 14.3415 0.679688 14.1623V11.6538C0.679879 10.052 1.31623 8.51582 2.44882 7.38306L2.90428 6.92625C2.96705 6.86332 3.04162 6.81339 3.12372 6.77932C3.20582 6.74526 3.29383 6.72772 3.38272 6.72772C3.4716 6.72772 3.55962 6.74526 3.64171 6.77932C3.72381 6.81339 3.79838 6.86332 3.86115 6.92625ZM19.7982 6.52079C19.7353 6.58357 19.6854 6.65814 19.6513 6.74024C19.6172 6.82233 19.5997 6.91035 19.5997 6.99923C19.5997 7.08812 19.6172 7.17613 19.6513 7.25823C19.6854 7.34033 19.7353 7.4149 19.7982 7.47767L20.255 7.93313C20.6904 8.3685 21.0357 8.88536 21.2713 9.45419C21.5069 10.023 21.6282 10.6327 21.6282 11.2484V14.1623C21.6282 14.3415 21.6994 14.5134 21.8261 14.6401C21.9528 14.7668 22.1247 14.838 22.3039 14.838C22.4832 14.838 22.655 14.7668 22.7818 14.6401C22.9085 14.5134 22.9797 14.3415 22.9797 14.1623V11.2484C22.9795 9.64655 22.3431 8.11036 21.2106 6.97761L20.7551 6.52079C20.6923 6.45786 20.6177 6.40794 20.5357 6.37387C20.4536 6.3398 20.3655 6.32227 20.2767 6.32227C20.1878 6.32227 20.0998 6.3398 20.0177 6.37387C19.9356 6.40794 19.861 6.45786 19.7982 6.52079Z" fill="#93F2B1" stroke="#93F2B1" stroke-width="0.5"/>
<path fill-rule="evenodd" clip-rule="evenodd" d="M17.5699 7.06617C16.853 7.06617 16.1655 6.78139 15.6586 6.27447C15.1517 5.76755 14.8669 5.08003 14.8669 4.36314C14.8669 3.64625 15.1517 2.95872 15.6586 2.45181C16.1655 1.94489 16.853 1.66011 17.5699 1.66011C18.2868 1.66011 18.9743 1.94489 19.4813 2.45181C19.9882 2.95872 20.273 3.64625 20.273 4.36314C20.273 5.08003 19.9882 5.76755 19.4813 6.27447C18.9743 6.78139 18.2868 7.06617 17.5699 7.06617ZM17.5699 8.41768C17.0375 8.41768 16.5102 8.31281 16.0183 8.10905C15.5264 7.90529 15.0794 7.60664 14.7029 7.23014C14.3264 6.85364 14.0278 6.40667 13.824 5.91475C13.6203 5.42283 13.5154 4.89559 13.5154 4.36314C13.5154 3.83069 13.6203 3.30345 13.824 2.81153C14.0278 2.31961 14.3264 1.87264 14.7029 1.49614C15.0794 1.11964 15.5264 0.820988 16.0183 0.617228C16.5102 0.413468 17.0375 0.308594 17.5699 0.308594C18.6453 0.308594 19.6766 0.735768 20.4369 1.49614C21.1973 2.25652 21.6245 3.28781 21.6245 4.36314C21.6245 5.43847 21.1973 6.46976 20.4369 7.23014C19.6766 7.99051 18.6453 8.41768 17.5699 8.41768ZM11.4881 12.8101C10.592 12.8101 9.7326 13.1661 9.09895 13.7997C8.46531 14.4334 8.10933 15.2928 8.10933 16.1889V17.9459C8.10933 18.1251 8.03813 18.297 7.9114 18.4237C7.78467 18.5504 7.61279 18.6216 7.43357 18.6216C7.25435 18.6216 7.08247 18.5504 6.95574 18.4237C6.82901 18.297 6.75781 18.1251 6.75781 17.9459V16.1889C6.75781 14.9343 7.25618 13.7312 8.14329 12.8441C9.03039 11.957 10.2336 11.4586 11.4881 11.4586C12.7427 11.4586 13.9458 11.957 14.8329 12.8441C15.72 13.7312 16.2184 14.9343 16.2184 16.1889V17.9459C16.2184 18.1251 16.1472 18.297 16.0205 18.4237C15.8938 18.5504 15.7219 18.6216 15.5427 18.6216C15.3634 18.6216 15.1916 18.5504 15.0648 18.4237C14.9381 18.297 14.8669 18.1251 14.8669 17.9459V16.1889C14.8669 15.7452 14.7795 15.3058 14.6097 14.8959C14.4399 14.486 14.191 14.1135 13.8773 13.7997C13.5635 13.486 13.1911 13.2371 12.7811 13.0673C12.3712 12.8975 11.9318 12.8101 11.4881 12.8101Z" fill="#93F2B1" stroke="#93F2B1" stroke-width="0.5"/>
<path fill-rule="evenodd" clip-rule="evenodd" d="M11.492 10.783C12.2089 10.783 12.8965 10.4982 13.4034 9.99127C13.9103 9.48435 14.1951 8.79682 14.1951 8.07994C14.1951 7.36305 13.9103 6.67552 13.4034 6.16861C12.8965 5.66169 12.2089 5.37691 11.492 5.37691C10.7752 5.37691 10.0876 5.66169 9.58071 6.16861C9.0738 6.67552 8.78902 7.36305 8.78902 8.07994C8.78902 8.79682 9.0738 9.48435 9.58071 9.99127C10.0876 10.4982 10.7752 10.783 11.492 10.783ZM11.492 12.1345C12.5674 12.1345 13.5987 11.7073 14.359 10.9469C15.1194 10.1866 15.5466 9.15527 15.5466 8.07994C15.5466 7.0046 15.1194 5.97331 14.359 5.21294C13.5987 4.45256 12.5674 4.02539 11.492 4.02539C10.4167 4.02539 9.38542 4.45256 8.62505 5.21294C7.86467 5.97331 7.4375 7.0046 7.4375 8.07994C7.4375 9.15527 7.86467 10.1866 8.62505 10.9469C9.38542 11.7073 10.4167 12.1345 11.492 12.1345Z" fill="#93F2B1" stroke="#93F2B1" stroke-width="0.5"/>
</svg>
