<svg width="24" height="24" viewBox="0 0 24 24" fill="none" xmlns="http://www.w3.org/2000/svg">
<path d="M12 13.0001C13.6569 13.0001 15 11.657 15 10.0001C15 8.34327 13.6569 7.00012 12 7.00012C10.3431 7.00012 9 8.34327 9 10.0001C9 11.657 10.3431 13.0001 12 13.0001Z" stroke="#93F2B1" stroke-width="2" stroke-linecap="round" stroke-linejoin="round"/>
<path d="M12 2.00012C9.87827 2.00012 7.84344 2.84298 6.34315 4.34327C4.84285 5.84356 4 7.87839 4 10.0001C4 11.8921 4.402 13.1301 5.5 14.5001L12 22.0001L18.5 14.5001C19.598 13.1301 20 11.8921 20 10.0001C20 7.87839 19.1571 5.84356 17.6569 4.34327C16.1566 2.84298 14.1217 2.00012 12 2.00012V2.00012Z" stroke="#93F2B1" stroke-width="2" stroke-linecap="round" stroke-linejoin="round"/>
</svg>
