<svg width="32" height="33" viewBox="0 0 32 33" fill="none" xmlns="http://www.w3.org/2000/svg">
<circle cx="15.9993" cy="16.6068" r="13.3333" fill="black"/>
<path fill-rule="evenodd" clip-rule="evenodd" d="M20.6127 11.3427C20.2177 11.5327 19.8136 11.7271 19.4339 11.9494C19.2844 12.0366 19.1345 12.1227 18.9842 12.2078C18.6937 12.3718 18.3998 12.549 18.1026 12.7393C18.0955 12.7437 18.0915 12.748 18.0874 12.7523C18.0833 12.7567 18.0792 12.7611 18.0717 12.7659C17.4617 13.1577 16.9111 13.5253 16.4201 13.8687C14.6891 15.079 12.9307 16.4346 11.1449 17.9355C11.1367 17.9424 11.128 17.9491 11.1193 17.9558C11.0763 17.9886 11.0338 18.0212 11.0483 18.0848C11.0641 18.1552 11.1058 18.2039 11.1734 18.2309C11.3021 18.2826 11.3876 18.3083 11.4301 18.308C11.8453 18.3071 12.2581 18.307 12.6686 18.3077C12.7793 18.3077 12.8214 18.3616 12.7951 18.4694C12.7843 18.5139 12.7738 18.5587 12.7634 18.6035C12.725 18.7684 12.6864 18.9346 12.6238 19.0919C12.3342 19.8207 11.9478 20.5115 11.4645 21.1644C11.2029 21.5181 10.8673 21.8206 10.4421 21.9173C10.2613 21.9586 10.0613 21.985 9.84208 21.9966C9.28396 22.0261 8.76281 21.8978 8.33409 21.5757C8.04117 21.356 7.76957 21.1125 7.49869 20.8647C7.48518 20.8524 7.47131 20.8519 7.45709 20.8633L7.34405 20.9554C7.33125 20.9656 7.33066 20.9766 7.34227 20.9884C7.3447 20.991 7.34714 20.9935 7.34957 20.996C7.3667 21.0135 7.38359 21.0309 7.39666 21.0521C7.755 21.6369 8.16452 22.2334 8.67856 22.6585C8.9761 22.9049 9.30778 23.0112 9.71055 23.003C9.91886 22.9985 10.1306 22.9986 10.3458 23.0034C10.7386 23.0122 11.1169 22.8629 11.4596 22.6589C12.3936 22.1027 13.0523 21.2115 13.7001 20.3351L13.7219 20.3055C13.8769 20.0958 14.0625 19.9038 14.2914 19.7858C14.3623 19.7491 14.4656 19.7144 14.6014 19.6817C14.7936 19.6352 15.0019 19.5833 15.2263 19.5259C15.5806 19.4352 15.788 19.379 15.8484 19.3574C16.3714 19.1697 16.8328 18.7556 17.1186 18.2725C17.1524 18.2154 17.1917 18.1555 17.2324 18.0934C17.3638 17.8929 17.5099 17.6701 17.5317 17.4492C17.5968 16.7932 17.4912 16.411 17.1161 15.9248C16.981 15.7497 16.8817 15.6031 16.8182 15.4851C16.7404 15.3404 16.793 15.1922 16.9181 15.0837C17.162 14.8726 17.4086 14.6865 17.6579 14.5256C18.325 14.0957 19.1672 13.5707 20.1844 12.9504C20.3191 12.8687 20.4631 12.8029 20.607 12.7411C20.9678 12.5863 21.3297 12.8013 21.7042 12.7598C22.0971 12.7162 22.5962 12.797 22.8868 12.4776C23.2356 12.0923 23.601 11.6928 23.9828 11.2793C24.0652 11.1904 24.1527 11.0525 24.1687 10.9426C24.1784 10.8744 24.19 10.8055 24.2035 10.7361C24.2057 10.7245 24.2013 10.7165 24.1904 10.7123C24.152 10.6973 24.1123 10.6857 24.0713 10.6774C23.2714 10.5164 22.457 10.649 21.6692 10.9135C21.3047 11.036 20.9543 11.1782 20.6181 11.3401L20.6127 11.3427ZM15.2804 17.8143C15.6383 17.8136 15.9796 17.7531 16.1538 17.4072C16.3114 17.0946 16.3297 16.7652 16.2086 16.419C16.0891 16.0777 15.7233 16.2206 15.5381 16.3934C15.2554 16.6571 14.9872 16.9162 14.7336 17.1705C14.5598 17.3447 14.4382 17.5352 14.3255 17.7467C14.3229 17.7516 14.3215 17.7571 14.3214 17.7627C14.3213 17.7683 14.3226 17.7738 14.325 17.7788C14.3275 17.7838 14.3311 17.7881 14.3356 17.7914C14.3401 17.7948 14.3453 17.797 14.3508 17.7979C14.4083 17.8076 14.4645 17.8126 14.5193 17.8128C14.7572 17.8143 15.0109 17.8147 15.2804 17.8143Z" fill="#D5FD4A"/>
</svg>
