<svg width="47" height="46" viewBox="0 0 47 46" fill="none" xmlns="http://www.w3.org/2000/svg">
<circle cx="23.5793" cy="23.1955" r="22.7677" fill="white"/>
<path d="M29.2711 34.5793C28.3225 34.5793 27.5161 34.2472 26.852 33.5832C26.188 32.9191 25.856 32.1128 25.856 31.1641C25.856 31.0313 25.8654 30.8936 25.8844 30.7509C25.9034 30.6082 25.9319 30.4803 25.9698 30.3672L17.9442 25.6998C17.6216 25.9844 17.2611 26.2076 16.8627 26.3692C16.4643 26.5309 16.0469 26.6113 15.6105 26.6106C14.6618 26.6106 13.8555 26.2785 13.1914 25.6145C12.5273 24.9504 12.1953 24.1441 12.1953 23.1954C12.1953 22.2467 12.5273 21.4404 13.1914 20.7763C13.8555 20.1123 14.6618 19.7802 15.6105 19.7802C16.0469 19.7802 16.4643 19.8611 16.8627 20.0227C17.2611 20.1844 17.6216 20.4071 17.9442 20.6909L25.9698 16.0236C25.9319 15.9097 25.9034 15.7818 25.8844 15.6399C25.8654 15.498 25.856 15.3603 25.856 15.2267C25.856 14.278 26.188 13.4717 26.852 12.8076C27.5161 12.1436 28.3225 11.8115 29.2711 11.8115C30.2198 11.8115 31.0261 12.1436 31.6902 12.8076C32.3543 13.4717 32.6863 14.278 32.6863 15.2267C32.6863 16.1753 32.3543 16.9817 31.6902 17.6458C31.0261 18.3098 30.2198 18.6418 29.2711 18.6418C28.8347 18.6418 28.4173 18.5614 28.0189 18.4005C27.6205 18.2396 27.26 18.0165 26.9374 17.7311L18.9118 22.3985C18.9497 22.5124 18.9782 22.6406 18.9972 22.7833C19.0162 22.926 19.0256 23.0633 19.0256 23.1954C19.0256 23.3282 19.0162 23.466 18.9972 23.6086C18.9782 23.7513 18.9497 23.8792 18.9118 23.9923L26.9374 28.6597C27.26 28.3751 27.6205 28.1523 28.0189 27.9914C28.4173 27.8305 28.8347 27.7497 29.2711 27.7489C30.2198 27.7489 31.0261 28.081 31.6902 28.745C32.3543 29.4091 32.6863 30.2155 32.6863 31.1641C32.6863 32.1128 32.3543 32.9191 31.6902 33.5832C31.0261 34.2472 30.2198 34.5793 29.2711 34.5793Z" fill="#333333"/>
</svg>
