<svg width="19" height="10" viewBox="0 0 19 10" fill="none" xmlns="http://www.w3.org/2000/svg">
<path fill-rule="evenodd" clip-rule="evenodd" d="M18.6899 0.293683C18.5919 0.200589 18.4754 0.12673 18.3472 0.0763352C18.219 0.0259403 18.0816 0 17.9427 0C17.8039 0 17.6665 0.0259403 17.5382 0.0763352C17.41 0.12673 17.2936 0.200589 17.1955 0.293683L9.49972 7.58508L1.80392 0.293683C1.60574 0.105976 1.33697 0.000524155 1.05671 0.000524155C0.776453 0.000524155 0.507675 0.105976 0.309503 0.293683C0.111332 0.481389 0 0.735973 0 1.00143C0 1.26689 0.111332 1.52147 0.309503 1.70918L8.75252 9.70632C8.85055 9.79941 8.96701 9.87327 9.09523 9.92367C9.22345 9.97406 9.36091 10 9.49972 10C9.63854 10 9.776 9.97406 9.90422 9.92367C10.0324 9.87327 10.1489 9.79941 10.2469 9.70632L18.6899 1.70918C18.7882 1.61632 18.8662 1.50601 18.9194 1.38456C18.9726 1.26311 19 1.13292 19 1.00143C19 0.869942 18.9726 0.739746 18.9194 0.618299C18.8662 0.496852 18.7882 0.386541 18.6899 0.293683Z" fill="#949999"/>
</svg>
