<svg width="1977" height="629" viewBox="0 0 1977 629" fill="none" xmlns="http://www.w3.org/2000/svg">
<path fill-rule="evenodd" clip-rule="evenodd" d="M71.25 0.749866C97.7448 -0.701284 122.745 4.71537 146.25 16.9999C159.814 27.2766 166.897 41.0266 167.5 58.2499C168.663 61.8269 170.747 64.7436 173.75 66.9999C214.577 66.6916 255.41 66.6916 296.25 66.9999C341.172 67.5286 382.84 79.1951 421.25 102C473.682 142.697 479.932 189.78 440 243.25C416.453 267.795 391.87 291.545 366.25 314.5C339.867 332.99 313.2 350.905 286.25 368.25C292.728 375.665 300.228 381.915 308.75 387C337.082 402.832 365.418 418.667 393.75 434.5C400.193 437.625 406.858 438.46 413.75 437C438.467 414.782 460.552 390.2 480 363.25C496.875 335.327 514.375 307.827 532.5 280.75C541.177 269.527 552.427 264.945 566.25 267C584.542 275.88 603.292 283.795 622.5 290.75C644.612 280.315 665.862 268.23 686.25 254.5C704.453 243.59 723.617 241.091 743.75 247C758.96 254.722 771.878 265.14 782.5 278.25C784.167 284.917 784.167 291.582 782.5 298.25C764.367 328.677 746.867 359.51 730 390.75C726.37 398.842 723.453 407.175 721.25 415.75C722.708 419.505 724.79 422.837 727.5 425.75C774.208 368.57 818.79 309.82 861.25 249.5C868.86 244.692 877.193 242.61 886.25 243.25C906.922 247.345 927.755 248.595 948.75 247C962.51 241.568 975.01 234.068 986.25 224.5C1008.72 216.912 1028.72 221.078 1046.25 237C1053.43 243.342 1059.68 250.425 1065 258.25C1066.67 264.917 1066.67 271.582 1065 278.25C1047.87 302.49 1029.54 325.825 1010 348.25C1001.67 361.582 993.333 374.917 985 388.25C979.755 402.057 976.005 416.222 973.75 430.75C985.372 432.162 997.04 433.412 1008.75 434.5C1025.32 435.905 1030.73 444.655 1025 460.75C1019.46 474.857 1009.04 482.775 993.75 484.5C965.975 491.36 943.893 483.445 927.5 460.75C921.81 435.012 920.977 409.18 925 383.25C931.53 358.547 939.448 334.38 948.75 310.75C930.662 306.302 912.33 305.052 893.75 307C887.51 309.7 881.675 313.035 876.25 317C845.833 357.417 815.417 397.832 785 438.25C760.352 461.597 734.102 482.847 706.25 502C696.34 506.607 685.925 508.692 675 508.25C654.135 506.16 633.72 501.995 613.75 495.75C595.115 500.895 577.615 508.812 561.25 519.5C542.86 527.542 523.695 530.042 503.75 527C492.535 521.155 481.703 514.905 471.25 508.25C459.255 519.815 446.755 531.065 433.75 542C412.733 546.91 391.897 546.077 371.25 539.5C369.242 528.465 367.992 517.215 367.5 505.75C366.337 502.172 364.253 499.257 361.25 497C306.908 460.245 249.408 429.412 188.75 404.5C178.777 397.467 174.61 387.885 176.25 375.75C176.267 368.02 177.517 360.52 180 353.25C185.417 347.832 190.833 342.417 196.25 337C244.444 303.942 291.527 269.36 337.5 233.25C346.855 217.377 348.522 200.711 342.5 183.25C325.348 167.395 304.932 158.645 281.25 157C245.438 154.251 209.605 151.751 173.75 149.5C164.29 146.822 154.706 144.739 145 143.25C113.539 153.924 81.4557 156.008 48.75 149.5C27.0915 138.327 15.0082 120.41 12.5 95.7499C12.5087 51.4956 32.092 19.8289 71.25 0.749866ZM616.25 315.75C619.682 315.357 623.018 315.775 626.25 317C640.218 326.275 653.968 335.857 667.5 345.75C669.167 349.082 669.167 352.417 667.5 355.75C656.032 374.51 645.2 393.677 635 413.25C629.68 421.075 623.43 428.157 616.25 434.5C592.807 449.972 567.807 462.055 541.25 470.75C536.497 446.755 538.583 423.42 547.5 400.75C570.003 372.007 592.917 343.675 616.25 315.75Z" fill="black"/>
<path fill-rule="evenodd" clip-rule="evenodd" d="M1881.25 38.25C1884.55 45.1437 1886.21 53.0605 1886.25 62C1885.83 69.9167 1885.42 77.8333 1885 85.75C1865.16 111.852 1843.91 136.852 1821.25 160.75C1826.93 170.185 1834.01 178.518 1842.5 185.75C1853.29 205.292 1854.12 225.292 1845 245.75C1842.74 248.753 1839.83 250.837 1836.25 252C1810.37 255.178 1787.87 248.092 1768.75 230.75C1724.64 256.94 1689.23 291.94 1662.5 335.75C1658.28 352.418 1662.86 356.168 1676.25 347C1690.48 338.217 1703.81 328.217 1716.25 317C1731.39 300.198 1747.22 284.365 1763.75 269.5C1784.17 264.117 1804.17 265.367 1823.75 273.25C1824.14 276.682 1823.73 280.018 1822.5 283.25C1812.13 303.642 1801.71 324.057 1791.25 344.5C1793.22 349.47 1796.97 352.385 1802.5 353.25C1816.7 348.027 1830.45 341.777 1843.75 334.5C1869.58 317 1895.42 299.5 1921.25 282C1939.5 277.425 1957.84 277.008 1976.25 280.75C1974.12 287.557 1971.2 294.225 1967.5 300.75C1943.74 325.34 1919.16 349.09 1893.75 372C1865.42 392.408 1833.75 401.99 1798.75 400.75C1771.38 396.462 1743.88 394.38 1716.25 394.5C1692.93 403.75 1668.77 410 1643.75 413.25C1621.56 411.693 1603.22 402.525 1588.75 385.75C1578.59 398.547 1569 411.88 1560 425.75C1550.33 436.255 1539.92 445.837 1528.75 454.5C1496.64 466.485 1464.14 477.32 1431.25 487C1404.91 520.527 1377.41 553.028 1348.75 584.5C1330.9 602.195 1310.06 615.53 1286.25 624.5C1261.38 628.328 1236.38 629.162 1211.25 627C1201.14 624.86 1191.97 620.695 1183.75 614.5C1158.71 591.145 1137.46 564.895 1120 535.75C1117.18 531.138 1115.93 526.138 1116.25 520.75C1121.96 521.02 1126.96 523.103 1131.25 527C1151.67 549.277 1175.84 565.945 1203.75 577C1245.71 587.18 1280.29 575.93 1307.5 543.25C1335.04 506.087 1355.45 465.255 1368.75 420.75C1368.23 419.285 1367.39 418.035 1366.25 417C1341.9 416.802 1317.73 415.138 1293.75 412C1288.69 404.043 1287.44 395.293 1290 385.75C1305.32 364.595 1323.24 345.845 1343.75 329.5C1367.08 316.168 1390.42 302.832 1413.75 289.5C1424.87 281.357 1432.37 270.94 1436.25 258.25C1432.82 257.857 1429.48 258.275 1426.25 259.5C1400.2 280.647 1371.45 296.897 1340 308.25C1329.37 306.79 1319.37 303.457 1310 298.25C1294.29 303.943 1281.38 313.525 1271.25 327C1264.43 332.98 1256.93 337.98 1248.75 342C1224.31 345.858 1200.15 350.858 1176.25 357C1161.07 370.522 1160.23 384.688 1173.75 399.5C1190.49 399.835 1207.15 398.585 1223.75 395.75C1246.36 397.1 1255.11 408.767 1250 430.75C1245.93 442.155 1238.02 449.237 1226.25 452C1190.43 460.112 1156.26 455.945 1123.75 439.5C1110.25 430.36 1100.67 418.277 1095 403.25C1095.66 383.28 1095.66 363.28 1095 343.25C1089.33 331.755 1082.66 320.922 1075 310.75C1073.77 306.665 1073.35 302.497 1073.75 298.25C1093.38 297.69 1112.54 294.772 1131.25 289.5C1164.43 255.41 1202.77 228.744 1246.25 209.5C1262.15 204.792 1277.98 204.792 1293.75 209.5C1298.22 211.461 1301.97 214.378 1305 218.25C1309.08 227.147 1314.08 235.48 1320 243.25C1345.57 227.751 1371.82 213.168 1398.75 199.5C1429.65 184.491 1462.15 179.491 1496.25 184.5C1504.15 188.033 1511.65 192.199 1518.75 197C1525.42 198.667 1532.08 198.667 1538.75 197C1580.57 172.746 1623.07 149.412 1666.25 127C1699.51 100.366 1734.51 76.199 1771.25 54.5C1802.68 49.133 1834.35 45.7995 1866.25 44.5C1872.44 44.4082 1877.44 42.325 1881.25 38.25ZM1736.25 160.75C1740.22 162.37 1744.38 163.62 1748.75 164.5C1752.08 166.167 1752.08 167.833 1748.75 169.5C1678.31 200.762 1624.56 250.345 1587.5 318.25C1583.05 320.698 1578.89 319.865 1575 315.75C1568.33 305.75 1561.67 295.75 1555 285.75C1552.06 276.35 1554.98 269.268 1563.75 264.5C1618.71 225.011 1676.21 190.427 1736.25 160.75ZM1248.75 268.25C1250.94 267.923 1252.61 268.755 1253.75 270.75C1245.35 294.592 1228.68 307.51 1203.75 309.5C1206 304.02 1208.5 298.605 1211.25 293.25C1216.25 289.917 1220.42 285.75 1223.75 280.75C1232.34 276.535 1240.68 272.367 1248.75 268.25ZM1501.25 323.25C1507.14 322.842 1512.98 323.258 1518.75 324.5C1525.93 342.717 1525.1 360.633 1516.25 378.25C1512.43 381.652 1508.26 384.57 1503.75 387C1483.7 389.08 1463.7 388.663 1443.75 385.75C1448.68 377.9 1454.1 370.4 1460 363.25C1475.14 351.02 1488.89 337.685 1501.25 323.25Z" fill="black"/>
<path fill-rule="evenodd" clip-rule="evenodd" d="M638.75 100.75C670.452 96.4106 695.037 107.244 712.5 133.25C716.083 201.283 683.998 228.367 616.25 214.5C593.997 208.488 582.332 193.905 581.25 170.75C584.043 133.805 603.208 110.472 638.75 100.75Z" fill="black"/>
<path fill-rule="evenodd" clip-rule="evenodd" d="M1073.75 113.25C1110.12 113.375 1123.04 130.876 1112.5 165.75C1107.75 178.001 1099 185.918 1086.25 189.5C1072.08 191.167 1057.92 191.167 1043.75 189.5C1034.49 185.252 1029.07 178.168 1027.5 168.25C1026.1 146.47 1034.85 130.22 1053.75 119.5C1060.78 117.544 1067.44 115.461 1073.75 113.25Z" fill="black"/>
<path fill-rule="evenodd" clip-rule="evenodd" d="M-1.25 535.75C-1.25 529.082 -1.25 522.418 -1.25 515.75C6.8109 503.918 16.3943 493.082 27.5 483.25C31.4655 477.825 34.799 471.99 37.5 465.75C59.0515 388.842 81.5515 312.175 105 235.75C111.018 209.917 124.768 189.5 146.25 174.5C163.837 173.032 181.337 173.865 198.75 177C205.574 186.644 208.907 197.478 208.75 209.5C207.721 220.929 205.637 232.179 202.5 243.25C171.208 327.947 140.375 412.948 110 498.25C89.4515 524.168 62.3682 537.5 28.75 538.25C18.8686 536.095 8.86858 535.263 -1.25 535.75Z" fill="black"/>
</svg>
